<svg width="80" height="80" viewBox="0 0 80 80" fill="none" xmlns="http://www.w3.org/2000/svg">
<path d="M48.9939 39.5367C49.0404 39.5367 49.0869 39.5367 49.1348 39.5367C49.1348 40.1075 49.1348 40.6783 49.1348 41.2664C48.9489 41.2664 48.763 41.2664 48.5714 41.2664C48.5301 40.5473 48.5631 40.1187 48.9939 39.5367Z" fill="#6698AB"/>
<path d="M48.7123 38.6718C48.8518 38.7669 48.9912 38.8621 49.1349 38.9601C49.0647 39.4985 49.0116 39.7979 48.7123 40.2574C48.6568 40.5924 48.6088 40.9288 48.5715 41.2664C48.525 41.2664 48.4785 41.2664 48.4306 41.2664C48.4159 40.4344 48.4182 39.635 48.5715 38.816C48.618 38.7684 48.6644 38.7208 48.7123 38.6718Z" fill="#7AA6B7"/>
<path d="M48.7122 37.5187C49.0398 38.0425 49.0168 38.4946 48.9939 39.1042C48.901 39.0091 48.808 38.914 48.7122 38.816C48.6658 39.1489 48.6193 39.4819 48.5714 39.825C48.2303 39.3321 48.2847 38.9375 48.3706 38.37C48.4395 38.0543 48.5447 37.793 48.7122 37.5187Z" fill="#6A9BAE"/>
<path d="M48.4306 37.0862C48.57 37.0862 48.7095 37.0862 48.8531 37.0862C48.8003 37.5097 48.8003 37.5097 48.7123 37.9511C48.5729 38.0224 48.5729 38.0224 48.4306 38.0952C48.2722 37.4106 48.2722 37.4106 48.4306 37.0862Z" fill="#7CA8B8"/>
<path d="M48.1489 35.9331C48.2883 35.9331 48.4278 35.9331 48.5714 35.9331C48.4785 36.2185 48.3855 36.5039 48.2897 36.7979C48.1503 36.7979 48.0108 36.7979 47.8672 36.7979C47.9601 36.5125 48.0531 36.2271 48.1489 35.9331Z" fill="#79A5B6"/>
<path d="M0 40C0 17.9006 17.9006 0 40 0C62.0994 0 80 17.9006 80 40C80 62.0994 62.0994 80 40 80C17.9006 80 0 62.0994 0 40Z" fill="white"/>
<path d="M45.4971 11.8839C45.8954 12.2111 45.8954 12.2111 46.0907 12.4706C46.4891 12.7737 46.9788 12.6672 47.4535 12.6435C48.4184 12.6198 49.2211 12.6842 50.1207 13.0759C50.215 13.1144 50.3092 13.1529 50.4063 13.1925C52.5125 14.1529 53.7926 16.0095 54.6008 18.1446C55.0297 19.4774 55.1005 20.7688 55.0943 22.166C55.0936 22.3516 55.093 22.5372 55.0922 22.7285C55.0721 24.4078 54.8461 25.9169 54.433 27.5376C54.3998 27.669 54.3666 27.8004 54.3324 27.9357C54.2667 28.1917 54.1986 28.4472 54.1278 28.7018C54.082 28.875 54.082 28.875 54.0352 29.0517C54.007 29.1539 53.9787 29.256 53.9495 29.3613C53.916 29.7369 54.0126 29.9122 54.2053 30.2291C54.2982 30.3421 54.3912 30.455 54.4869 30.5714C55.254 31.6018 55.1943 33.0264 55.0503 34.2651C54.6525 35.746 53.8064 37.2382 52.4975 38.0557C51.8582 38.3876 51.3129 38.6092 50.5873 38.5985C50.4735 38.5972 50.3596 38.5959 50.2423 38.5945C50.1124 38.592 50.1124 38.592 49.9799 38.5894C49.9592 38.6734 49.9385 38.7574 49.9172 38.8439C49.4532 40.5796 48.6502 42.0697 47.434 43.3707C47.0886 43.8907 47.0922 44.2087 47.0931 44.8338C47.0929 44.9346 47.0927 45.0354 47.0925 45.1393C47.0927 45.3523 47.0944 45.5652 47.0973 45.7782C47.1013 46.099 47.1002 46.4195 47.0984 46.7403C47.1002 48.2327 47.1416 49.8064 48.1489 50.9858C48.5401 51.2511 48.5401 51.2511 49.0116 51.4453C49.1012 51.486 49.1908 51.5266 49.2831 51.5685C49.8851 51.8389 50.4937 52.0935 51.1012 52.3507C59.749 56.0219 59.749 56.0219 61.6663 60.5338C62.2004 61.8783 62.6622 63.2539 62.9376 64.6795C62.9807 64.8975 62.9807 64.8975 63.0246 65.1198C63.1797 66.0091 63.235 66.867 63.2265 67.7674C63.226 67.873 63.2255 67.9786 63.2249 68.0874C63.2236 68.3448 63.2215 68.6023 63.2193 68.8597C57.48 68.863 51.7407 68.8656 46.0014 68.8671C45.3246 68.8673 44.6477 68.8674 43.9709 68.8676C43.8362 68.8677 43.7014 68.8677 43.5626 68.8677C41.3777 68.8684 39.1928 68.8695 37.008 68.8708C34.7679 68.8722 32.5277 68.873 30.2876 68.8733C28.9042 68.8735 27.5207 68.8741 26.1373 68.8753C25.1899 68.876 24.2426 68.8763 23.2953 68.8761C22.7479 68.876 22.2005 68.8761 21.653 68.8769C21.061 68.8777 20.4689 68.8774 19.8769 68.8771C19.7019 68.8775 19.527 68.8779 19.3467 68.8783C19.1894 68.878 19.0322 68.8777 18.8701 68.8774C18.7333 68.8775 18.5964 68.8776 18.4554 68.8776C18.1489 68.8597 18.1489 68.8597 18.0081 68.7156C17.5869 65.4585 19.1478 61.2696 20.957 58.6435C21.145 58.3951 21.3357 58.1488 21.5292 57.9048C21.6194 57.7855 21.7097 57.6662 21.8026 57.5433C24.3042 54.4438 28.5488 53.0987 32.113 51.7296C33.0019 51.389 33.0019 51.389 33.6182 50.697C33.8626 50.0005 33.8624 49.277 33.8795 48.5444C33.8844 48.4046 33.8892 48.2648 33.8941 48.1207C33.9057 47.7785 33.9154 47.4363 33.9236 47.0939C33.7713 47.0357 33.7713 47.0357 33.616 46.9763C31.0282 45.8633 28.8508 43.3406 27.7264 40.7516C27.0222 38.8037 27.0222 38.8037 27.0222 38.0129C26.906 38.0069 26.7898 38.001 26.67 37.9949C25.6672 37.7383 25.0757 37.1037 24.5133 36.2381C23.6698 34.7658 23.4244 33.3688 23.6419 31.6705C23.9147 30.7098 24.3862 30.0635 25.1912 29.5084C25.3306 29.4608 25.47 29.4132 25.6137 29.3642C25.5678 29.2715 25.5218 29.1788 25.4745 29.0833C24.4107 26.8319 24.3214 24.6025 24.3461 22.157C24.2392 22.1193 24.1322 22.0816 24.022 22.0427C23.634 21.8651 23.4601 21.7218 23.1929 21.3912C23.1241 21.3086 23.0553 21.2259 22.9844 21.1407C22.4175 20.2917 22.4094 19.4059 22.5151 18.4093C22.9834 17.3771 23.7593 17.0282 24.7422 16.6345C24.944 16.5595 24.944 16.5595 25.1499 16.483C26.3537 15.8707 27.2548 14.876 28.1753 13.8958C32.7769 9.11343 39.9793 7.61987 45.4971 11.8839Z" fill="#FECFAD"/>
<path d="M48.1489 51.13C48.7938 51.3406 49.4179 51.589 50.041 51.8586C50.1405 51.9015 50.24 51.9444 50.3425 51.9886C59.9173 56.1308 59.9173 56.1308 61.8032 60.8783C62.272 62.1181 62.6853 63.3737 62.9376 64.6795C62.9663 64.8248 62.995 64.9701 63.0246 65.1199C63.1797 66.0091 63.235 66.867 63.2265 67.7674C63.226 67.873 63.2255 67.9786 63.2249 68.0874C63.2236 68.3448 63.2215 68.6023 63.2193 68.8597C57.48 68.863 51.7407 68.8656 46.0014 68.8671C45.3246 68.8673 44.6477 68.8674 43.9709 68.8676C43.8362 68.8677 43.7014 68.8677 43.5626 68.8677C41.3777 68.8684 39.1928 68.8695 37.008 68.8708C34.7679 68.8722 32.5277 68.873 30.2876 68.8733C28.9042 68.8735 27.5207 68.8741 26.1373 68.8753C25.1899 68.876 24.2426 68.8763 23.2953 68.8761C22.7479 68.876 22.2005 68.8761 21.653 68.8769C21.061 68.8777 20.4689 68.8775 19.8769 68.8771C19.7019 68.8775 19.527 68.8779 19.3467 68.8783C19.1894 68.878 19.0322 68.8777 18.8701 68.8775C18.7333 68.8775 18.5964 68.8776 18.4554 68.8776C18.1489 68.8597 18.1489 68.8597 18.0081 68.7156C17.5869 65.4585 19.1478 61.2696 20.957 58.6435C21.145 58.3951 21.3357 58.1488 21.5292 57.9048C21.6194 57.7855 21.7097 57.6662 21.8026 57.5433C24.4995 54.2019 29.4488 52.5861 33.3602 51.2741C33.3778 51.6165 33.3778 51.6165 33.3602 51.9949C33.2672 52.09 33.1743 52.1851 33.0785 52.2831C33.0785 53.0465 33.5781 53.6248 34.0644 54.157C35.9791 55.7912 38.2975 55.9086 40.6841 55.7426C43.2903 55.3966 45.6211 54.2266 47.4447 52.2831C47.7093 51.913 47.9394 51.5351 48.1489 51.13Z" fill="#9DCAD9"/>
<path d="M45.497 11.8839C45.8953 12.2111 45.8953 12.2111 46.0907 12.4706C46.489 12.7737 46.9788 12.6672 47.4534 12.6435C48.4184 12.6198 49.221 12.6842 50.1207 13.0759C50.2149 13.1144 50.3092 13.1529 50.4062 13.1925C52.5125 14.1529 53.7925 16.0095 54.6008 18.1446C55.0296 19.4774 55.1004 20.7688 55.0943 22.166C55.0933 22.4444 55.0933 22.4444 55.0922 22.7285C55.0754 24.1257 54.9547 25.4133 54.6277 26.7696C54.5991 26.8929 54.5704 27.0162 54.5409 27.1433C54.0388 29.2986 54.0388 29.2986 53.7827 30.0849C53.1137 30.2471 53.1137 30.2471 52.7968 30.0849C51.8295 29.9745 51.1891 30.07 50.4024 30.6615C50.154 30.968 50.154 30.968 49.9799 31.2381C49.8869 31.2381 49.7939 31.2381 49.6982 31.2381C49.0648 28.9953 48.9462 26.7846 48.9939 24.4633C48.8167 24.4128 48.6395 24.3622 48.457 24.3102C46.2633 23.5571 45.0863 22.0095 44.0644 19.9948C43.8633 19.566 43.6788 19.1373 43.501 18.6976C43.4258 18.7866 43.3506 18.8756 43.2732 18.9673C40.875 21.7571 38.0825 23.3354 34.4335 23.6251C32.8503 23.7142 31.4146 23.6863 30.0943 22.6795C29.7354 22.4144 29.7354 22.4144 29.4319 22.4735C29.146 22.5482 29.146 22.5482 28.8845 22.6503C28.449 22.7662 28.0331 22.7446 27.5855 22.7336C27.2601 25.2207 27.1531 27.7252 27.0221 30.2291C26.3284 30.1052 26.1024 29.9324 25.672 29.3744C24.2723 27.2771 24.3215 24.5903 24.346 22.157C24.2391 22.1193 24.1322 22.0816 24.022 22.0427C23.634 21.8651 23.46 21.7218 23.1929 21.3912C23.1241 21.3086 23.0553 21.2259 22.9844 21.1407C22.4175 20.2917 22.4094 19.4059 22.5151 18.4093C22.9833 17.3771 23.7593 17.0282 24.7422 16.6345C24.8767 16.5845 25.0112 16.5345 25.1499 16.483C26.3537 15.8707 27.2548 14.876 28.1753 13.8958C32.7769 9.11343 39.9793 7.61987 45.497 11.8839Z" fill="#426A7E"/>
<path d="M46.1772 44.6435C46.3428 44.9826 46.3268 45.1597 46.312 45.536C46.2763 46.8262 46.2719 48.0573 46.5645 49.3192C46.5866 49.4169 46.6087 49.5147 46.6315 49.6154C46.8441 50.446 47.163 51.0819 47.8673 51.5624C47.4926 52.9685 45.947 53.8528 44.7946 54.5365C43.0346 55.4911 41.2182 55.9123 39.2406 55.9138C39.0524 55.9164 39.0524 55.9164 38.8604 55.9191C37.076 55.9231 35.3423 55.4987 33.9798 54.255C32.9377 53.08 32.9377 53.08 32.9377 52.4363C33.1178 52.0563 33.393 51.8866 33.7129 51.6322C34.4643 50.8693 34.5018 49.4993 34.5663 48.4904C34.5781 48.3096 34.5899 48.1288 34.602 47.9425C34.6106 47.8052 34.6191 47.6679 34.6279 47.5264C34.7332 47.5559 34.8385 47.5855 34.947 47.6159C35.0857 47.6548 35.2244 47.6936 35.3673 47.7336C35.5046 47.7721 35.6418 47.8105 35.7833 47.8502C35.9133 47.886 36.0432 47.9219 36.1772 47.9588C36.2637 47.9841 36.3503 48.0095 36.4395 48.0355C38.0819 48.4033 40.1677 48.2859 41.6701 47.5264C41.7802 47.4722 41.8902 47.4179 42.0035 47.362C43.508 46.6145 44.9825 45.8662 46.1772 44.6435Z" fill="#FECFAD"/>
<path d="M25.552 29.4273C26.0066 29.5347 26.2507 29.7749 26.5996 30.0849C26.739 30.1325 26.8785 30.1801 27.0221 30.2291C27.0327 30.4012 27.0433 30.5732 27.0542 30.7505C27.0945 31.3994 27.1367 32.0482 27.1794 32.6969C27.1975 32.9757 27.2152 33.2546 27.2322 33.5335C27.4833 37.6151 28.2781 41.4454 31.2651 44.3913C33.7519 46.5212 36.529 47.146 39.6982 46.9498C42.7112 46.5875 45.5231 44.4961 47.4447 42.1931C48.5228 40.7672 49.032 39.1355 49.5573 37.4363C49.6503 37.4363 49.7432 37.4363 49.839 37.4363C49.8855 37.5314 49.932 37.6266 49.9799 37.7246C51.0635 37.817 51.7811 37.6238 52.6389 36.9357C53.7787 35.8699 54.3179 34.394 54.4077 32.8417C54.3909 31.8339 53.8927 31.0466 53.3601 30.2291C53.5461 30.134 53.732 30.0388 53.9235 29.9408C54.0601 30.0894 54.1947 30.24 54.3285 30.3913C54.4036 30.4749 54.4788 30.5585 54.5562 30.6446C55.2604 31.6566 55.1886 33.0749 55.0503 34.2651C54.6525 35.746 53.8063 37.2382 52.4975 38.0557C51.8582 38.3876 51.3129 38.6092 50.5873 38.5985C50.4165 38.5965 50.4165 38.5965 50.2423 38.5945C50.1557 38.5928 50.0691 38.5912 49.9799 38.5895C49.9592 38.6734 49.9385 38.7574 49.9171 38.844C49.4532 40.5796 48.6502 42.0697 47.434 43.3707C47.0886 43.8907 47.0922 44.2087 47.0931 44.8338C47.0929 44.9346 47.0927 45.0354 47.0925 45.1393C47.0927 45.3523 47.0943 45.5653 47.0972 45.7782C47.1013 46.099 47.1002 46.4195 47.0983 46.7404C47.1002 48.0713 47.1087 49.4892 47.9024 50.6075C48.1489 50.9859 48.1489 50.9859 48.1137 51.4003C48.0788 51.5013 48.0439 51.6024 48.008 51.7066C47.0722 51.1841 46.7892 50.5866 46.4714 49.5647C46.0753 47.9883 46.1352 46.4035 46.177 44.7877C46.1083 44.8529 46.0395 44.9181 45.9686 44.9853C45.3378 45.5689 44.7156 46.0427 43.9675 46.4543C43.8708 46.5087 43.774 46.563 43.6743 46.6191C41.9613 47.5698 40.4104 48.3048 38.4306 48.3102C38.2172 48.311 38.2172 48.311 37.9995 48.3119C36.7654 48.2926 35.7549 48.0366 34.6277 47.5264C34.6351 47.7173 34.6351 47.7173 34.6426 47.9121C34.6717 49.232 34.6811 50.5854 33.8355 51.6615C33.501 51.9949 33.501 51.9949 33.3601 51.9949C33.3229 51.4742 33.3421 51.1682 33.567 50.6931C33.8708 49.9985 33.862 49.2949 33.8795 48.5444C33.8843 48.4046 33.8891 48.2648 33.8941 48.1207C33.9056 47.7785 33.9154 47.4363 33.9235 47.094C33.822 47.0551 33.7205 47.0163 33.616 46.9763C31.0282 45.8633 28.8507 43.3406 27.7263 40.7516C27.0221 38.8037 27.0221 38.8037 27.0221 38.0129C26.9059 38.0069 26.7897 38.001 26.67 37.9949C25.6671 37.7383 25.0756 37.1037 24.5133 36.2381C23.6698 34.7658 23.4244 33.3688 23.6418 31.6705C23.9235 30.6789 24.5005 29.6635 25.552 29.4273Z" fill="#D0825B"/>
<path d="M48.149 51.13C48.7939 51.3406 49.4179 51.589 50.041 51.8586C50.1405 51.9015 50.24 51.9444 50.3426 51.9886C59.9174 56.1308 59.9174 56.1308 61.8032 60.8783C62.2721 62.1181 62.6853 63.3737 62.9377 64.6795C62.9664 64.8248 62.9951 64.9701 63.0246 65.1199C63.2429 66.3714 63.248 67.5939 63.2194 68.8597C62.987 68.8597 62.7546 68.8597 62.5152 68.8597C62.503 68.6763 62.4908 68.4929 62.4783 68.304C62.1693 64.168 61.177 60.0861 58.1165 57.1733C55.8623 55.2064 52.8729 54.0373 50.1824 52.8507C49.9951 52.7681 49.9951 52.7681 49.8041 52.6838C49.6876 52.6331 49.5712 52.5825 49.4512 52.5303C49.3491 52.4859 49.247 52.4415 49.1417 52.3957C48.8602 52.2859 48.5834 52.207 48.2898 52.139C48.2535 52.2464 48.2172 52.3538 48.1798 52.4644C47.3769 54.3133 45.0094 55.3393 43.2931 56.0264C41.9554 56.5102 40.6455 56.6602 39.2317 56.6525C39.0764 56.6517 38.921 56.6509 38.761 56.65C37.0165 56.6234 35.6549 56.3641 34.2053 55.3102C34.0543 55.2031 33.9032 55.0961 33.7476 54.9858C33.1243 54.348 32.6536 53.573 32.3743 52.7156C27.9506 53.9668 23.3521 56.0598 20.9527 60.2646C19.6005 62.8346 18.9715 65.8263 18.7124 68.7156C18.4395 68.7967 18.4395 68.7967 18.149 68.8597C17.9261 68.6316 17.9733 68.4123 17.9641 68.094C18.0003 64.5239 19.3395 60.6663 21.5293 57.9048C21.6195 57.7855 21.7097 57.6662 21.8027 57.5433C24.4995 54.2019 29.4489 52.5861 33.3602 51.2741C33.3778 51.6165 33.3778 51.6165 33.3602 51.9949C33.2673 52.09 33.1743 52.1851 33.0785 52.2831C33.0785 53.0465 33.5782 53.6248 34.0645 54.157C35.9791 55.7912 38.2976 55.9086 40.6842 55.7426C43.2903 55.3966 45.6212 54.2266 47.4447 52.2831C47.7093 51.913 47.9394 51.5351 48.149 51.13Z" fill="#709EB1"/>
<path d="M25.552 29.4273C26.0066 29.5347 26.2507 29.7749 26.5996 30.0849C26.739 30.1325 26.8785 30.1801 27.0221 30.2291C27.0327 30.4012 27.0433 30.5732 27.0542 30.7505C27.0945 31.3994 27.1367 32.0482 27.1794 32.6969C27.1975 32.9757 27.2152 33.2546 27.2322 33.5335C27.4833 37.6165 28.266 41.5409 31.3355 44.4273C31.8836 44.8992 32.4598 45.2842 33.0785 45.6525C32.7968 45.7967 32.7968 45.7967 32.3742 45.7967C32.4207 45.9394 32.4672 46.0821 32.5151 46.2291C30.2052 45.1323 28.469 42.681 27.58 40.3C27.0221 38.5965 27.0221 38.5965 27.0221 38.0129C26.9059 38.0069 26.7897 38.001 26.67 37.9949C25.6671 37.7383 25.0756 37.1037 24.5133 36.2381C23.6698 34.7658 23.4244 33.3688 23.6418 31.6705C23.9235 30.6789 24.5005 29.6635 25.552 29.4273Z" fill="#CC7C56"/>
<path d="M24.6278 63.2381C24.7207 63.2381 24.8137 63.2381 24.9095 63.2381C24.9426 64.4639 24.8404 65.6524 24.6982 66.8687C24.6781 67.0472 24.6579 67.2257 24.6371 67.4095C24.5879 67.845 24.5378 68.2803 24.4869 68.7156C24.6961 68.6442 24.6961 68.6442 24.9095 68.5714C25.2841 68.5579 25.655 68.5526 26.0297 68.5541C26.2028 68.5539 26.2028 68.5539 26.3794 68.5537C26.7673 68.5535 27.1553 68.5543 27.5433 68.5551C27.8209 68.5551 28.0984 68.5551 28.376 68.555C29.1308 68.555 29.8857 68.5558 30.6405 68.5568C31.4288 68.5577 32.2172 68.5578 33.0056 68.558C34.499 68.5584 35.9925 68.5596 37.4859 68.561C39.1859 68.5627 40.8859 68.5635 42.5859 68.5642C46.0834 68.5657 49.581 68.5682 53.0785 68.5714C53.1248 68.2751 53.1707 67.9786 53.2163 67.6821C53.2419 67.517 53.2675 67.3519 53.2938 67.1819C53.3983 66.4195 53.4197 65.6601 53.44 64.8915C53.4441 64.7783 53.4483 64.665 53.4526 64.5483C53.4552 64.4486 53.4579 64.3488 53.4606 64.2459C53.5075 63.9131 53.6228 63.674 53.7827 63.3822C53.9221 63.4298 54.0616 63.4774 54.2052 63.5264C54.2136 64.0909 54.2185 64.6555 54.2229 65.2201C54.2252 65.3775 54.2276 65.5348 54.23 65.697C54.2309 65.854 54.2318 66.011 54.2328 66.1728C54.2342 66.3147 54.2357 66.4566 54.2372 66.6028C54.1912 67.3612 54.0456 68.1102 53.9236 68.8597C43.9771 68.8597 34.0306 68.8597 23.7827 68.8597C23.7827 67.9412 23.8095 67.0963 23.906 66.193C23.9226 66.0222 23.9226 66.0222 23.9395 65.8479C24.1612 63.7157 24.1612 63.7157 24.6278 63.2381Z" fill="#92C4D4"/>
<path d="M26.4587 30.0849C26.4665 30.2477 26.4743 30.4104 26.4823 30.5781C26.5116 31.188 26.5414 31.7978 26.5713 32.4076C26.5841 32.6704 26.5968 32.9332 26.6094 33.196C26.6276 33.576 26.6463 33.9561 26.665 34.3361C26.6705 34.4516 26.6759 34.5671 26.6815 34.6862C26.7227 35.5099 26.7948 36.328 26.8812 37.148C26.189 37.0873 25.9173 36.8157 25.4728 36.2831C24.401 34.8333 24.2001 33.4483 24.346 31.6705C24.6604 30.5783 25.3789 30.0469 26.4587 30.0849Z" fill="#FED1AF"/>
<path d="M53.7827 29.9408C54.5159 30.4202 54.8437 30.9664 55.0503 31.8147C55.2478 33.7045 54.9666 35.3274 53.7827 36.8597C53.0534 37.7267 52.3049 38.2287 51.2475 38.5895C51.0276 38.5992 50.8074 38.6017 50.5873 38.5985C50.4166 38.5965 50.4166 38.5965 50.2423 38.5945C50.1557 38.5929 50.0691 38.5912 49.9799 38.5895C49.9592 38.6734 49.9385 38.7574 49.9172 38.844C49.5314 40.2871 48.9017 41.586 48.0081 42.7696C47.9151 42.6745 47.8222 42.5794 47.7264 42.4814C47.401 42.7668 47.0757 43.0522 46.7405 43.3462C46.7405 42.8182 46.8335 42.7686 47.1806 42.4003C48.4519 40.9451 48.9749 39.263 49.5574 37.4363C49.6503 37.4363 49.7433 37.4363 49.8391 37.4363C49.8855 37.5314 49.932 37.6266 49.9799 37.7246C51.0635 37.817 51.7811 37.6238 52.6389 36.9357C53.7788 35.8699 54.318 34.394 54.4077 32.8417C54.391 31.8339 53.8928 31.0467 53.3602 30.2291C53.4996 30.134 53.6391 30.0388 53.7827 29.9408Z" fill="#CF7F56"/>
<path d="M42.7263 29.5264C43.2192 29.6525 43.2192 29.6525 43.4833 29.9138C43.8715 30.6863 43.8942 31.5307 43.677 32.3642C43.4693 32.7361 43.3055 32.9075 42.9375 33.112C42.5942 33.184 42.5942 33.184 42.2333 33.112C41.8772 32.8138 41.6047 32.5639 41.4147 32.13C41.3374 31.2074 41.3072 30.5984 41.8108 29.7967C42.2333 29.5084 42.2333 29.5084 42.7263 29.5264Z" fill="#614231"/>
<path d="M32.0309 29.4093C32.5151 29.5084 32.5151 29.5084 32.8496 29.8417C33.2298 30.4853 33.2985 31.0751 33.2193 31.8147C33.0292 32.2921 32.8701 32.6045 32.5151 32.9678C31.9543 33.0316 31.6515 33.0634 31.1947 32.7066C30.6947 32.0178 30.7253 31.1962 30.8249 30.3732C31.075 29.7696 31.3947 29.5349 32.0309 29.4093Z" fill="#60402F"/>
<path d="M41.0187 39.2021C41.0942 39.2377 41.1697 39.2734 41.2475 39.3102C41.205 39.7612 41.1735 39.9709 40.8343 40.2753C39.1987 41.2311 37.5999 41.6305 35.7106 41.2291C35.0695 40.9956 34.5041 40.6795 33.9236 40.3192C33.9236 40.0813 33.9236 39.8435 33.9236 39.5985C34.5718 39.6774 35.0358 39.873 35.6137 40.175C37.1124 40.5514 38.7809 40.384 40.1224 39.5709C40.2305 39.4909 40.2305 39.4909 40.3408 39.4093C40.6841 39.166 40.6841 39.166 41.0187 39.2021Z" fill="#C57754"/>
<path d="M36.4587 30.9498C36.5981 30.9498 36.7376 30.9498 36.8812 30.9498C36.787 31.8826 36.3971 32.666 36.0196 33.5081C35.6908 34.2715 35.4478 35.0056 35.4728 35.8507C35.8532 36.5232 36.6103 36.6596 37.3038 36.8597C37.2573 37.05 37.2108 37.2403 37.1629 37.4363C36.2593 37.5012 35.7839 37.4192 35.0502 36.8597C34.609 36.2188 34.5152 35.6067 34.6277 34.8417C34.8391 34.2034 35.1088 33.5973 35.3847 32.9858C35.4563 32.8216 35.5278 32.6573 35.6015 32.4881C36.1328 31.2834 36.1328 31.2834 36.4587 30.9498Z" fill="#C97C57"/>
<path d="M46.7405 44.0669C46.787 44.0669 46.8335 44.0669 46.8814 44.0669C46.8792 44.178 46.8769 44.2891 46.8747 44.4036C46.8658 44.913 46.8604 45.4224 46.855 45.9318C46.8514 46.1065 46.8479 46.2813 46.8442 46.4614C46.8361 47.4846 46.9109 48.3137 47.3039 49.2561C47.3549 49.3986 47.4059 49.5411 47.4585 49.688C47.5033 49.8041 47.5482 49.9202 47.5944 50.0399C47.6396 50.1586 47.6848 50.2774 47.7314 50.3997C47.8575 50.7204 47.8575 50.7204 48.149 50.9858C48.0962 51.3642 48.0962 51.3642 48.0081 51.7066C47.0712 51.1836 46.7863 50.5842 46.4715 49.5596C46.2053 48.4914 46.1343 47.4631 46.1243 46.3642C46.1224 46.2338 46.1204 46.1035 46.1184 45.9691C46.1238 45.1968 46.18 44.6406 46.7405 44.0669Z" fill="#DD9568"/>
<path d="M42.4006 25.5534C42.5614 25.5547 42.5614 25.5547 42.7254 25.5561C43.5533 25.5796 44.2078 25.7219 44.9094 26.1931C45.0518 26.2882 45.1941 26.3833 45.3408 26.4813C45.6137 26.7696 45.6137 26.7696 45.6137 27.3462C45.1052 27.2942 44.7118 27.2524 44.2668 26.9858C43.596 26.6863 42.9756 26.6881 42.251 26.6705C42.1137 26.6656 41.9765 26.6607 41.8351 26.6556C41.4984 26.6438 41.1617 26.6338 40.8249 26.6255C40.7784 26.4352 40.732 26.2449 40.6841 26.0489C41.194 25.5326 41.7214 25.5441 42.4006 25.5534Z" fill="#546470"/>
<path d="M33.0168 25.6525C33.3601 25.9048 33.3601 25.9048 33.5009 26.2021C33.5009 26.2942 33.5009 26.3864 33.5009 26.4813C33.408 26.5765 33.315 26.6716 33.2192 26.7696C32.8 26.751 32.8 26.751 32.2861 26.6885C31.2246 26.594 30.6369 26.7217 29.7333 27.3102C29.4164 27.4904 29.4164 27.4904 29.0907 27.4453C29.0123 27.4126 28.9338 27.3799 28.853 27.3462C28.9568 26.7237 29.2284 26.4899 29.6959 26.1058C30.7017 25.3936 31.8615 25.2377 33.0168 25.6525Z" fill="#475B6A"/>
<path d="M34.346 18.121C34.4158 18.335 34.4158 18.335 34.4869 18.5534C34.3123 18.8679 34.137 19.1332 33.9235 19.4183C33.8718 19.4941 33.82 19.5699 33.7667 19.648C32.9055 20.8049 31.534 21.6897 30.2615 22.3012C30.5667 22.6291 30.8892 22.9005 31.2474 23.166C30.7613 23.1075 30.5221 23.0069 30.1119 22.7156C29.7408 22.4041 29.7408 22.4041 29.4368 22.4999C29.3371 22.5295 29.2375 22.559 29.1348 22.5895C28.8884 22.599 28.6418 22.6018 28.3953 22.5985C28.2697 22.5972 28.1441 22.5959 28.0146 22.5945C27.9195 22.5929 27.8243 22.5912 27.7263 22.5895C27.7263 22.5419 27.7263 22.4943 27.7263 22.4453C27.9587 22.3977 28.1911 22.3502 28.4305 22.3012C28.4305 22.206 28.4305 22.1109 28.4305 22.0129C28.5362 21.9917 28.6419 21.9705 28.7507 21.9487C30.4589 21.5656 31.611 20.6897 32.9376 19.5624C33.1201 19.4169 33.1201 19.4169 33.3062 19.2685C33.5886 19.0307 33.8117 18.8085 34.0379 18.5174C34.1396 18.3866 34.2413 18.2558 34.346 18.121Z" fill="#3B515B"/>
<path d="M53.7828 63.3822C53.9222 63.4298 54.0617 63.4774 54.2053 63.5264C54.2137 64.0909 54.2186 64.6555 54.2229 65.2201C54.2253 65.3775 54.2277 65.5348 54.2301 65.697C54.2364 66.7802 54.1318 67.7978 53.9237 68.8597C53.7377 68.8597 53.5518 68.8597 53.3603 68.8597C53.3443 67.6478 53.3594 66.4399 53.4131 65.2291C53.4174 65.1119 53.4218 64.9947 53.4263 64.8739C53.4765 63.8551 53.4765 63.8551 53.7828 63.3822Z" fill="#72A0B1"/>
<path d="M24.6278 63.2381C24.7207 63.2381 24.8137 63.2381 24.9094 63.2381C24.9426 64.4639 24.8404 65.6524 24.6982 66.8687C24.678 67.0472 24.6579 67.2257 24.6371 67.4095C24.5878 67.845 24.5377 68.2803 24.4869 68.7156C24.1383 68.7869 24.1383 68.7869 23.7827 68.8597C23.7704 67.96 23.8104 67.0872 23.9059 66.193C23.9225 66.0222 23.9225 66.0222 23.9395 65.8479C24.1611 63.7157 24.1611 63.7157 24.6278 63.2381Z" fill="#73A1B2"/>
<path d="M33.9235 47.2381C34.346 47.5264 34.346 47.5264 34.4136 47.7922C34.4347 48.1421 34.4548 48.4915 34.4693 48.8417C34.4776 48.9614 34.486 49.081 34.4946 49.2043C34.5361 50.0525 34.4204 50.6486 34.0643 51.4183C33.6858 51.7786 33.6858 51.7786 33.3601 51.9949C33.3228 51.4727 33.3433 51.1659 33.567 50.6885C33.8614 50.0153 33.8615 49.3445 33.8795 48.6165C33.8843 48.4835 33.8891 48.3506 33.894 48.2136C33.9056 47.8885 33.9153 47.5634 33.9235 47.2381Z" fill="#D58D60"/>
<path d="M43.501 25.7606C44.3073 25.795 44.7564 26.0416 45.4018 26.5292C45.6137 26.7696 45.6137 26.7696 45.6137 27.3462C44.8004 27.2769 44.211 27.0313 43.501 26.6255C43.5271 26.5363 43.5533 26.4471 43.5802 26.3552C43.6752 26.0429 43.6752 26.0429 43.501 25.7606Z" fill="#445C6D"/>
<path d="M33.2193 25.7606C33.1496 25.829 33.0798 25.8974 33.008 25.9678C32.7805 26.1583 32.7805 26.1583 32.7967 26.3372C31.2933 26.3674 31.2933 26.3674 30.8249 26.1931C30.64 25.8958 30.64 25.8958 30.5432 25.6165C31.4118 25.3599 32.4069 25.3172 33.2193 25.7606Z" fill="#51616C"/>
<path d="M30.4024 21.4363C30.4489 21.5314 30.4953 21.6266 30.5432 21.7246C30.4112 22.103 30.4112 22.103 30.2615 22.4453C30.5869 22.6356 30.9122 22.8258 31.2474 23.0219C31.108 23.0694 30.9686 23.117 30.8249 23.166C30.3936 22.8958 30.3936 22.8958 29.9798 22.5894C29.6197 22.4052 29.5172 22.4888 29.1348 22.5894C28.8884 22.599 28.6418 22.6018 28.3953 22.5985C28.2697 22.5972 28.1441 22.5959 28.0146 22.5945C27.9195 22.5928 27.8243 22.5912 27.7263 22.5894C27.7263 22.5419 27.7263 22.4943 27.7263 22.4453C27.9587 22.3977 28.1911 22.3502 28.4305 22.3012C28.4305 22.206 28.4305 22.1109 28.4305 22.0129C28.5493 21.9833 28.668 21.9538 28.7904 21.9233C28.9447 21.8845 29.099 21.8457 29.258 21.8057C29.4116 21.7672 29.5652 21.7287 29.7235 21.6891C30.1101 21.5979 30.1101 21.5979 30.4024 21.4363Z" fill="#34505F"/>
<path d="M49.5574 39.166C49.7464 39.6019 49.6918 39.7598 49.521 40.215C49.4351 40.3918 49.3474 40.5676 49.2581 40.7426C49.2163 40.8302 49.1745 40.9178 49.1315 41.0081C48.8292 41.6156 48.4931 42.0287 48.0081 42.4813C48.1518 42.0854 48.3045 41.7356 48.5186 41.3732C48.7363 41.0632 48.7363 41.0632 48.7123 40.7516C48.6658 40.8468 48.6193 40.9419 48.5714 41.0399C48.4785 40.9923 48.3855 40.9448 48.2897 40.8958C48.4292 40.6579 48.5686 40.4201 48.7123 40.175C48.8982 40.2226 49.0841 40.2702 49.2757 40.3192C49.296 40.2092 49.3163 40.0992 49.3373 39.9859C49.4165 39.5985 49.4165 39.5985 49.5574 39.166Z" fill="#CA754B"/>
<path d="M53.7826 29.9408C54.3579 30.6108 54.7467 31.2604 54.795 32.166C54.7863 32.2879 54.7775 32.4098 54.7686 32.5354C54.7221 32.5354 54.6756 32.5354 54.6277 32.5354C54.6277 32.2976 54.6277 32.0597 54.6277 31.8147C54.4883 31.8147 54.3488 31.8147 54.2052 31.8147C54.1678 31.7365 54.1304 31.6582 54.0918 31.5776C54.0421 31.4745 53.9923 31.3714 53.9411 31.2651C53.8921 31.1631 53.8431 31.0611 53.7925 30.956C53.6326 30.6309 53.6326 30.6309 53.3601 30.2291C53.4995 30.134 53.639 30.0388 53.7826 29.9408Z" fill="#D4865E"/>
<path d="M24.0644 32.103C24.1109 32.103 24.1574 32.103 24.2053 32.103C24.2529 32.4002 24.2997 32.6975 24.3461 32.9949C24.3722 33.1604 24.3984 33.326 24.4253 33.4965C24.4778 33.9054 24.499 34.2863 24.4869 34.6976C24.394 34.6024 24.301 34.5073 24.2053 34.4093C24.2053 34.6947 24.2053 34.9801 24.2053 35.2741C23.7818 34.8408 23.8396 34.4347 23.7827 33.8327C23.8292 33.8327 23.8757 33.8327 23.9236 33.8327C23.97 33.2619 24.0165 32.6911 24.0644 32.103Z" fill="#C67149"/>
<path d="M54.0643 63.8147C54.0643 64.4331 54.0643 65.0514 54.0643 65.6886C53.9713 65.6886 53.8784 65.6886 53.7826 65.6886C53.5009 65.4003 53.5009 65.4003 53.4734 65.0568C53.4767 64.9264 53.4799 64.7959 53.4833 64.6615C53.4858 64.5303 53.4884 64.3992 53.491 64.264C53.4943 64.1633 53.4975 64.0626 53.5009 63.9588C53.7826 63.8147 53.7826 63.8147 54.0643 63.8147Z" fill="#7AA8B8"/>
<path d="M33.3601 51.2741C33.3601 51.512 33.3601 51.7498 33.3601 51.9949C32.691 52.157 32.691 52.157 32.3741 51.9949C32.138 52.0351 31.9029 52.0825 31.6699 52.139C31.8585 51.7531 32.0531 51.7136 32.4358 51.5444C32.5489 51.4935 32.662 51.4426 32.7785 51.3901C33.0784 51.2741 33.0784 51.2741 33.3601 51.2741Z" fill="#6A98AB"/>
<path d="M24.2053 34.2651C24.6279 34.5534 24.6279 34.5534 24.7159 34.9768C24.7333 35.1225 24.7507 35.2682 24.7687 35.4183C24.8152 35.561 24.8617 35.7037 24.9095 35.8507C24.487 35.8507 24.487 35.8507 24.2493 35.6976C23.9691 35.2741 24.0285 34.9066 24.0645 34.4093C24.1109 34.3617 24.1574 34.3141 24.2053 34.2651Z" fill="#CE805C"/>
<path d="M30.4024 21.4363C30.4489 21.5314 30.4954 21.6266 30.5433 21.7246C30.4112 22.103 30.4112 22.103 30.2616 22.4453C30.7496 22.7307 30.7496 22.7307 31.2475 23.0219C31.1081 23.0694 30.9686 23.117 30.825 23.166C30.2845 22.8549 29.8937 22.5482 29.5574 22.0129C29.8362 21.8226 30.1151 21.6323 30.4024 21.4363Z" fill="#33596C"/>
<path d="M51.9516 37.4363C51.9981 37.5314 52.0445 37.6266 52.0924 37.7246C51.9065 37.7722 51.7206 37.8197 51.5291 37.8687C51.5291 37.9639 51.5291 38.059 51.5291 38.157C51.6685 38.2046 51.8079 38.2522 51.9516 38.3012C51.7192 38.3487 51.4868 38.3963 51.2474 38.4453C51.2474 38.3977 51.2474 38.3502 51.2474 38.3012C50.8755 38.2536 50.5037 38.206 50.1206 38.157C50.1206 38.1094 50.1206 38.0619 50.1206 38.0129C50.7248 37.8226 51.3291 37.6323 51.9516 37.4363Z" fill="#CB794E"/>
<path d="M24.6279 63.2381C24.7208 63.2381 24.8138 63.2381 24.9095 63.2381C24.9095 63.6186 24.9095 63.9992 24.9095 64.3913C24.8166 64.2485 24.7236 64.1058 24.6279 63.9588C24.5349 64.3394 24.4419 64.7199 24.3462 65.112C24.2997 65.112 24.2532 65.112 24.2053 65.112C24.2214 64.8536 24.2393 64.5954 24.2581 64.3372C24.2679 64.1934 24.2777 64.0496 24.2878 63.9014C24.3462 63.5264 24.3462 63.5264 24.6279 63.2381Z" fill="#709DAE"/>
<path d="M32.7969 52.5714C33.118 52.8854 33.3866 53.2154 33.6507 53.5805C33.7221 53.6786 33.7935 53.7767 33.867 53.8777C34.032 54.1111 34.19 54.3497 34.3462 54.5895C33.8547 54.3659 33.4601 54.1151 33.0786 53.7246C32.9379 53.3392 32.8699 52.979 32.7969 52.5714Z" fill="#6199B2"/>
<path d="M34.0644 49.8327C34.1108 49.8327 34.1573 49.8327 34.2052 49.8327C34.2351 50.4748 34.1736 50.9697 33.9235 51.5624C33.7841 51.6576 33.6446 51.7527 33.501 51.8507C33.6111 51.1521 33.8388 50.4991 34.0644 49.8327Z" fill="#DC9468"/>
<path d="M41.3355 25.7426C41.4459 25.7486 41.5563 25.7545 41.67 25.7606C41.6235 25.9033 41.577 26.046 41.5292 26.1931C41.3897 26.2406 41.2503 26.2882 41.1066 26.3372C41.2925 26.4323 41.4784 26.5275 41.67 26.6255C41.3911 26.6255 41.1123 26.6255 40.8249 26.6255C40.7369 26.3552 40.7369 26.3552 40.6841 26.0489C40.9658 25.7606 40.9658 25.7606 41.3355 25.7426Z" fill="#395366"/>
<path d="M25.332 36.8597C25.7039 36.9073 26.0757 36.9549 26.4588 37.0039C26.4123 37.1941 26.3658 37.3844 26.3179 37.5804C26.132 37.5329 25.9461 37.4853 25.7546 37.4363C25.7546 37.3412 25.7546 37.246 25.7546 37.148C25.6151 37.1004 25.4757 37.0529 25.332 37.0039C25.332 36.9563 25.332 36.9087 25.332 36.8597Z" fill="#D0825E"/>
<path d="M36.0362 31.5264C36.1757 31.574 36.3151 31.6215 36.4588 31.6705C36.3817 32.157 36.3102 32.4031 36.0362 32.8237C35.9173 32.3368 35.8801 32.0057 36.0362 31.5264Z" fill="#CC815C"/>
<path d="M47.022 52.7156C47.022 53.148 47.022 53.148 46.6699 53.5354C46.5537 53.6454 46.4375 53.7554 46.3178 53.8687C46.1784 53.8212 46.0389 53.7736 45.8953 53.7246C46.2671 53.3916 46.6389 53.0586 47.022 52.7156Z" fill="#639AB3"/>
<path d="M27.8671 39.0219C28.1664 39.4814 28.2195 39.7808 28.2897 40.3192C28.1967 40.1289 28.1038 39.9386 28.008 39.7426C27.8685 39.7426 27.7291 39.7426 27.5854 39.7426C27.5854 39.5523 27.5854 39.3621 27.5854 39.166C27.6784 39.1185 27.7714 39.0709 27.8671 39.0219Z" fill="#CC7A56"/>
<path d="M23.9236 31.094C24.063 31.094 24.2024 31.094 24.3461 31.094C24.2996 31.3794 24.2531 31.6648 24.2053 31.9588C24.0658 32.0064 23.9264 32.054 23.7827 32.103C23.7767 31.8147 23.777 31.5263 23.7827 31.2381C23.8292 31.1905 23.8757 31.143 23.9236 31.094Z" fill="#CA7750"/>
<path d="M50.1206 38.157C50.5389 38.157 50.9572 38.157 51.3882 38.157C51.3417 38.2997 51.2953 38.4424 51.2474 38.5895C50.8755 38.5419 50.5037 38.4943 50.1206 38.4453C50.1206 38.3502 50.1206 38.255 50.1206 38.157Z" fill="#D3875F"/>
<path d="M33.3602 51.2741C33.3602 51.512 33.3602 51.7498 33.3602 51.9949C33.2208 51.9949 33.0814 51.9949 32.9377 51.9949C32.9377 51.8997 32.9377 51.8046 32.9377 51.7066C32.8447 51.659 32.7518 51.6114 32.656 51.5624C33.0785 51.2741 33.0785 51.2741 33.3602 51.2741Z" fill="#7A99A3"/>
<path d="M54.3462 33.5444C54.6948 33.6871 54.6948 33.6871 55.0504 33.8327C55.0039 33.9754 54.9575 34.1181 54.9096 34.2651C54.7701 34.3127 54.6307 34.3603 54.487 34.4093C54.4406 34.1239 54.3941 33.8385 54.3462 33.5444Z" fill="#D68C66"/>
</svg>
