<svg width="80" height="80" viewBox="0 0 80 80" fill="none" xmlns="http://www.w3.org/2000/svg">
<path d="M0 40C0 17.9006 17.9006 0 40 0C62.0994 0 80 17.9006 80 40C80 62.0994 62.0994 80 40 80C17.9006 80 0 62.0994 0 40Z" fill="white"/>
<path d="M47.1302 10.0728C47.9252 10.7641 48.6664 11.4981 49.3047 12.3438C49.3047 12.4389 49.3047 12.534 49.3047 12.6321C49.3884 12.6254 49.4721 12.6187 49.5584 12.6118C50.9879 12.5481 52.1418 12.9912 53.2319 13.9361C53.3303 14.029 53.4287 14.1219 53.5301 14.2176C53.6256 14.3076 53.7211 14.3975 53.8195 14.4902C55.6381 16.3876 56.2758 18.9064 56.2557 21.4896C56.1933 24.1011 55.6682 26.8017 54.6568 29.2086C54.7353 29.2354 54.8137 29.2621 54.8945 29.2897C55.5163 29.6853 55.8398 30.2915 56.1093 30.9744C56.4346 32.7904 56.0616 34.5758 55.0794 36.1276C54.2362 37.1989 53.2624 38.0159 51.9071 38.2205C51.4613 38.2576 51.0194 38.2818 50.5723 38.2897C50.4852 38.525 50.4852 38.525 50.3963 38.7649C49.1985 41.9143 49.1985 41.9143 48.2358 42.6383C47.9241 43.0526 47.9797 43.501 47.9859 44.0026C47.9859 44.1108 47.9858 44.2191 47.9857 44.3307C47.9861 44.5602 47.9874 44.7897 47.9898 45.0192C47.9931 45.3665 47.9927 45.7137 47.9917 46.0611C47.9119 48.0797 47.9119 48.0797 48.7413 49.8122C48.814 49.8908 48.8866 49.9694 48.9614 50.0504C49.0282 50.1175 49.095 50.1846 49.1639 50.2537C49.2568 50.3488 49.3498 50.444 49.4456 50.542C48.4842 52.7458 46.2863 54.5353 44.1001 55.4086C41.7395 56.2723 38.9851 56.6596 36.6287 55.587C35.4878 55.0062 34.5641 54.2809 34.1435 53.0054C34.0802 52.6247 34.0802 52.2613 34.0847 51.8753C34.0859 51.7333 34.0872 51.5914 34.0885 51.4451C34.0901 51.3374 34.0918 51.2296 34.0935 51.1185C34.2242 51.0695 34.2242 51.0695 34.3575 51.0194C34.7561 50.7675 34.7989 50.563 34.9385 50.1095C34.9769 49.6918 34.9769 49.6918 34.966 49.2509C34.9651 49.0906 34.9642 48.9303 34.9633 48.7652C34.9609 48.5994 34.9586 48.4336 34.9561 48.2627C34.9549 48.0941 34.9536 47.9254 34.9523 47.7517C34.949 47.3364 34.9443 46.9212 34.9385 46.5059C34.8109 46.4448 34.6833 46.3837 34.5518 46.3207C33.5071 45.8103 32.5672 45.2847 31.6991 44.4879C31.5387 44.3413 31.5387 44.3413 31.375 44.1917C29.6839 42.557 28.2717 40.0329 28.1516 37.614C28.1646 37.449 28.1646 37.449 28.178 37.2807C28.0618 37.2599 27.9456 37.2391 27.8258 37.2176C26.6402 36.676 26.0838 35.5585 25.6301 34.3685C25.1392 32.8248 25.2072 31.2389 25.9244 29.7852C26.2945 29.1729 26.6718 28.8772 27.3329 28.6321C27.2837 28.4877 27.2345 28.3433 27.1838 28.1946C27.119 28.0011 27.0543 27.8076 26.9896 27.614C26.9572 27.5194 26.9248 27.4247 26.8914 27.3272C26.5831 26.3991 26.4682 25.5151 26.479 24.533C26.4803 24.3815 26.4816 24.2301 26.4829 24.0741C26.4845 23.9609 26.4861 23.8477 26.4878 23.7312C26.3271 23.6737 26.3271 23.6737 26.1632 23.6152C25.4427 23.2881 24.9892 22.6302 24.6744 21.9023C24.2643 20.5899 24.4842 19.4362 25.0233 18.2069C25.1921 17.8763 25.375 17.5979 25.5899 17.2987C25.836 16.8413 25.836 16.8413 25.6615 16.4969C25.5281 16.2564 25.3936 16.0166 25.2582 15.7773C24.8693 14.8933 24.9244 13.9206 25.2516 13.0262C25.8798 12.3932 26.6219 12.4262 27.4737 12.3438C29.1617 12.1762 30.4307 11.7351 31.8047 10.7041C33.4415 9.49654 35.2482 8.80407 37.192 8.30773C37.3832 8.2545 37.3832 8.2545 37.5783 8.20019C40.6753 7.46603 44.6073 8.01332 47.1302 10.0728Z" fill="#C47E4C"/>
<path d="M49.4456 50.3978C57.5904 52.9793 57.5904 52.9793 60.5723 55.7312C60.6787 55.8267 60.7851 55.9222 60.8947 56.0206C63.6539 58.6504 64.9156 63.129 65.1047 66.9029C65.1056 67.2645 65.0999 67.6225 65.0794 67.9834C64.6469 68.131 64.3543 68.1456 63.9013 68.1457C63.7436 68.1461 63.5858 68.1464 63.4233 68.1468C63.2493 68.1465 63.0752 68.1462 62.8959 68.1459C62.7116 68.1461 62.5273 68.1463 62.3374 68.1465C61.8248 68.1471 61.3121 68.1468 60.7995 68.1464C60.247 68.1461 59.6946 68.1466 59.1422 68.147C58.0596 68.1476 56.977 68.1475 55.8945 68.1471C55.0151 68.1467 54.1357 68.1467 53.2563 68.1468C53.0688 68.1469 53.0688 68.1469 52.8775 68.1469C52.6236 68.147 52.3698 68.147 52.1159 68.1471C49.7336 68.1475 47.3512 68.147 44.9689 68.1462C42.9226 68.1456 40.8763 68.1457 38.83 68.1463C36.456 68.1471 34.0819 68.1474 31.7079 68.147C31.455 68.1469 31.2021 68.1469 30.9493 68.1468C30.8248 68.1468 30.7004 68.1468 30.5722 68.1468C29.6932 68.1467 28.8142 68.1469 27.9352 68.1472C26.865 68.1476 25.7948 68.1475 24.7245 68.1467C24.178 68.1463 23.6314 68.1462 23.0848 68.1467C22.4937 68.1472 21.9026 68.1466 21.3115 68.1459C21.1369 68.1462 20.9622 68.1465 20.7822 68.1468C20.5467 68.1463 20.5467 68.1463 20.3064 68.1457C20.1698 68.1457 20.0332 68.1456 19.8924 68.1456C19.5864 68.1276 19.5864 68.1276 19.4456 67.9834C19.4783 63.8987 20.9726 59.0919 23.8348 56.2064C25.955 54.1715 28.7967 53.0695 31.479 52.0555C31.7187 51.9636 31.9583 51.8717 32.1978 51.7796C33.9244 51.1185 33.9244 51.1185 34.0934 51.1185C34.1092 51.3301 34.1092 51.3301 34.1254 51.5459C34.2401 52.7164 34.3522 53.7292 35.2202 54.578C37.1571 56.0538 39.2622 56.248 41.5896 55.9519C43.7643 55.6183 45.4862 54.6434 47.192 53.2807C47.3625 53.1464 47.3625 53.1464 47.5364 53.0093C48.3935 52.2923 48.9665 51.4127 49.4456 50.3978Z" fill="#F6E0C7"/>
<path d="M44.6568 18.9744C44.7498 18.9744 44.8428 18.9744 44.9385 18.9744C44.9966 19.1242 45.0547 19.2739 45.1146 19.4282C45.8411 21.2463 46.763 22.6739 48.3188 23.8753C48.4895 23.9437 48.6601 24.0121 48.836 24.0825C49.2036 24.2929 49.2898 24.4017 49.4142 24.8205C49.4785 25.3046 49.5147 25.7839 49.5424 26.2717C49.5706 26.623 49.6 26.9741 49.6304 27.3252C49.6451 27.4978 49.6598 27.6704 49.675 27.8482C49.7857 28.8979 50.0338 29.9176 50.2906 30.9384C50.3949 30.8293 50.4991 30.7202 50.6064 30.6078C51.3402 29.8708 51.9916 29.303 53.0547 29.2627C53.7496 29.3104 54.2956 29.4142 54.7977 29.9294C55.5143 30.9183 55.6421 31.8985 55.5019 33.1005C55.2193 34.6983 54.4057 36.0565 53.1075 36.9924C52.3484 37.4384 51.5771 37.5759 50.7132 37.4248C50.3891 37.2053 50.3891 37.2053 50.1498 36.9924C50.1425 37.0697 50.1353 37.147 50.1278 37.2267C49.7406 39.9645 47.7736 42.581 45.6853 44.2461C43.223 46.0826 40.2062 46.8802 37.1824 46.466C34.6048 46.0005 32.3025 44.3967 30.7132 42.3083C27.1621 37.077 28.0245 29.0652 28.4943 23.0673C28.5028 22.9559 28.5114 22.8445 28.5201 22.7297C28.5638 22.1896 28.623 21.6651 28.7414 21.1366C28.8118 21.1594 28.8822 21.1823 28.9548 21.2058C30.791 21.5988 32.6348 21.1537 34.3752 20.56C34.5356 20.7711 34.6961 20.9823 34.8566 21.1934C35.4967 21.8583 36.0597 21.9144 36.9402 21.9248C37.0872 21.9233 37.2342 21.9218 37.3857 21.9203C37.5371 21.9193 37.6885 21.9182 37.8444 21.917C40.4814 21.8615 42.7764 20.8989 44.6568 18.9744Z" fill="#FED0AE"/>
<path d="M47.1919 43.9113C47.187 44.1014 47.1821 44.2915 47.1771 44.4873C47.0717 47.698 47.0717 47.698 48.3187 50.542C48.4116 50.5895 48.5046 50.6371 48.6004 50.6861C48.3761 51.912 47.2118 52.6678 46.2719 53.3405C43.8195 55.0413 40.8812 55.8714 37.9314 55.3494C36.6739 54.9943 35.6748 54.3914 34.9384 53.2717C34.6789 52.8036 34.5556 52.3811 34.5159 51.8393C34.6263 51.8095 34.7366 51.7798 34.8504 51.7492C35.245 51.586 35.245 51.586 35.3785 51.2086C35.5484 50.4887 35.5675 49.7848 35.5898 49.0465C35.5953 48.8991 35.6007 48.7518 35.6063 48.6C35.6195 48.2383 35.6316 47.8767 35.6426 47.5149C35.7463 47.5371 35.8499 47.5593 35.9567 47.5822C39.1581 48.2429 41.9413 47.5605 44.649 45.7457C45.7105 45.018 45.7105 45.018 46.6665 44.1568C46.9102 43.9113 46.9102 43.9113 47.1919 43.9113Z" fill="#FED0AE"/>
<path d="M49.4456 50.3978C57.5904 52.9793 57.5904 52.9793 60.5723 55.7312C60.6787 55.8267 60.7851 55.9222 60.8947 56.0206C63.6539 58.6504 64.9156 63.129 65.1047 66.9029C65.1056 67.2645 65.0999 67.6225 65.0794 67.9834C64.8702 68.0548 64.8702 68.0548 64.6568 68.1276C64.5639 68.08 64.4709 68.0324 64.3751 67.9834C64.2919 67.6181 64.2919 67.6181 64.2233 67.1298C64.1968 66.9506 64.1703 66.7714 64.1431 66.5868C64.1293 66.4913 64.1156 66.3958 64.1014 66.2974C63.5967 62.837 62.8917 59.3364 60.4315 56.7402C60.3385 56.6926 60.2456 56.645 60.1498 56.596C60.1498 56.5009 60.1498 56.4058 60.1498 56.3077C60.0692 56.2695 59.9886 56.2312 59.9055 56.1917C59.571 56.0112 59.29 55.8015 58.9878 55.569C56.5281 53.794 53.5032 52.7868 50.7132 51.6951C50.6943 51.8031 50.6754 51.911 50.6559 52.0223C50.2403 53.9785 48.5661 55.2655 47.0097 56.2965C44.3367 58.0262 40.6954 58.8346 37.5777 58.1444C35.7933 57.6495 34.0712 56.8022 33.0013 55.1906C32.1216 53.5649 32.1216 53.5649 32.1216 52.7041C27.8686 54.4279 23.9215 56.101 21.9571 60.6348C20.9965 62.9755 20.6004 65.5006 20.1498 67.9834C19.8769 68.0645 19.8769 68.0645 19.5864 68.1276C19.5399 68.08 19.4934 68.0324 19.4456 67.9834C19.4783 63.8987 20.9726 59.0919 23.8348 56.2064C25.955 54.1715 28.7967 53.0695 31.479 52.0555C31.7187 51.9636 31.9583 51.8717 32.1978 51.7796C33.9244 51.1185 33.9244 51.1185 34.0934 51.1185C34.1092 51.3301 34.1092 51.3301 34.1254 51.5459C34.2401 52.7164 34.3522 53.7292 35.2202 54.578C37.1571 56.0538 39.2622 56.248 41.5896 55.9519C43.7643 55.6183 45.4862 54.6434 47.192 53.2807C47.3625 53.1464 47.3625 53.1464 47.5364 53.0093C48.3935 52.2923 48.9665 51.4127 49.4456 50.3978Z" fill="#D5B999"/>
<path d="M49.1639 51.1185C49.6287 51.2612 50.0935 51.404 50.5724 51.551C49.2881 54.1796 46.9233 55.9577 44.2344 56.8843C41.5039 57.7971 38.4841 58.1472 35.8365 56.7942C34.4589 55.9662 33.4314 54.9567 32.8259 53.4249C32.7374 53.0739 32.7009 52.7795 32.6851 52.4158C33.3822 52.2018 33.3822 52.2018 34.0935 51.9834C34.1487 52.2242 34.2039 52.465 34.2608 52.7131C34.588 53.902 34.9795 54.462 36.0125 55.1185C38.2744 56.3687 40.8139 56.2598 43.2484 55.587C45.5924 54.8021 47.7487 53.1824 49.1639 51.1185Z" fill="#F6E2C9"/>
<path d="M37.333 17.6771C37.4027 17.8198 37.4027 17.8198 37.4738 17.9654C36.9235 18.9894 36.0162 19.6326 35.0795 20.2717C35.1043 20.5515 35.1043 20.5515 35.2203 20.8483C36.1756 21.5251 37.3457 21.5511 38.4598 21.4248C40.4912 21.019 42.1937 20.2904 43.8119 18.9744C43.9399 18.8735 44.0679 18.7726 44.1997 18.6686C44.5256 18.4263 44.5256 18.4263 44.6569 18.1095C44.8429 18.1095 45.0288 18.1095 45.2203 18.1095C45.3099 18.3342 45.3099 18.3342 45.4013 18.5634C46.3296 20.8417 47.5821 22.8953 49.877 23.9384C50.0611 24.0153 50.2457 24.0912 50.4316 24.1636C50.4316 24.3063 50.4316 24.449 50.4316 24.596C48.8731 24.5446 47.8392 23.7851 46.7839 22.6478C46.0083 21.7094 44.9386 20.266 44.9386 18.9744C44.8159 19.0788 44.6932 19.1832 44.5667 19.2908C42.3875 21.1148 40.2463 22.0338 37.4122 22.0915C37.2687 22.0966 37.1253 22.1017 36.9774 22.1069C35.8064 22.1048 35.2278 21.7141 34.4152 20.892C34.3555 20.83 34.2959 20.768 34.2344 20.7041C34.1222 20.7441 34.01 20.784 33.8944 20.8252C33.7452 20.8774 33.5959 20.9296 33.4421 20.9834C33.2951 21.0352 33.148 21.0871 32.9965 21.1405C32.1542 21.4016 31.3571 21.4511 30.4844 21.4519C30.3259 21.4545 30.3259 21.4545 30.1642 21.4572C29.6054 21.4587 29.2265 21.4151 28.7414 21.1366C28.4614 24.6397 28.3194 28.1478 28.1781 31.6591C28.1316 31.6591 28.0851 31.6591 28.0372 31.6591C27.9032 27.909 27.7874 24.1637 28.0372 20.4158C28.8471 20.542 28.8471 20.542 29.164 20.7041C31.4715 20.9559 33.758 20.5767 35.6429 19.1185C36.0265 18.7843 36.399 18.4427 36.7652 18.0887C37.0513 17.8212 37.0513 17.8212 37.333 17.6771Z" fill="#AC6336"/>
<path d="M48.6005 50.6861C48.8329 50.6861 49.0653 50.6861 49.3048 50.6861C48.5432 52.7963 46.3026 54.3772 44.3752 55.2987C42.1011 56.204 39.3962 56.6456 37.0469 55.7773C35.802 55.2107 34.8337 54.5683 34.2344 53.2807C34.0935 52.7852 34.0935 52.7852 34.0935 52.4158C34.1865 52.3207 34.2794 52.2256 34.3752 52.1276C34.4682 52.1276 34.5611 52.1276 34.6569 52.1276C34.7121 52.3 34.7673 52.4724 34.8241 52.6501C35.2227 53.7209 35.9211 54.374 36.9104 54.8663C39.0718 55.7941 41.626 55.3597 43.7662 54.5859C44.0727 54.4533 44.3631 54.3055 44.6569 54.1456C44.7774 54.0852 44.898 54.0248 45.0222 53.9626C46.3419 53.274 48.1057 52.2055 48.6005 50.6861Z" fill="#C69469"/>
<path d="M27.6146 29.3528C27.6181 29.4631 27.6217 29.5735 27.6253 29.6872C27.6418 30.1943 27.659 30.7015 27.6762 31.2086C27.6818 31.3822 27.6873 31.5557 27.693 31.7345C27.7236 32.6215 27.7725 33.4987 27.8671 34.3809C27.9051 34.7778 27.9101 35.1703 27.9051 35.569C27.9038 35.7031 27.9026 35.8373 27.9013 35.9755C27.8996 36.0733 27.898 36.171 27.8963 36.2717C27.3715 36.0613 27.1745 35.8006 26.8928 35.3077C26.7877 35.1285 26.7877 35.1285 26.6804 34.9457C26.2674 34.0798 26.1513 33.2649 26.1533 32.3167C26.1536 32.2087 26.1538 32.1008 26.154 31.9895C26.1763 30.9669 26.41 30.3623 27.0688 29.569C27.3329 29.3528 27.3329 29.3528 27.6146 29.3528Z" fill="#FED3B1"/>
<path d="M25.7836 62.7942C25.9695 62.8418 26.1555 62.8894 26.347 62.9384C26.3267 63.3768 26.3061 63.8153 26.2854 64.2537C26.2771 64.4346 26.2771 64.4346 26.2686 64.6191C26.2172 65.6946 26.1403 66.7643 26.0653 67.8393C35.2681 67.8393 44.4709 67.8393 53.9526 67.8393C53.9526 67.8868 53.9526 67.9344 53.9526 67.9834C44.5174 67.9834 35.0822 67.9834 25.3611 67.9834C25.3611 65.2184 25.3611 65.2184 25.4931 64.2537C25.5176 64.0668 25.5421 63.8798 25.5674 63.6872C25.6428 63.2267 25.6428 63.2267 25.7836 62.7942Z" fill="#F3D7B6"/>
<path d="M41.4173 38.4339C41.5567 38.4814 41.6962 38.529 41.8398 38.578C41.8794 38.9102 41.8794 38.9102 41.8398 39.2987C40.5964 40.4305 38.8958 40.7933 37.2888 40.7813C36.2381 40.6981 35.2828 40.3449 34.5159 39.587C34.5623 39.3967 34.6088 39.2065 34.6567 39.0104C35.2691 39.1054 35.7798 39.3383 36.3469 39.587C37.8421 39.9528 39.2982 39.7456 40.6327 38.9507C40.8212 38.8243 41.0072 38.6936 41.189 38.5572C41.2643 38.5165 41.3396 38.4758 41.4173 38.4339Z" fill="#C77854"/>
<path d="M36.9103 30.2176C37.0497 30.2176 37.1892 30.2176 37.3328 30.2176C37.2712 31.1985 37.0701 31.9128 36.6374 32.7852C36.5867 32.8914 36.5359 32.9976 36.4836 33.107C36.2976 33.4952 36.1104 33.8816 35.9065 34.2603C35.7202 34.6871 35.7963 34.9668 35.9244 35.4068C36.2737 35.8388 36.6359 35.8763 37.1568 35.9384C37.3562 35.9552 37.5557 35.9707 37.7554 35.9834C37.8018 36.2212 37.8483 36.4591 37.8962 36.7041C37.4076 36.9541 36.8811 36.9164 36.3469 36.8483C35.6928 36.4888 35.176 36.136 34.9385 35.4068C34.8532 34.432 35.0594 33.8793 35.5371 33.0465C35.6542 32.8324 35.7709 32.6181 35.887 32.4035C35.9704 32.2497 35.9704 32.2497 36.0556 32.0928C36.305 31.6129 36.4953 31.1149 36.677 30.605C36.7694 30.3618 36.7694 30.3618 36.9103 30.2176Z" fill="#CB7F59"/>
<path d="M43.398 28.7492C43.9817 28.9906 44.2393 29.3629 44.516 29.9293C44.5688 30.7394 44.5352 31.2442 44.0935 31.9474C43.6709 32.2356 43.6709 32.2356 43.178 32.2266C42.685 32.0915 42.685 32.0915 42.4473 31.7762C42.1295 31.0792 42.1575 30.393 42.2625 29.6411C42.4993 29.0715 42.7698 28.7885 43.398 28.7492Z" fill="#62422F"/>
<path d="M32.914 28.7582C33.3893 28.9203 33.3893 28.9203 33.6264 29.2368C33.9444 29.93 33.902 30.6215 33.8118 31.3708C33.5394 31.9178 33.3863 32.0416 32.8259 32.2447C32.4034 32.2357 32.4034 32.2357 32.0777 31.9744C31.5239 31.2397 31.6052 30.3914 31.6992 29.4969C32.064 28.8859 32.2168 28.7828 32.914 28.7582Z" fill="#61402E"/>
<path d="M54.7976 29.4969C55.5501 29.9473 55.9181 30.2811 56.145 31.1523C56.4383 32.8939 56.0167 34.6495 55.0793 36.1275C54.7266 36.5402 54.3529 36.9167 53.9525 37.2807C53.8596 37.2331 53.7666 37.1856 53.6709 37.1366C53.7638 36.9938 53.8568 36.8511 53.9525 36.7041C53.6737 36.7755 53.6737 36.7755 53.3892 36.8483C53.4684 36.7435 53.4684 36.7435 53.5493 36.6366C54.7662 35.0052 55.628 33.5076 55.361 31.3708C55.2396 31.0098 55.0993 30.6876 54.9209 30.3528C54.7976 30.0735 54.7976 30.0735 54.7976 29.4969Z" fill="#C77752"/>
<path d="M43.046 24.9744C43.16 24.9745 43.2739 24.9747 43.3913 24.9748C44.5219 24.9976 45.4795 25.264 46.3471 26.0375C46.3823 26.4248 46.3823 26.4248 46.3471 26.7582C45.983 26.8987 45.8347 26.9249 45.4712 26.7638C45.3651 26.6965 45.2591 26.6293 45.1499 26.56C44.548 26.1824 44.0816 26.0179 43.3739 26.0234C43.2146 26.0241 43.2146 26.0241 43.0521 26.0248C42.9426 26.026 42.8331 26.0272 42.7203 26.0284C42.6086 26.0291 42.497 26.0297 42.3819 26.0304C42.1074 26.0321 41.8329 26.0347 41.5583 26.0375C41.5118 25.7996 41.4654 25.5618 41.4175 25.3167C41.9596 24.9469 42.4166 24.9732 43.046 24.9744Z" fill="#B97145"/>
<path d="M32.6322 24.8303C32.8142 24.8291 32.9961 24.828 33.1835 24.8269C33.6826 24.8857 33.8778 24.9667 34.2344 25.3167C34.1879 25.5546 34.1414 25.7924 34.0935 26.0375C33.8996 26.0143 33.8996 26.0143 33.7018 25.9907C32.517 25.8723 31.6639 25.8122 30.678 26.569C30.4315 26.7582 30.4315 26.7582 29.8682 26.7582C29.9269 26.057 30.196 25.7638 30.7132 25.3167C31.3716 24.9111 31.8672 24.8255 32.6322 24.8303Z" fill="#B67045"/>
<path d="M25.7836 62.7942C25.9695 62.8418 26.1554 62.8894 26.3469 62.9384C26.2685 64.6213 26.1822 66.3027 26.0653 67.9834C25.8329 67.9834 25.6005 67.9834 25.361 67.9834C25.2816 64.3353 25.2816 64.3353 25.7836 62.7942Z" fill="#D6B99A"/>
<path d="M54.3752 62.7942C54.5146 62.7942 54.6541 62.7942 54.7977 62.7942C54.7977 64.5067 54.7977 66.2191 54.7977 67.9834C54.5653 67.9834 54.3329 67.9834 54.0935 67.9834C54.0865 67.4066 54.0814 66.8297 54.078 66.2529C54.0766 66.057 54.0747 65.8612 54.0723 65.6653C54.0688 65.3823 54.0674 65.0992 54.066 64.8162C54.0645 64.6463 54.063 64.4765 54.0615 64.3015C54.0968 63.7526 54.2107 63.3159 54.3752 62.7942Z" fill="#D5B99A"/>
<path d="M47.7555 44.3438C47.802 44.3438 47.8485 44.3438 47.8964 44.3438C47.8992 44.4461 47.9019 44.5485 47.9048 44.654C47.9184 45.1242 47.9338 45.5943 47.9492 46.0645C47.9535 46.2255 47.9579 46.3865 47.9624 46.5524C47.97 48.3121 47.97 48.3121 48.7414 49.8122C48.8141 49.8908 48.8867 49.9694 48.9615 50.0504C49.0283 50.1175 49.0951 50.1846 49.164 50.2537C49.2569 50.3488 49.3499 50.4439 49.4457 50.542C49.3527 50.6371 49.2597 50.7322 49.164 50.8303C48.6411 50.8186 48.3947 50.7592 48.0108 50.3888C47.531 49.5931 47.2262 48.7449 47.1921 47.8032C47.2595 47.6784 47.3269 47.5535 47.3963 47.4248C47.6763 46.801 47.693 46.2653 47.7115 45.587C47.7187 45.4072 47.7187 45.4072 47.7261 45.2238C47.7376 44.9305 47.7468 44.6372 47.7555 44.3438Z" fill="#D0835A"/>
<path d="M35.0794 46.5059C35.1259 46.5059 35.1724 46.5059 35.2203 46.5059C35.2203 47.7903 35.2203 49.0746 35.2203 50.3978C35.3132 50.3978 35.4062 50.3978 35.502 50.3978C35.502 49.3989 35.502 48.4 35.502 47.3708C35.5484 47.3708 35.5949 47.3708 35.6428 47.3708C35.6551 47.9053 35.6626 48.4398 35.6692 48.9744C35.6728 49.1253 35.6763 49.2762 35.6799 49.4316C35.6875 50.242 35.6892 50.8601 35.2203 51.551C34.9298 51.7131 34.9298 51.7131 34.6569 51.8393C34.4783 52.1324 34.4783 52.1324 34.3752 52.4158C34.2822 52.4158 34.1893 52.4158 34.0935 52.4158C34.0935 51.9877 34.0935 51.5596 34.0935 51.1185C34.2794 51.0234 34.4653 50.9283 34.6569 50.8303C34.9343 50.3078 34.9792 49.8391 34.9969 49.2509C35.0023 49.0906 35.0078 48.9303 35.0134 48.7652C35.0199 48.5165 35.0199 48.5165 35.0266 48.2627C35.0348 48.0097 35.0348 48.0097 35.0431 47.7517C35.0564 47.3365 35.0684 46.9212 35.0794 46.5059Z" fill="#C87248"/>
<path d="M52.6075 28.7621C52.7269 28.7626 52.8463 28.763 52.9693 28.7635C53.1554 28.7653 53.1554 28.7653 53.3453 28.7672C53.5339 28.7682 53.5339 28.7682 53.7263 28.7692C54.0365 28.7708 54.3467 28.7732 54.6569 28.7762C54.6569 28.9189 54.6569 29.0616 54.6569 29.2086C54.7441 29.2443 54.8312 29.28 54.921 29.3167C55.2697 29.5266 55.3543 29.6956 55.502 30.0735C55.3161 29.9308 55.1302 29.7881 54.9386 29.6411C54.8456 29.7362 54.7527 29.8313 54.6569 29.9293C54.5384 29.8584 54.4198 29.7874 54.2977 29.7143C53.7503 29.4694 53.3925 29.4568 52.7995 29.4789C51.8757 29.5091 51.8757 29.5091 51.4175 29.3528C51.464 29.2101 51.5104 29.0674 51.5583 28.9203C51.9561 28.7846 52.1962 28.7593 52.6075 28.7621Z" fill="#BD6D45"/>
<path d="M28.1779 24.3077C28.2244 24.3077 28.2708 24.3077 28.3187 24.3077C28.3416 26.7616 28.2776 29.2074 28.1779 31.6591C28.1314 31.6591 28.0849 31.6591 28.037 31.6591C28.0165 31.0418 27.9965 30.4245 27.9769 29.8071C27.9702 29.5982 27.9633 29.3892 27.9564 29.1803C27.9327 28.4691 27.9126 27.7579 27.8962 27.0465C27.8937 26.9445 27.8912 26.8425 27.8886 26.7375C27.8821 26.4412 27.8778 26.1451 27.8742 25.8488C27.8716 25.6769 27.8689 25.5049 27.8662 25.3277C27.895 24.9013 27.9589 24.6658 28.1779 24.3077Z" fill="#AA5D31"/>
<path d="M50.1498 36.9924C50.6956 37.2627 50.6956 37.2627 50.8541 37.4248C51.0438 37.4581 51.2349 37.4842 51.4262 37.5059C51.6092 37.5267 51.7923 37.5476 51.9808 37.569C51.9808 37.6166 51.9808 37.6641 51.9808 37.7131C51.609 37.7607 51.2372 37.8083 50.8541 37.8573C51.2724 37.9048 51.6907 37.9524 52.1217 38.0014C52.1217 38.049 52.1217 38.0966 52.1217 38.1456C51.3548 38.2169 51.3548 38.2169 50.5724 38.2897C50.3864 38.7654 50.2005 39.2411 50.009 39.7312C49.8242 39.1637 49.9748 38.8483 50.1498 38.2897C50.0104 38.48 49.871 38.6703 49.7273 38.8663C49.771 38.635 49.8151 38.4038 49.8593 38.1726C49.8838 38.0438 49.9084 37.9151 49.9336 37.7824C50.009 37.4248 50.009 37.4248 50.1498 36.9924Z" fill="#C56D44"/>
<path d="M36.9103 30.2176C37.0497 30.2176 37.1891 30.2176 37.3328 30.2176C37.3112 31.4972 36.791 32.4341 36.206 33.533C36.1596 33.4378 36.1131 33.3427 36.0652 33.2447C36.1747 32.9643 36.1747 32.9643 36.3381 32.6501C36.4184 32.4934 36.4184 32.4934 36.5004 32.3336C36.5427 32.2537 36.585 32.1738 36.6286 32.0915C36.4891 32.0915 36.3497 32.0915 36.206 32.0915C36.2697 31.86 36.3345 31.6289 36.3997 31.3978C36.4356 31.2691 36.4716 31.1403 36.5086 31.0076C36.6286 30.6501 36.6286 30.6501 36.9103 30.2176Z" fill="#C97B54"/>
<path d="M27.1921 27.9113C27.4738 28.1996 27.4738 28.1996 27.509 28.7041C27.4738 29.2086 27.4738 29.2086 27.1921 29.4969C27.0415 29.7406 26.8952 29.9872 26.752 30.2357C26.6761 30.3668 26.6002 30.498 26.522 30.6332C26.4643 30.7339 26.4066 30.8346 26.3471 30.9384C26.2 30.4867 26.2155 30.3633 26.3471 29.9293C26.1612 30.1196 25.9752 30.3099 25.7837 30.5059C25.8449 29.7959 26.1494 29.4221 26.6288 28.9203C27.0249 28.7221 27.0249 28.7221 27.333 28.632C27.2865 28.3942 27.24 28.1564 27.1921 27.9113Z" fill="#BE6C42"/>
<path d="M25.6428 31.6591C25.8306 31.6591 26.0184 31.6591 26.2062 31.6591C26.2527 32.4202 26.2991 33.1812 26.347 33.9654C25.7836 34.1095 25.7836 34.1095 25.502 33.9654C25.5484 33.2043 25.5949 32.4432 25.6428 31.6591Z" fill="#CB7E5A"/>
<path d="M34.7976 20.2717C34.8905 20.3817 34.9835 20.4917 35.0792 20.605C35.5312 21.0742 36.0226 21.2251 36.6285 21.4248C36.5821 21.6151 36.5356 21.8054 36.4877 22.0014C36.0878 22.0098 35.8662 22.0085 35.5018 21.8573C35.1219 21.4595 34.8163 21.0225 34.5159 20.56C34.6088 20.4648 34.7018 20.3697 34.7976 20.2717Z" fill="#AE663A"/>
<path d="M48.6006 50.6861C48.833 50.6861 49.0654 50.6861 49.3048 50.6861C49.1088 51.3243 48.8089 51.6887 48.3189 52.1276C48.2259 52.1276 48.133 52.1276 48.0372 52.1276C47.8438 52.3138 47.6555 52.5058 47.4738 52.7041C47.3809 52.6566 47.2879 52.609 47.1921 52.56C47.2584 52.4972 47.3247 52.4344 47.393 52.3697C47.9267 51.8472 48.3128 51.3964 48.6006 50.6861Z" fill="#C18C60"/>
<path d="M47.7555 44.3438C47.802 44.3438 47.8485 44.3438 47.8964 44.3438C47.9002 44.7762 47.903 45.2086 47.9052 45.6411C47.9063 45.762 47.9075 45.883 47.9087 46.0076C47.9116 46.7633 47.8973 47.4925 47.7555 48.2357C47.6161 48.3308 47.4766 48.4259 47.333 48.5239C47.2362 48.2176 47.2362 48.2176 47.1921 47.8032C47.259 47.6798 47.3258 47.5565 47.3946 47.4294C47.6753 46.803 47.6929 46.2677 47.7115 45.587C47.7187 45.4072 47.7187 45.4072 47.7261 45.2238C47.7376 44.9305 47.7468 44.6372 47.7555 44.3438Z" fill="#D69372"/>
<path d="M29.8681 41.3167C29.9437 41.4149 30.0192 41.513 30.097 41.614C30.2799 41.8456 30.4654 42.0753 30.662 42.2948C30.7789 42.4261 30.7789 42.4261 30.8981 42.56C31.0105 42.6832 31.0105 42.6832 31.1253 42.8089C31.1752 42.8873 31.2251 42.9657 31.2766 43.0465C31.2301 43.1892 31.1836 43.3319 31.1357 43.4789C30.81 43.3978 30.81 43.3978 30.4315 43.1906C30.1938 42.7131 30.1938 42.7131 30.009 42.1816C29.9538 42.0419 29.8986 41.9021 29.8417 41.7582C29.804 41.6601 29.7662 41.562 29.7273 41.4609C29.7738 41.4133 29.8203 41.3658 29.8681 41.3167Z" fill="#CB7E5A"/>
<path d="M54.2342 35.8393C54.4666 35.8868 54.699 35.9344 54.9385 35.9834C54.7194 36.5336 54.37 36.8759 53.9525 37.2807C53.8596 37.2331 53.7666 37.1856 53.6709 37.1366C53.7638 36.9939 53.8568 36.8512 53.9525 36.7041C53.7666 36.7517 53.5807 36.7993 53.3892 36.8483C53.668 36.5153 53.9469 36.1823 54.2342 35.8393Z" fill="#C46F48"/>
<path d="M19.7272 65.8212C19.7737 65.8212 19.8202 65.8212 19.8681 65.8212C19.8216 66.4872 19.7751 67.1531 19.7272 67.8393C19.8202 67.8393 19.9132 67.8393 20.0089 67.8393C20.0554 67.3636 20.1019 66.8879 20.1498 66.3978C20.1963 66.3978 20.2427 66.3978 20.2906 66.3978C20.3157 67.0534 20.2903 67.5336 20.0089 68.1275C19.823 68.08 19.6371 68.0324 19.4456 67.9834C19.4655 67.7311 19.4862 67.4789 19.5072 67.2266C19.5186 67.0862 19.5301 66.9457 19.5418 66.801C19.5795 66.4606 19.6362 66.15 19.7272 65.8212Z" fill="#D4B594"/>
<path d="M52.4033 37.2807C52.4033 37.5661 52.4033 37.8515 52.4033 38.1456C52.1508 38.1291 51.8985 38.1108 51.6462 38.0915C51.4354 38.0765 51.4354 38.0765 51.2204 38.0611C50.854 38.0014 50.854 38.0014 50.5723 37.7131C50.9069 37.3706 51.0291 37.3759 51.4878 37.3348C51.5996 37.324 51.7114 37.3132 51.8267 37.3021C52.0185 37.2882 52.2109 37.2807 52.4033 37.2807Z" fill="#D08762"/>
<path d="M54.7976 29.4969C55.123 29.7347 55.4483 29.9726 55.7835 30.2176C55.666 30.5785 55.5309 30.8905 55.361 31.2266C55.2657 31.0472 55.1721 30.8669 55.0793 30.6861C55.027 30.5858 54.9747 30.4854 54.9208 30.382C54.7976 30.0735 54.7976 30.0735 54.7976 29.4969Z" fill="#C67651"/>
<path d="M27.8964 23.1546C28.3537 23.6226 28.4495 24.04 28.5038 24.6951C28.482 24.9315 28.482 24.9315 28.4598 25.1726C28.3203 25.2677 28.1809 25.3629 28.0372 25.4609C27.8869 24.9618 27.882 24.5037 27.8876 23.9834C27.8895 23.7504 27.8895 23.7504 27.8914 23.5127C27.8931 23.3945 27.8947 23.2763 27.8964 23.1546Z" fill="#B66F42"/>
<path d="M50.1498 36.9924C50.6955 37.2627 50.6955 37.2627 50.854 37.4248C51.0438 37.4581 51.2348 37.4842 51.4262 37.5059C51.6092 37.5267 51.7922 37.5476 51.9807 37.569C51.9807 37.6166 51.9807 37.6641 51.9807 37.7131C51.884 37.7219 51.7872 37.7306 51.6875 37.7396C51.4971 37.7577 51.4971 37.7577 51.3029 37.7762C51.1142 37.7938 51.1142 37.7938 50.9217 37.8117C50.5543 37.8479 50.5543 37.8479 50.1498 38.0014C50.0182 37.5675 50.0026 37.4441 50.1498 36.9924Z" fill="#C87853"/>
<path d="M28.7413 20.7041C29.5213 20.7928 29.5213 20.7928 29.8504 21.0735C29.9289 21.1761 29.9289 21.1761 30.0089 21.2807C29.0582 21.2987 29.0582 21.2987 28.7413 21.1365C28.6948 21.6598 28.6483 22.183 28.6004 22.7221C28.5539 22.7221 28.5075 22.7221 28.4596 22.7221C28.4076 21.3657 28.4076 21.3657 28.7413 20.7041Z" fill="#A3572B"/>
<path d="M35.7836 33.6771C35.7308 33.9564 35.7308 33.9564 35.6427 34.2537C35.5033 34.325 35.5033 34.325 35.361 34.3978C35.2955 34.671 35.2955 34.671 35.273 34.9834C35.2556 35.1707 35.2382 35.358 35.2202 35.551C35.1272 35.5034 35.0343 35.4558 34.9385 35.4068C34.8695 34.3478 34.8695 34.3478 35.2026 33.8933C35.5019 33.6771 35.5019 33.6771 35.7836 33.6771Z" fill="#D48962"/>
<path d="M34.0935 51.1185C34.1865 51.1185 34.2794 51.1185 34.3752 51.1185C34.3752 51.2612 34.3752 51.404 34.3752 51.551C34.6076 51.5034 34.84 51.4558 35.0794 51.4068C34.9836 51.496 34.9836 51.496 34.8858 51.587C34.6485 51.8485 34.5171 52.0919 34.3752 52.4158C34.2822 52.4158 34.1893 52.4158 34.0935 52.4158C34.0935 51.9877 34.0935 51.5596 34.0935 51.1185Z" fill="#C27E53"/>
<path d="M47.7553 47.0825C47.8018 47.0825 47.8483 47.0825 47.8961 47.0825C47.9426 47.6533 47.9891 48.2241 48.037 48.8122C47.944 48.8122 47.8511 48.8122 47.7553 48.8122C47.6623 48.9549 47.5694 49.0976 47.4736 49.2447C47.3856 48.9023 47.3856 48.9023 47.3328 48.5239C47.4257 48.4288 47.5187 48.3337 47.6145 48.2357C47.679 47.9514 47.679 47.9514 47.7025 47.6411C47.7199 47.4567 47.7373 47.2724 47.7553 47.0825Z" fill="#CD774D"/>
<path d="M49.4457 39.7312C49.5386 39.7312 49.6316 39.7312 49.7274 39.7312C49.7738 39.8739 49.8203 40.0166 49.8682 40.1636C49.5953 40.551 49.5953 40.551 49.3048 40.8843C49.1189 40.8367 48.933 40.7892 48.7415 40.7402C48.929 40.3562 49.1712 40.0546 49.4457 39.7312Z" fill="#CC805C"/>
<path d="M25.7836 17.1005C25.8301 17.1956 25.8765 17.2908 25.9244 17.3888C25.7928 17.6816 25.6523 17.9705 25.5019 18.2537C25.4089 18.2537 25.316 18.2537 25.2202 18.2537C25.1273 18.5391 25.0343 18.8245 24.9385 19.1185C24.7977 18.6861 24.7977 18.6861 24.9281 18.3702C24.9925 18.2574 25.057 18.1446 25.1234 18.0284C25.1867 17.9153 25.2501 17.8021 25.3154 17.6855C25.5019 17.3888 25.5019 17.3888 25.7836 17.1005Z" fill="#BA6A32"/>
<path d="M48.6006 50.6861C48.833 50.6861 49.0654 50.6861 49.3048 50.6861C49.1535 51.1063 49.0544 51.3748 48.7414 51.6951C48.6484 51.6951 48.5555 51.6951 48.4597 51.6951C48.5062 51.3621 48.5527 51.0292 48.6006 50.6861Z" fill="#C99368"/>
<path d="M50.1498 38.1456C50.3459 38.7475 50.1249 39.0299 49.8681 39.587C49.7752 39.4919 49.6822 39.3967 49.5864 39.2987C49.6339 38.813 49.8524 38.5161 50.1498 38.1456Z" fill="#CE805D"/>
<path d="M51.6991 29.6411C51.792 29.6886 51.885 29.7362 51.9807 29.7852C51.5624 30.2133 51.1441 30.6414 50.7131 31.0825C50.7131 30.6501 50.7131 30.6501 51.0476 30.2807C51.1696 30.1647 51.2917 30.0488 51.4174 29.9293C51.5103 29.8342 51.6033 29.7391 51.6991 29.6411Z" fill="#FCD9B7"/>
<path d="M28.0371 20.4158C28.0836 20.4158 28.1301 20.4158 28.178 20.4158C28.178 20.9391 28.178 21.4623 28.178 22.0014C28.2709 22.0014 28.3639 22.0014 28.4596 22.0014C28.4596 22.1441 28.4596 22.2868 28.4596 22.4339C28.3202 22.4814 28.1808 22.529 28.0371 22.578C28.0371 21.8645 28.0371 21.151 28.0371 20.4158Z" fill="#B56E40"/>
<path d="M42.9668 20.4158C42.9668 20.5585 42.9668 20.7012 42.9668 20.8483C42.5126 21.0986 42.0494 21.2649 41.5583 21.4248C41.9502 20.9531 42.4428 20.7093 42.9668 20.4158Z" fill="#FBDBB7"/>
<path d="M48.1779 51.8393C48.2708 51.982 48.3638 52.1247 48.4595 52.2717C48.2272 52.462 47.9948 52.6522 47.7553 52.8483C47.6624 52.7531 47.5694 52.658 47.4736 52.56C47.706 52.3221 47.9384 52.0843 48.1779 51.8393Z" fill="#CC9D75"/>
<path d="M25.6428 33.8212C25.9914 33.8926 25.9914 33.8926 26.347 33.9654C26.3935 34.2032 26.44 34.4411 26.4879 34.6861C26.4414 34.591 26.3949 34.4958 26.347 34.3978C26.2541 34.3978 26.1611 34.3978 26.0654 34.3978C25.9724 34.493 25.8794 34.5881 25.7837 34.6861C25.7372 34.4007 25.6907 34.1153 25.6428 33.8212Z" fill="#BF6942"/>
<path d="M30.5723 20.8483C30.8511 20.8483 31.13 20.8483 31.4173 20.8483C31.4173 20.8958 31.4173 20.9434 31.4173 20.9924C31.6497 21.04 31.8821 21.0875 32.1216 21.1366C32.1216 21.1841 32.1216 21.2317 32.1216 21.2807C31.9162 21.2846 31.7108 21.2874 31.5054 21.2897C31.391 21.2914 31.2766 21.2931 31.1588 21.2948C30.854 21.2807 30.854 21.2807 30.5723 21.1366C30.5723 21.0414 30.5723 20.9463 30.5723 20.8483Z" fill="#A55B2E"/>
<path d="M49.4455 50.3978C49.492 50.493 49.5385 50.5881 49.5864 50.6861C49.6793 50.6861 49.7723 50.6861 49.868 50.6861C49.868 50.8288 49.868 50.9715 49.868 51.1185C49.7286 51.1661 49.5892 51.2137 49.4455 51.2627C49.3526 51.1676 49.2596 51.0724 49.1638 50.9744C49.2568 50.7841 49.3497 50.5939 49.4455 50.3978Z" fill="#D9BB9D"/>
<path d="M55.6428 33.6771C55.7357 33.8198 55.8287 33.9625 55.9244 34.1095C55.7744 34.4167 55.6017 34.5947 55.3611 34.8303C55.3146 34.6876 55.2681 34.5448 55.2202 34.3978C55.4227 34.0104 55.4227 34.0104 55.6428 33.6771Z" fill="#CB7E5D"/>
<path d="M27.192 29.4969C27.2385 29.592 27.285 29.6872 27.3329 29.7852C27.1005 30.1182 26.8681 30.4511 26.6286 30.7942C26.5822 30.6515 26.5357 30.5088 26.4878 30.3618C26.6856 30.0355 26.938 29.7822 27.192 29.4969Z" fill="#FDD9B7"/>
<path d="M32.8346 20.605C33.1075 20.7041 33.1075 20.7041 33.2484 20.9924C32.9695 21.04 32.6906 21.0875 32.4033 21.1366C32.3568 20.9938 32.3103 20.8511 32.2625 20.7041C32.5441 20.56 32.5441 20.56 32.8346 20.605Z" fill="#A55B2F"/>
</svg>
