<svg width="80" height="80" viewBox="0 0 80 80" fill="none" xmlns="http://www.w3.org/2000/svg">
<path d="M0 40C0 17.9006 17.9006 0 40 0C62.0994 0 80 17.9006 80 40C80 62.0994 62.0994 80 40 80C17.9006 80 0 62.0994 0 40Z" fill="white"/>
<path d="M46.2375 9.34336C46.8102 9.82619 47.3422 10.3492 47.8183 10.9316C48.2179 11.2668 48.4479 11.2179 48.9561 11.1771C50.4473 11.1326 51.6553 11.6004 52.7589 12.6186C52.8527 12.7014 52.9466 12.7843 53.0433 12.8697C54.6019 14.3398 55.6378 16.6963 55.7393 18.8703C55.7748 22.2026 55.6764 25.1983 54.625 28.3884C54.5608 28.5868 54.5608 28.5868 54.4952 28.7892C54.4559 28.9059 54.4165 29.0227 54.376 29.143C54.2719 29.6656 54.3518 30.0535 54.6377 30.4964C54.712 30.5872 54.7862 30.6781 54.8627 30.7717C55.7517 31.8603 55.669 33.1627 55.6033 34.5066C55.475 35.9529 54.6494 37.2674 53.6392 38.2492C52.6907 39.0427 51.7276 39.357 50.5098 39.3196C50.2237 39.2852 50.2237 39.2852 49.942 39.1411C49.9226 39.3585 49.9226 39.3585 49.9029 39.5803C49.8185 40.1785 49.5847 40.6712 49.2994 41.1951C49.2496 41.2886 49.1998 41.382 49.1485 41.4783C48.6124 42.4623 47.9982 43.4084 47.2417 44.23C46.908 44.7335 46.8687 45.1805 46.8434 45.7717C46.838 45.8911 46.8327 46.0105 46.8271 46.1335C46.6596 48.714 46.6596 48.714 47.5388 51.0307C48.1379 51.5344 48.7864 51.823 49.493 52.1411C49.6421 52.2097 49.7911 52.2784 49.9446 52.3491C50.8385 52.7577 51.7394 53.1457 52.6458 53.5239C54.9244 54.4746 57.2533 55.4511 59.0969 57.1591C59.2118 57.2485 59.3267 57.3378 59.4452 57.4299C61.5549 59.2421 62.4242 62.227 62.9437 64.8888C62.9679 65.009 62.9921 65.1292 63.017 65.2531C63.1467 65.9651 63.1926 66.6445 63.1876 67.3693C63.1867 67.5363 63.1858 67.7033 63.1849 67.8753C63.1837 68.0017 63.1826 68.128 63.1814 68.2582C57.3883 68.2615 51.5951 68.264 45.802 68.2655C45.1188 68.2657 44.4356 68.2659 43.7525 68.2661C43.6164 68.2662 43.4804 68.2662 43.3403 68.2662C41.1349 68.2669 38.9296 68.268 36.7242 68.2693C34.4631 68.2707 32.2019 68.2715 29.9408 68.2718C28.5444 68.2719 27.148 68.2726 25.7516 68.2738C24.7953 68.2745 23.8391 68.2747 22.8829 68.2746C22.3304 68.2745 21.7778 68.2746 21.2253 68.2754C20.6277 68.2762 20.0301 68.2759 19.4325 68.2755C19.2559 68.2759 19.0793 68.2764 18.8973 68.2768C18.6592 68.2764 18.6592 68.2764 18.4163 68.2759C18.2781 68.276 18.14 68.276 17.9976 68.2761C17.6885 68.2582 17.6885 68.2582 17.5476 68.1141C17.4993 67.1267 17.6253 66.2532 17.8469 65.2942C17.8786 65.1556 17.9103 65.017 17.943 64.8742C18.7153 61.6185 20.161 58.4224 23.0406 56.5825C23.1638 56.5013 23.2871 56.4201 23.4141 56.3365C26.5275 54.4026 30.0435 53.1997 33.4631 51.9699C33.4631 50.6856 33.4631 49.4013 33.4631 48.078C32.9518 47.7926 32.4406 47.5072 31.9138 47.2131C29.1926 45.1685 26.9548 42.4739 26.28 38.9969C26.28 38.8542 26.28 38.7115 26.28 38.5645C26.0447 38.5913 26.0447 38.5913 25.8046 38.6186C24.8623 38.6151 24.1434 38.0626 23.4609 37.4412C22.259 36.1443 21.8601 34.6277 21.8742 32.8877C21.9592 31.7688 22.3911 30.8321 23.1814 30.06C24.0951 29.4834 24.0951 29.4834 24.5899 29.4834C24.5423 29.3736 24.4947 29.2638 24.4457 29.1506C23.6808 27.3384 23.4548 25.6869 23.4455 23.7177C23.4449 23.619 23.4444 23.5203 23.4438 23.4187C23.4461 22.8257 23.5026 22.266 23.5951 21.6816C23.6583 21.1718 23.6583 21.1718 23.4235 20.7458C23.2523 20.6098 23.0768 20.4793 22.8981 20.3539C22.2527 19.8011 21.7717 18.8026 21.6321 17.9519C21.5039 16.3835 21.5335 15.0935 22.4772 13.7717C23.7378 12.2729 25.508 11.6712 27.3363 11.2402C29.0755 10.8241 30.6089 10.2506 32.1427 9.31225C32.9982 8.80902 33.8466 8.39694 34.7835 8.07802C34.8804 8.04477 34.9773 8.01152 35.0771 7.97726C38.623 6.8436 43.1691 6.97957 46.2375 9.34336Z" fill="#455867"/>
<path d="M45.8575 45.577C45.9504 45.577 46.0434 45.577 46.1392 45.577C46.1369 45.7229 46.1369 45.7229 46.1347 45.8717C46.1288 46.32 46.1251 46.7683 46.1215 47.2167C46.118 47.446 46.118 47.446 46.1144 47.6801C46.1074 48.8553 46.1089 50.1293 46.7642 51.1446C46.8221 51.2386 46.88 51.3326 46.9397 51.4295C47.0314 51.5293 47.0314 51.5293 47.1251 51.6311C47.2645 51.6311 47.4039 51.6311 47.5476 51.6311C47.5941 51.5359 47.6406 51.4408 47.6884 51.3428C48.5446 51.6058 49.3473 51.9889 50.162 52.3608C51.1786 52.823 52.1962 53.2799 53.2227 53.7183C55.3145 54.6156 57.3894 55.5514 59.0969 57.1085C59.2698 57.2429 59.2698 57.2429 59.4463 57.3799C61.5549 59.1934 62.4241 62.1763 62.9437 64.8383C62.9679 64.9585 62.9921 65.0787 63.017 65.2025C63.1467 65.9146 63.1926 66.5939 63.1876 67.3188C63.1867 67.4858 63.1858 67.6527 63.1849 67.8248C63.1837 67.9511 63.1826 68.0775 63.1814 68.2076C57.3883 68.2109 51.5951 68.2135 45.802 68.215C45.1188 68.2152 44.4356 68.2154 43.7525 68.2156C43.6164 68.2156 43.4804 68.2156 43.3403 68.2157C41.1349 68.2163 38.9296 68.2174 36.7242 68.2188C34.4631 68.2201 32.2019 68.2209 29.9408 68.2212C28.5444 68.2214 27.148 68.222 25.7516 68.2232C24.7953 68.224 23.8391 68.2242 22.8829 68.224C22.3304 68.2239 21.7778 68.2241 21.2253 68.2248C20.6277 68.2256 20.0301 68.2254 19.4325 68.225C19.2559 68.2254 19.0793 68.2258 18.8973 68.2262C18.6592 68.2258 18.6592 68.2258 18.4163 68.2254C18.2781 68.2254 18.14 68.2255 17.9976 68.2255C17.6885 68.2076 17.6885 68.2076 17.5476 68.0635C17.4993 67.0762 17.6253 66.2026 17.8469 65.2437C17.8786 65.1051 17.9103 64.9664 17.943 64.8236C18.7153 61.5679 20.161 58.3719 23.0406 56.532C23.2255 56.4102 23.2255 56.4102 23.4141 56.2859C26.5264 54.3527 30.0431 53.1455 33.4631 51.9194C33.6025 52.2048 33.6025 52.2048 33.7448 52.4959C33.8377 52.4959 33.9307 52.4959 34.0265 52.4959C34.073 51.164 34.1194 49.8321 34.1673 48.4599C34.5595 48.5669 34.5595 48.5669 34.9596 48.6761C38.1586 49.3687 41.3959 48.8055 44.1505 46.9878C44.754 46.5605 45.3377 46.1089 45.8575 45.577Z" fill="#A4C3BC"/>
<path d="M46.2374 9.29278C46.8101 9.77561 47.342 10.2987 47.8182 10.881C48.2178 11.2162 48.4477 11.1673 48.9559 11.1265C50.4472 11.082 51.6551 11.5498 52.7588 12.568C52.8526 12.6508 52.9465 12.7337 53.0432 12.8191C54.6018 14.2892 55.6377 16.6457 55.7392 18.8197C55.8361 27.9181 55.8361 27.9181 53.7447 30.2977C53.3645 30.3884 53.3645 30.3884 52.9436 30.3788C52.0603 30.4075 51.5085 30.6593 50.7869 31.1626C50.6475 31.2577 50.5081 31.3528 50.3644 31.4509C50.225 31.213 50.0855 30.9752 49.9419 30.7301C50.0348 30.7301 50.1278 30.7301 50.2235 30.7301C50.176 30.6199 50.1284 30.5098 50.0794 30.3962C49.2387 28.3299 49.1932 26.3048 49.2376 24.0995C49.0802 24.0753 49.0802 24.0753 48.9196 24.0505C47.894 23.7978 46.9921 22.8101 46.4207 21.9373C46.0495 21.2232 45.7282 20.4844 45.4137 19.7426C45.283 19.4481 45.283 19.4481 45.0123 19.0545C44.9428 19.1593 44.9428 19.1593 44.872 19.2662C43.3655 21.4388 41.1911 22.4854 38.6742 22.9464C37.7286 23.0642 36.6769 23.1522 35.8045 22.7031C35.4163 22.3531 35.3219 22.1359 35.1531 21.6491C34.9922 21.7065 34.9922 21.7065 34.828 21.765C32.4658 22.592 29.6705 23.2195 27.2658 22.2256C26.659 24.7916 26.4737 27.3844 26.2799 30.0094C25.8616 30.1521 25.8616 30.1521 25.4348 30.2977C25.3651 30.155 25.3651 30.155 25.294 30.0094C25.3404 29.8667 25.3869 29.724 25.4348 29.577C25.1559 29.6245 24.8771 29.6721 24.5897 29.7211C23.6406 27.082 23.156 24.4448 23.595 21.631C23.6582 21.1213 23.6582 21.1213 23.4234 20.6952C23.2522 20.5592 23.0767 20.4287 22.8979 20.3033C22.2526 19.7505 21.7715 18.752 21.632 17.9013C21.5037 16.3329 21.5333 15.0429 22.4771 13.7211C23.7377 12.2223 25.5079 11.6207 27.3362 11.1896C29.0754 10.7735 30.6088 10.2 32.1426 9.26167C32.9981 8.75843 33.8464 8.34635 34.7834 8.02743C34.8803 7.99419 34.9772 7.96094 35.077 7.92668C38.6229 6.79302 43.169 6.92899 46.2374 9.29278Z" fill="#745245"/>
<path d="M53.9383 30.5139C54.5462 31.1065 54.8896 31.7926 54.9462 32.657C54.9486 32.8735 54.947 33.0902 54.9418 33.3067C54.9403 33.4203 54.9388 33.5339 54.9373 33.6509C54.9088 34.5465 54.7462 35.2792 54.308 36.0635C54.2296 36.2121 54.1512 36.3608 54.0704 36.5139C53.2913 37.5051 52.4609 38.2838 51.2094 38.5139C50.8714 38.5413 50.5632 38.5361 50.2235 38.5139C50.0841 38.1572 50.0841 38.1572 49.9418 37.7932C49.8489 37.7932 49.7559 37.7932 49.6601 37.7932C49.634 37.9597 49.6079 38.1262 49.5809 38.2977C49.2187 39.9501 48.4329 41.5211 47.4066 42.8383C47.2991 42.9806 47.1917 43.1229 47.0809 43.2696C45.2949 45.5875 42.5499 47.4253 39.6601 47.8833C36.5902 48.1281 33.8617 47.6935 31.3855 45.6761C31.1363 45.454 30.8898 45.2287 30.6461 45.0004C30.5275 44.8925 30.4089 44.7845 30.2868 44.6733C27.6009 42.0955 26.6135 38.6042 26.4207 34.9103C26.39 33.5652 26.4026 32.2196 26.4207 30.8743C26.5137 30.8743 26.6066 30.8743 26.7024 30.8743C26.706 30.9929 26.7097 31.1114 26.7134 31.2335C26.7885 32.7472 27.0576 33.9712 28.1075 35.0888C29.1173 35.9886 30.0785 36.1735 31.4031 36.1243C32.1202 36.0389 32.6927 35.8431 33.3221 35.4869C33.4129 35.438 33.5037 35.3892 33.5972 35.3388C34.3582 34.863 34.8197 34.1609 35.1531 33.3248C35.2585 32.7861 35.327 32.2585 35.3754 31.7116C35.395 31.578 35.4146 31.4444 35.4348 31.3067C36.0793 30.9769 36.9252 31.0667 37.6036 31.2577C37.95 31.4311 38.149 31.5753 38.3925 31.8833C38.5444 32.3501 38.6325 32.8065 38.7149 33.291C38.8332 33.8416 39.0356 34.2139 39.3526 34.6677C39.5193 34.9103 39.5193 34.9103 39.6464 35.2116C39.8421 35.5601 40.0057 35.6213 40.3644 35.7752C40.4715 35.8365 40.5786 35.8978 40.689 35.961C41.8647 36.5864 42.9946 36.7183 44.2893 36.3951C45.4953 35.9506 46.2662 35.2412 46.8438 34.0764C47.26 33.1292 47.3379 32.1862 47.4066 31.1626C47.694 31.1137 47.9816 31.0659 48.2693 31.0184C48.4294 30.9917 48.5896 30.9649 48.7546 30.9374C49.2068 30.8783 49.6276 30.8472 50.0827 30.8743C50.3468 31.0905 50.3468 31.0905 50.5052 31.3067C50.604 31.2205 50.7027 31.1343 50.8045 31.0455C51.7928 30.2759 52.7671 29.9812 53.9383 30.5139Z" fill="#FED0AE"/>
<path d="M45.8572 45.577C45.9502 45.577 46.0431 45.577 46.1389 45.577C46.1367 45.7229 46.1367 45.7229 46.1345 45.8717C46.1285 46.32 46.1249 46.7683 46.1213 47.2167C46.1178 47.446 46.1178 47.446 46.1142 47.6801C46.1071 48.8553 46.1087 50.1293 46.7639 51.1446C46.8218 51.2386 46.8798 51.3326 46.9394 51.4295C47.0312 51.5293 47.0312 51.5293 47.1248 51.6311C47.2643 51.6311 47.4037 51.6311 47.5474 51.6311C47.5939 51.5359 47.6403 51.4408 47.6882 51.3428C48.5443 51.6058 49.3471 51.9889 50.1618 52.3608C51.1783 52.823 52.196 53.2799 53.2225 53.7183C55.3142 54.6156 57.3892 55.5514 59.0967 57.1085C59.2696 57.2429 59.2696 57.2429 59.446 57.3799C61.9018 59.4919 62.7903 63.2118 63.1812 66.3338C63.2276 66.9597 63.222 67.5813 63.1812 68.2076C62.9488 68.1601 62.7164 68.1125 62.4769 68.0635C62.4636 67.9577 62.4502 67.8519 62.4364 67.7428C61.9532 63.9929 61.2837 60.0652 58.278 57.5139C56.9918 56.5273 55.6572 55.7495 54.1935 55.0725C54.0336 54.9977 53.8736 54.9228 53.7089 54.8457C52.6119 54.3381 51.5138 53.8728 50.3643 53.5049C50.2404 53.6688 50.2404 53.6688 50.1139 53.836C49.7709 54.263 49.4079 54.6002 48.9965 54.9554C48.7804 55.1426 48.5683 55.335 48.3605 55.532C46.6073 57.1269 44.3622 58.2652 42.0544 58.6941C41.9119 58.7213 41.7694 58.7484 41.6225 58.7763C38.5434 59.1206 35.3362 59.0569 32.774 57.0832C31.6543 56.0899 30.9247 55.3172 30.7868 53.7932C26.4232 55.568 26.4232 55.568 22.477 58.1176C22.3341 58.23 22.1912 58.3424 22.044 58.4582C21.5851 58.8815 21.2626 59.3113 20.9277 59.8383C20.867 59.9333 20.8063 60.0282 20.7438 60.1261C19.223 62.571 18.6534 65.3791 18.2516 68.2076C18.0192 68.1601 17.7868 68.1125 17.5474 68.0635C17.5139 67.0744 17.6245 66.2051 17.8467 65.2437C17.8784 65.1051 17.9101 64.9664 17.9428 64.8236C18.715 61.5679 20.1608 58.3719 23.0403 56.532C23.2252 56.4102 23.2252 56.4102 23.4139 56.2859C26.5262 54.3527 30.0429 53.1455 33.4629 51.9194C33.6023 52.2048 33.6023 52.2048 33.7446 52.4959C33.8375 52.4959 33.9305 52.4959 34.0262 52.4959C34.0727 51.164 34.1192 49.8321 34.1671 48.4599C34.5593 48.5669 34.5593 48.5669 34.9593 48.6761C38.1584 49.3687 41.3957 48.8055 44.1502 46.9878C44.7538 46.5605 45.3375 46.1089 45.8572 45.577Z" fill="#7BA49E"/>
<path d="M45.0122 18.7662C45.3982 19.1612 45.5464 19.6366 45.7516 20.1446C46.5154 21.9706 47.3855 23.3377 49.2376 24.0995C49.2445 24.2617 49.2514 24.4239 49.2585 24.5911C49.3249 26.0282 49.4553 27.4321 49.6601 28.8563C49.7088 29.2405 49.7549 29.6249 49.8009 30.0094C48.9027 30.1785 48.0399 30.3403 47.1249 30.2977C47.0755 30.155 47.0261 30.0123 46.9752 29.8653C46.5155 28.7863 45.8102 28.0898 44.7465 27.6586C43.5047 27.2428 42.2366 27.2727 41.0229 27.7814C39.9055 28.4041 39.1497 29.2455 38.6742 30.4419C38.5817 30.6348 38.4882 30.8272 38.3925 31.0184C38.2734 30.9233 38.1543 30.8282 38.0316 30.7302C37.2207 30.2412 36.2025 30.3988 35.2939 30.4419C35.2373 30.3033 35.2373 30.3033 35.1795 30.162C34.655 28.9774 33.9931 28.2196 32.8467 27.6401C31.6661 27.2124 30.2361 27.1911 29.0411 27.564C27.9018 28.1367 27.3849 29.0243 26.8432 30.1536C26.6573 30.106 26.4714 30.0584 26.2798 30.0094C26.1684 27.4122 26.4188 24.6852 27.2657 22.2256C27.379 22.2569 27.379 22.2569 27.4946 22.2887C30.0812 22.9157 32.6322 22.2855 35.1531 21.6491C35.2053 21.7591 35.2576 21.8691 35.3115 21.9824C35.6383 22.4617 35.8885 22.5976 36.4207 22.8022C38.6198 23.141 41.1274 22.4212 42.9771 21.1952C43.8653 20.5081 44.5141 19.7857 45.0122 18.7662Z" fill="#FDD0AE"/>
<path d="M45.8573 45.577C45.9503 45.577 46.0432 45.577 46.139 45.577C46.1375 45.6743 46.136 45.7715 46.1345 45.8717C46.1286 46.32 46.125 46.7683 46.1214 47.2167C46.1178 47.446 46.1178 47.446 46.1142 47.6801C46.1072 48.8524 46.1012 50.1318 46.7728 51.1356C46.8323 51.2279 46.8919 51.3203 46.9533 51.4154C47.1175 51.652 47.1175 51.652 47.4066 51.7752C46.9983 53.2608 45.5488 54.2195 44.308 54.9464C42.025 56.1074 38.998 56.5699 36.5214 55.8259C35.3944 55.3579 34.4889 54.5896 33.8855 53.5049C33.7446 53.0905 33.7446 53.0905 33.7446 52.7842C33.8376 52.6891 33.9305 52.5939 34.0263 52.4959C34.0788 52.0762 34.0788 52.0762 34.0846 51.5849C34.0901 51.4037 34.0955 51.2226 34.1011 51.0359C34.1055 50.8458 34.1099 50.6557 34.1143 50.4599C34.1197 50.2668 34.1252 50.0736 34.1309 49.8805C34.1442 49.407 34.1562 48.9335 34.1672 48.4599C34.2867 48.4931 34.4062 48.5264 34.5293 48.5606C37.7769 49.4325 41.0038 48.8663 43.8855 47.1626C44.5892 46.6982 45.2645 46.1837 45.8573 45.577Z" fill="#FECFAD"/>
<path d="M24.5898 29.4329C24.6247 29.5458 24.6595 29.6588 24.6954 29.7752C24.902 30.2191 25.0103 30.2502 25.4349 30.4419C25.628 30.6285 25.817 30.8197 25.9983 31.0184C26.0447 30.9233 26.0912 30.8282 26.1391 30.7302C26.2785 30.7777 26.418 30.8253 26.5616 30.8743C26.5583 31.0328 26.5583 31.0328 26.5549 31.1945C26.4646 36.1937 26.8051 40.8424 30.3557 44.613C32.465 46.6889 34.969 47.8267 37.8997 47.7932C38.0458 47.7949 38.192 47.7966 38.3426 47.7983C39.8463 47.7925 41.2072 47.4487 42.5564 46.7752C42.6579 46.7253 42.7595 46.6755 42.8641 46.6241C43.7477 46.1771 44.5285 45.6361 45.294 45.0004C45.381 44.9348 45.468 44.8692 45.5576 44.8017C47.6923 43.1114 48.8642 40.3421 49.6602 37.7932C49.7532 37.7932 49.8461 37.7932 49.9419 37.7932C50.0814 38.0786 50.0814 38.0786 50.2236 38.3698C51.4263 38.4484 52.2881 38.1509 53.2166 37.3518C54.263 36.3324 54.7357 35.1711 54.7789 33.7144C54.803 32.1001 54.803 32.1001 54.0264 30.7302C53.8425 30.5809 53.6555 30.4353 53.463 30.2977C53.8116 30.0123 53.8116 30.0123 54.1673 29.7211C54.3506 29.9663 54.5322 30.2128 54.713 30.4599C54.865 30.6656 54.865 30.6656 55.02 30.8754C55.8136 32.1246 55.7687 33.8169 55.4789 35.2425C54.9803 36.7435 54.0756 38.0711 52.7049 38.8484C51.8827 39.2256 51.1201 39.3423 50.2236 39.2347C50.1307 39.1871 50.0377 39.1395 49.9419 39.0905C49.9226 39.3079 49.9226 39.3079 49.9029 39.5297C49.8184 40.128 49.5847 40.6207 49.2993 41.1446C49.2495 41.238 49.1997 41.3314 49.1484 41.4277C48.6123 42.4117 47.9982 43.3579 47.2417 44.1795C46.908 44.683 46.8686 45.13 46.8433 45.7211C46.8353 45.9002 46.8353 45.9002 46.8271 46.0829C46.6624 48.623 46.6624 48.623 47.4947 50.934C47.6884 51.1986 47.6884 51.1986 47.6444 51.5229C47.6124 51.6062 47.5805 51.6894 47.5476 51.7752C47.2049 51.7207 47.0266 51.677 46.785 51.4154C46.7287 51.3231 46.6724 51.2307 46.6145 51.1356C46.5574 51.0466 46.5004 50.9576 46.4417 50.8659C45.9763 49.7496 45.9569 48.5748 45.9718 47.3788C45.972 47.1653 45.972 47.1653 45.9721 46.9475C45.9784 45.9059 45.9784 45.9059 46.1391 45.577C45.9801 45.713 45.9801 45.713 45.8178 45.8518C43.51 47.7743 40.7267 49.0989 37.7148 49.0815C37.5791 49.0812 37.4435 49.0809 37.3037 49.0806C36.2122 49.0649 35.1596 48.9676 34.1673 48.4599C34.1695 48.5806 34.1717 48.7014 34.174 48.8258C34.1812 49.2733 34.1865 49.7208 34.1905 50.1684C34.1937 50.4576 34.199 50.7468 34.2044 51.0359C34.2058 51.2171 34.2071 51.3982 34.2085 51.5849C34.2107 51.7525 34.213 51.92 34.2152 52.0927C34.1994 52.2258 34.1836 52.3588 34.1673 52.4959C34.0278 52.5911 33.8884 52.6862 33.7447 52.7842C33.538 52.3609 33.6015 51.9924 33.6138 51.5207C33.6153 51.3219 33.6164 51.1232 33.6171 50.9244C33.6182 50.6112 33.6215 50.299 33.6324 49.986C33.6544 49.3107 33.6475 48.683 33.463 48.0274C32.9962 47.5814 32.5009 47.3973 31.9138 47.1626C29.1645 45.243 26.9358 42.3261 26.2799 38.9464C26.2799 38.8037 26.2799 38.661 26.2799 38.5139C26.1231 38.5318 25.9662 38.5496 25.8046 38.568C24.8623 38.5646 24.1434 38.012 23.4608 37.3906C22.259 36.0937 21.86 34.5771 21.8741 32.8371C21.9591 31.7182 22.391 30.7815 23.1814 30.0094C24.0951 29.4329 24.0951 29.4329 24.5898 29.4329Z" fill="#C6714F"/>
<path d="M45.0123 28.568C45.7811 29.0401 46.1763 29.6223 46.4692 30.4841C46.7724 31.7644 46.5951 33.0825 45.9575 34.2273C45.3947 35.0605 44.732 35.5742 43.7447 35.7752C42.5562 35.9 41.6297 35.7755 40.6461 35.0545C39.8643 34.3329 39.3035 33.5494 39.1936 32.4531C39.1572 31.4433 39.2403 30.7039 39.801 29.8653C39.8765 29.7404 39.9521 29.6156 40.0299 29.4869C41.3929 28.092 43.2632 27.6781 45.0123 28.568Z" fill="#FCD1AE"/>
<path d="M30.7605 28.0905C30.9055 28.087 30.9055 28.087 31.0535 28.0835C32.1647 28.0824 32.9723 28.5332 33.7727 29.2983C34.5489 30.1512 34.6917 30.9807 34.6525 32.135C34.5227 33.1057 34.1165 33.873 33.419 34.541C32.3533 35.3654 31.2595 35.4913 29.9418 35.3428C29.0719 35.0996 28.4505 34.5274 27.97 33.7572C27.6088 33.0283 27.4736 32.4267 27.4859 31.604C27.487 31.5026 27.4882 31.4012 27.4894 31.2967C27.52 30.3368 27.6978 29.7242 28.348 29.0387C29.1267 28.3189 29.7016 28.0855 30.7605 28.0905Z" fill="#FCD1AE"/>
<path d="M54.0265 29.7211C54.9276 30.5922 55.556 31.472 55.6231 32.7679C55.6625 34.7959 55.289 36.3997 53.9121 37.9334C53.0371 38.7837 52.0732 39.2618 50.8575 39.2797C50.4892 39.2684 50.2721 39.2594 49.942 39.0905C49.9227 39.3079 49.9227 39.3079 49.9029 39.5297C49.8185 40.128 49.5847 40.6207 49.2994 41.1446C49.2496 41.238 49.1998 41.3314 49.1485 41.4277C48.6124 42.4117 47.9982 43.3579 47.2417 44.1795C46.908 44.683 46.8687 45.13 46.8434 45.7211C46.8354 45.9002 46.8354 45.9002 46.8272 46.0829C46.6625 48.623 46.6625 48.623 47.4948 50.934C47.6885 51.1986 47.6885 51.1986 47.6445 51.5229C47.6125 51.6062 47.5805 51.6894 47.5476 51.7752C47.205 51.7207 47.0267 51.677 46.7851 51.4154C46.7288 51.323 46.6725 51.2307 46.6145 51.1356C46.5575 51.0465 46.5005 50.9575 46.4418 50.8658C45.9764 49.7496 45.957 48.5748 45.9719 47.3788C45.9721 47.1653 45.9721 47.1653 45.9722 46.9475C45.9785 45.9059 45.9785 45.9059 46.1392 45.577C46.0331 45.6677 45.9271 45.7583 45.8179 45.8518C43.51 47.7743 40.7267 49.0989 37.7149 49.0815C37.5792 49.0812 37.4435 49.0809 37.3038 49.0806C36.2123 49.0649 35.1596 48.9676 34.1673 48.4599C34.1696 48.5806 34.1718 48.7014 34.174 48.8258C34.1812 49.2733 34.1865 49.7208 34.1906 50.1684C34.1937 50.4576 34.1991 50.7467 34.2045 51.0359C34.2058 51.2171 34.2072 51.3982 34.2086 51.5849C34.2108 51.7525 34.213 51.92 34.2153 52.0927C34.1995 52.2258 34.1836 52.3588 34.1673 52.4959C33.9582 52.6386 33.9582 52.6386 33.7448 52.7842C33.5351 52.3549 33.6017 51.9723 33.6139 51.4942C33.6154 51.2896 33.6165 51.0849 33.6172 50.8802C33.6183 50.5579 33.6215 50.2365 33.6324 49.9143C33.6548 49.2075 33.6491 48.568 33.4631 47.8833C33.0025 47.4014 32.5214 47.1259 31.9138 46.8743C31.9603 46.7316 32.0068 46.5889 32.0547 46.4419C33.0481 46.73 34.0159 47.0722 34.9844 47.4385C35.9375 47.7696 36.84 47.7704 37.8381 47.7752C37.9887 47.7782 38.1393 47.7811 38.2945 47.7842C39.823 47.7918 41.1847 47.46 42.5564 46.7752C42.658 46.7253 42.7595 46.6755 42.8642 46.6241C43.7477 46.1771 44.5286 45.6361 45.2941 45.0004C45.3811 44.9348 45.468 44.8692 45.5576 44.8017C47.6924 43.1114 48.8643 40.3421 49.6603 37.7932C49.7533 37.7932 49.8462 37.7932 49.942 37.7932C50.0814 38.0786 50.0814 38.0786 50.2237 38.3698C51.4264 38.4484 52.2882 38.1509 53.2166 37.3518C54.2631 36.3324 54.7358 35.1711 54.779 33.7144C54.8031 32.1001 54.8031 32.1001 54.0265 30.7301C53.8426 30.5809 53.6555 30.4353 53.4631 30.2977C53.649 30.1074 53.8349 29.9172 54.0265 29.7211Z" fill="#CB7A57"/>
<path d="M47.9701 52.3518C48.6841 52.4461 49.2968 52.7633 49.9419 53.0725C49.9419 53.3608 49.9419 53.3608 49.7647 53.5539C49.4506 53.829 49.1345 54.101 48.8151 54.3698C48.7426 54.4312 48.6702 54.4925 48.5955 54.5557C46.0709 56.68 43.2653 58.1188 39.9419 58.2617C39.85 58.2664 39.7581 58.2711 39.6634 58.2759C37.1582 58.3911 34.7495 57.9631 32.7676 56.2617C31.9364 55.4511 31.4228 54.691 31.3503 53.5049C31.5493 53.4075 31.7489 53.3117 31.9489 53.2167C32.1156 53.1364 32.1156 53.1364 32.2856 53.0545C32.6179 52.9284 32.6179 52.9284 33.1813 52.9284C33.2106 53.019 33.2398 53.1097 33.2699 53.2031C33.8085 54.7345 34.5456 55.5059 35.9757 56.211C38.2825 57.1274 41.208 56.9463 43.4762 55.973C45.2031 55.1878 47.0716 54.1367 47.9701 52.3518Z" fill="#A5C3BD"/>
<path d="M25.1532 30.1536C25.7293 30.72 25.8071 31.2346 25.8283 32.019C25.8334 32.1291 25.8385 32.2391 25.8438 32.3525C25.8596 32.7036 25.8718 33.0546 25.8838 33.4058C25.8934 33.6379 25.9032 33.87 25.9133 34.1021C25.928 34.4411 25.9425 34.7802 25.956 35.1194C25.9924 36.0131 26.0554 36.9028 26.1391 37.7932C24.9562 37.6315 24.2845 37.176 23.5329 36.229C22.7877 35.1226 22.4026 33.6507 22.618 32.3157C22.8967 31.4487 23.2858 30.7481 24.0594 30.2662C24.4621 30.0838 24.7238 30.0559 25.1532 30.1536Z" fill="#FED0AF"/>
<path d="M24.7306 63.4509C24.8235 63.4509 24.9165 63.4509 25.0123 63.4509C25.1056 64.993 24.8192 66.3535 24.5897 67.9194C34.2108 67.9194 43.832 67.9194 53.7447 67.9194C53.7447 66.7302 53.7447 65.541 53.7447 64.3158C53.8376 64.0779 53.9306 63.8401 54.0263 63.595C54.1658 63.595 54.3052 63.595 54.4489 63.595C54.4489 65.1172 54.4489 66.6394 54.4489 68.2076C44.363 68.2076 34.277 68.2076 23.8855 68.2076C23.8855 67.31 23.9343 66.5397 24.0704 65.6671C24.087 65.5489 24.1036 65.4308 24.1207 65.309C24.2267 64.6168 24.3833 64.0662 24.7306 63.4509Z" fill="#9CBEB8"/>
<path d="M54.0265 29.7211C54.9276 30.5922 55.556 31.472 55.6231 32.7679C55.6625 34.7959 55.289 36.3997 53.912 37.9334C53.0371 38.7837 52.0732 39.2618 50.8574 39.2797C50.4891 39.2684 50.272 39.2594 49.942 39.0905C49.9291 39.2354 49.9162 39.3804 49.9029 39.5297C49.8184 40.128 49.5847 40.6207 49.2993 41.1446C49.2496 41.238 49.1998 41.3314 49.1485 41.4277C48.5334 42.5567 47.7742 43.5628 46.9842 44.568C46.8912 44.5204 46.7983 44.4728 46.7025 44.4238C46.7722 44.2811 46.7722 44.2811 46.8434 44.1356C46.6574 44.2783 46.4715 44.421 46.28 44.568C46.187 44.5204 46.0941 44.4728 45.9983 44.4238C46.0954 44.3153 46.1926 44.2068 46.2926 44.095C47.9405 42.2085 48.9193 40.1962 49.6603 37.7932C49.7532 37.7932 49.8462 37.7932 49.942 37.7932C50.0349 37.9835 50.1279 38.1738 50.2236 38.3698C51.4263 38.4484 52.2881 38.1509 53.2166 37.3518C54.2631 36.3324 54.7358 35.1711 54.779 33.7144C54.8031 32.1001 54.8031 32.1001 54.0265 30.7301C53.8425 30.5809 53.6555 30.4353 53.4631 30.2977C53.649 30.1074 53.8349 29.9172 54.0265 29.7211Z" fill="#C77350"/>
<path d="M40.646 39.9554C40.7854 40.0029 40.9249 40.0505 41.0685 40.0995C41.1071 40.4317 41.1071 40.4317 41.0685 40.8202C39.8531 41.9689 38.2187 42.1881 36.6396 42.1491C35.5651 42.0814 34.5635 41.8824 33.7446 41.1085C33.6434 40.7966 33.6434 40.7966 33.6038 40.532C33.9826 40.3819 34.2337 40.3605 34.6172 40.5015C34.8356 40.6041 35.0527 40.7099 35.268 40.8191C36.5481 41.4238 37.9631 41.1386 39.248 40.6992C39.6027 40.5552 39.9154 40.4 40.2411 40.1986C40.3747 40.1183 40.5083 40.0381 40.646 39.9554Z" fill="#C27354"/>
<path d="M42.9701 30.1986C43.4631 30.2977 43.4631 30.2977 43.8768 30.568C44.2864 31.2031 44.2898 31.7196 44.1673 32.4599C43.9473 32.9734 43.9473 32.9734 43.6039 33.3247C43.1198 33.4869 43.1198 33.4869 42.618 33.4689C42.2234 33.2143 41.9821 33.0321 41.773 32.604C41.6865 31.9011 41.6407 31.233 42.0634 30.6401C42.4772 30.2977 42.4772 30.2977 42.9701 30.1986Z" fill="#624131"/>
<path d="M31.9138 30.2977C32.3142 30.6129 32.4533 30.8493 32.5256 31.3619C32.5506 32.077 32.5211 32.6114 32.0546 33.1806C31.6545 33.3854 31.3708 33.3701 30.9278 33.3248C30.6035 33.0556 30.4098 32.8409 30.2236 32.4599C30.1463 31.6848 30.1473 31.0702 30.6462 30.4419C31.0868 30.2164 31.4287 30.2464 31.9138 30.2977Z" fill="#604131"/>
<path d="M44.4485 25.6648C44.8046 25.8723 45.0673 26.0522 45.2941 26.4058C45.2853 26.7211 45.2853 26.7211 45.1532 26.9824C44.7307 27.1265 44.7307 27.1265 44.4628 27.0196C44.3682 26.9657 44.2736 26.9118 44.1761 26.8563C43.016 26.202 41.7784 26.3569 40.5053 26.55C40.4589 26.3121 40.4124 26.0743 40.3645 25.8292C41.5148 24.8956 43.1654 25.0504 44.4485 25.6648Z" fill="#674B43"/>
<path d="M35.8574 32.4599C35.9969 32.4599 36.1363 32.4599 36.28 32.4599C36.2092 33.29 36.0418 33.9302 35.7078 34.6851C35.3587 35.5163 35.2009 36.1671 35.294 37.0725C35.3924 37.0866 35.4909 37.1007 35.5922 37.1153C35.7204 37.1368 35.8486 37.1584 35.9807 37.1806C36.1081 37.2007 36.2356 37.2207 36.3669 37.2414C36.7025 37.3608 36.7025 37.3608 36.8885 37.6603C36.92 37.7517 36.9516 37.8432 36.9842 37.9374C36.7658 38.1608 36.5565 38.1167 36.2536 38.1265C35.5203 38.1218 35.1105 37.8937 34.5898 37.3608C34.3279 35.5979 34.9361 34.1447 35.7166 32.604C35.7631 32.5565 35.8095 32.5089 35.8574 32.4599Z" fill="#C37251"/>
<path d="M26.1389 30.7301C26.2784 30.7777 26.4178 30.8253 26.5615 30.8743C26.5603 31.0418 26.5603 31.0418 26.5592 31.2128C26.5222 33.8902 26.5222 33.8902 26.699 36.5584C26.7028 36.9851 26.5983 37.2665 26.4206 37.6491C26.2812 37.6015 26.1417 37.5539 25.9981 37.5049C25.7629 35.3362 25.678 33.2 25.7164 31.0184C25.8093 31.0184 25.9023 31.0184 25.9981 31.0184C26.0446 30.9233 26.091 30.8282 26.1389 30.7301Z" fill="#CB7A57"/>
<path d="M33.0051 25.4239C33.322 25.6851 33.322 25.6851 33.4453 26.0725C33.4511 26.1825 33.4569 26.2925 33.4629 26.4058C32.971 26.5317 32.6787 26.5332 32.1953 26.4058C31.3032 26.3111 30.6706 26.379 29.912 26.8844C29.6601 26.9824 29.6601 26.9824 29.3465 26.8552C29.2228 26.7754 29.2228 26.7754 29.0967 26.6941C29.1917 26.305 29.2847 26.0436 29.6067 25.8022C30.7072 25.1654 31.7753 25.0253 33.0051 25.4239Z" fill="#694C43"/>
<path d="M46.4206 45.1446C46.4671 45.1446 46.5136 45.1446 46.5615 45.1446C46.5607 45.2274 46.56 45.3102 46.5592 45.3955C46.5563 45.7743 46.5545 46.1531 46.5527 46.532C46.5515 46.6622 46.5503 46.7925 46.5491 46.9267C46.5467 47.5992 46.5659 48.2307 46.7023 48.8923C46.7488 48.8923 46.7953 48.8923 46.8432 48.8923C46.8816 49.0696 46.8816 49.0696 46.9207 49.2504C46.9561 49.4058 46.9915 49.5611 47.028 49.7212C47.0623 49.875 47.0966 50.0289 47.132 50.1874C47.2631 50.6138 47.4224 50.8524 47.6882 51.1986C47.6442 51.523 47.6442 51.523 47.5474 51.7752C47.2048 51.7207 47.0264 51.677 46.7848 51.4154C46.7004 51.2769 46.7004 51.2769 46.6143 51.1356C46.5573 51.0466 46.5003 50.9576 46.4415 50.8659C45.944 49.6725 45.9616 48.421 45.9805 47.1446C45.9817 46.9792 45.983 46.8138 45.9843 46.6435C45.9876 46.2399 45.9922 45.8364 45.9981 45.4329C46.1375 45.4329 46.277 45.4329 46.4206 45.4329C46.4206 45.3377 46.4206 45.2426 46.4206 45.1446Z" fill="#D0815E"/>
<path d="M24.7306 63.4509C24.8236 63.4509 24.9165 63.4509 25.0123 63.4509C25.041 64.5626 24.9616 65.6222 24.801 66.7212C24.7809 66.8653 24.7607 67.0094 24.74 67.1578C24.6909 67.5079 24.6408 67.8578 24.5898 68.2076C24.3574 68.2076 24.125 68.2076 23.8855 68.2076C23.8651 67.3395 23.9368 66.5239 24.0704 65.6671C24.087 65.5489 24.1036 65.4308 24.1207 65.309C24.2267 64.6168 24.3833 64.0662 24.7306 63.4509Z" fill="#7CA59E"/>
<path d="M54.0264 29.7212C53.9345 30.0055 53.9345 30.0055 53.7447 30.2977C53.392 30.3602 53.392 30.3602 52.9613 30.3608C52.0765 30.4043 51.5105 30.6579 50.787 31.1626C50.6475 31.2577 50.5081 31.3529 50.3644 31.4509C50.225 31.213 50.0856 30.9752 49.9419 30.7302C50.0349 30.7302 50.1278 30.7302 50.2236 30.7302C50.1742 30.6439 50.1248 30.5577 50.0739 30.4689C49.9419 30.1536 49.9419 30.1536 50.0827 29.7212C50.0827 29.8163 50.0827 29.9114 50.0827 30.0094C50.2796 29.9601 50.2796 29.9601 50.4805 29.9098C51.7113 29.6258 52.7621 29.54 54.0264 29.7212Z" fill="#66514A"/>
<path d="M54.0265 63.595C54.1659 63.595 54.3053 63.595 54.449 63.595C54.449 65.1172 54.449 66.6394 54.449 68.2076C54.2631 68.2076 54.0772 68.2076 53.8856 68.2076C53.8821 67.5739 53.8796 66.9402 53.8779 66.3064C53.8772 66.0907 53.8762 65.8749 53.875 65.6592C53.8733 65.3497 53.8725 65.0402 53.8719 64.7307C53.8711 64.5443 53.8704 64.3578 53.8696 64.1657C53.8856 63.7392 53.8856 63.7392 54.0265 63.595Z" fill="#7AA49D"/>
<path d="M54.0263 29.7211C54.9115 30.5768 55.5363 31.4218 55.6031 32.6975C55.5998 32.8748 55.5965 33.052 55.5932 33.2347C55.5906 33.4141 55.5881 33.5936 55.5855 33.7786C55.5822 33.9142 55.5789 34.0499 55.5756 34.1896C55.5291 34.1896 55.4826 34.1896 55.4347 34.1896C55.3882 33.8091 55.3418 33.4285 55.2939 33.0365C55.2474 33.417 55.2009 33.7975 55.153 34.1896C55.1066 34.1896 55.0601 34.1896 55.0122 34.1896C55 34.0486 54.9879 33.9075 54.9753 33.7622C54.8586 32.6481 54.7415 31.628 54.0263 30.7301C53.8431 30.5799 53.6562 30.4341 53.4629 30.2977C53.6488 30.1074 53.8347 29.9172 54.0263 29.7211Z" fill="#C26A46"/>
<path d="M49.6601 37.7932C49.7531 37.7932 49.846 37.7932 49.9418 37.7932C49.965 37.8854 49.9883 37.9776 50.0122 38.0725C50.1928 38.393 50.1928 38.393 50.4931 38.4402C50.7778 38.4747 51.0641 38.4951 51.3502 38.5139C51.3502 38.5615 51.3502 38.6091 51.3502 38.6581C51.0249 38.7057 50.6995 38.7532 50.3643 38.8022C50.4108 38.8974 50.4573 38.9925 50.5052 39.0905C50.3193 39.0905 50.1333 39.0905 49.9418 39.0905C49.8953 39.3284 49.8488 39.5662 49.801 39.8112C49.7545 39.6685 49.708 39.5258 49.6601 39.3788C49.7066 39.2837 49.7531 39.1885 49.801 39.0905C49.6615 39.1381 49.5221 39.1857 49.3784 39.2347C49.4714 38.759 49.5643 38.2833 49.6601 37.7932Z" fill="#C46E4B"/>
<path d="M26.5616 36.9283C26.9038 37.4536 26.8661 37.7518 26.8433 38.3698C26.7503 38.3698 26.6573 38.3698 26.5616 38.3698C26.5616 38.7028 26.5616 39.0357 26.5616 39.3788C26.2799 38.9464 26.2799 38.9464 26.2799 38.5139C26.094 38.4664 25.9081 38.4188 25.7165 38.3698C25.8559 38.3698 25.9954 38.3698 26.139 38.3698C26.139 38.2271 26.139 38.0844 26.139 37.9374C25.9066 37.9374 25.6743 37.9374 25.4348 37.9374C25.4348 37.8898 25.4348 37.8422 25.4348 37.7932C25.6672 37.7932 25.8996 37.7932 26.139 37.7932C26.139 37.5554 26.139 37.3175 26.139 37.0725C26.232 37.2152 26.325 37.3579 26.4207 37.5049C26.4672 37.3147 26.5137 37.1244 26.5616 36.9283Z" fill="#C26B49"/>
<path d="M27.5476 40.6761C27.8292 41.1085 27.8292 41.1085 27.8942 41.3872C28.0104 41.843 28.2788 42.1808 28.539 42.564C28.5836 42.6545 28.6283 42.745 28.6743 42.8383C28.6278 42.981 28.5814 43.1237 28.5335 43.2707C27.9364 42.7275 27.5478 42.1673 27.2659 41.3968C27.2659 41.2541 27.2659 41.1114 27.2659 40.9644C27.3588 40.9644 27.4518 40.9644 27.5476 40.9644C27.5476 40.8692 27.5476 40.7741 27.5476 40.6761Z" fill="#CA7B5C"/>
<path d="M24.7304 37.5049C25.6635 37.613 25.6635 37.613 26.1389 37.9374C26.1389 38.0801 26.1389 38.2228 26.1389 38.3698C25.6811 38.4869 25.6811 38.4869 25.153 38.5139C24.8097 38.1626 24.8097 38.1626 24.5896 37.7932C24.6361 37.6981 24.6826 37.6029 24.7304 37.5049Z" fill="#C87857"/>
<path d="M26.5616 38.0815C26.701 38.0815 26.8405 38.0815 26.9841 38.0815C27.0771 38.6047 27.17 39.128 27.2658 39.6671C26.7024 39.8112 26.7024 39.8112 26.4207 39.6671C26.4169 39.4569 26.4142 39.2467 26.4119 39.0365C26.4103 38.9194 26.4087 38.8023 26.407 38.6817C26.4207 38.3698 26.4207 38.3698 26.5616 38.0815Z" fill="#CB7B5B"/>
<path d="M54.0263 29.7211C54.0582 29.7984 54.0902 29.8757 54.1231 29.9554C54.2885 30.2617 54.4556 30.4855 54.6777 30.7482C55.0122 31.1626 55.0122 31.1626 55.0122 31.4509C54.8263 31.4509 54.6404 31.4509 54.4488 31.4509C54.2998 31.2158 54.1597 30.9748 54.0263 30.7301C53.7348 30.4731 53.7348 30.4731 53.4629 30.2977C53.6488 30.1074 53.8347 29.9172 54.0263 29.7211Z" fill="#C07352"/>
<path d="M24.5897 29.4329C24.6826 29.6707 24.7756 29.9085 24.8714 30.1536C24.2439 30.3676 24.2439 30.3676 23.6038 30.586C23.727 29.9013 23.727 29.9013 23.8854 29.577C24.308 29.4329 24.308 29.4329 24.5897 29.4329Z" fill="#C77755"/>
<path d="M25.9983 33.9013C26.0912 33.9013 26.1842 33.9013 26.28 33.9013C26.3003 34.0559 26.3206 34.2105 26.3416 34.3698C26.3979 34.7542 26.4597 35.1142 26.5616 35.4869C26.3293 35.6772 26.0969 35.8675 25.8574 36.0635C25.9039 35.35 25.9504 34.6365 25.9983 33.9013Z" fill="#CD7E5C"/>
<path d="M33.8855 50.6221C33.932 50.6221 33.9784 50.6221 34.0263 50.6221C34.0728 51.2404 34.1193 51.8588 34.1672 52.4959C34.0277 52.5911 33.8883 52.6862 33.7446 52.7842C33.5853 52.0595 33.6247 51.4901 33.7446 50.7662C33.7911 50.7186 33.8376 50.6711 33.8855 50.6221Z" fill="#D4815D"/>
<path d="M26.7024 32.7482C26.7416 32.8298 26.7808 32.9113 26.8212 32.9954C26.986 33.3287 27.159 33.6558 27.3362 33.9824C27.3957 34.0926 27.4553 34.2028 27.5166 34.3163C27.6581 34.5683 27.8125 34.8127 27.97 35.0545C27.3773 34.8379 27.1527 34.4443 26.8432 33.9013C26.8432 33.8062 26.8432 33.7111 26.8432 33.613C26.7503 33.613 26.6573 33.613 26.5615 33.613C26.608 33.3276 26.6545 33.0422 26.7024 32.7482Z" fill="#EDD3AF"/>
<path d="M45.0123 18.7662C45.3736 19.136 45.3701 19.4115 45.4348 19.9193C45.2954 19.8242 45.156 19.7291 45.0123 19.6311C44.8264 19.8213 44.6405 20.0116 44.4489 20.2076C44.356 20.1601 44.263 20.1125 44.1672 20.0635C44.4461 19.6354 44.725 19.2073 45.0123 18.7662Z" fill="#FAE1BD"/>
<path d="M25.7165 35.6311C26.0362 36.1218 26.0497 36.3756 26.0862 36.9554C26.0968 37.112 26.1073 37.2687 26.1181 37.43C26.125 37.5499 26.1319 37.6697 26.139 37.7932C25.9066 37.7456 25.6743 37.6981 25.4348 37.6491C25.5743 37.6015 25.7137 37.5539 25.8573 37.5049C25.8341 37.4098 25.8109 37.3147 25.7869 37.2166C25.6993 36.6788 25.7075 36.1761 25.7165 35.6311Z" fill="#FADBBA"/>
<path d="M48.956 40.0995C49.0024 40.1947 49.0489 40.2898 49.0968 40.3878C49.0503 40.483 49.0038 40.5781 48.956 40.6761C49.0489 40.6761 49.1419 40.6761 49.2376 40.6761C49.2376 40.8188 49.2376 40.9615 49.2376 41.1085C48.9588 41.2037 48.6799 41.2988 48.3926 41.3968C48.5417 40.9063 48.6755 40.53 48.956 40.0995Z" fill="#C36F4D"/>
<path d="M25.9982 29.2887C26.0911 29.479 26.1841 29.6693 26.2799 29.8653C25.9787 30.1736 25.8386 30.2151 25.4348 30.2977C25.3883 30.2026 25.3418 30.1075 25.2939 30.0094C25.4348 29.577 25.4348 29.577 25.7253 29.4058C25.8153 29.3672 25.9054 29.3285 25.9982 29.2887Z" fill="#61524D"/>
<path d="M47.125 42.9824C47.3109 42.9824 47.4968 42.9824 47.6883 42.9824C47.7348 43.1727 47.7813 43.3629 47.8292 43.559C47.5739 43.7121 47.5739 43.7121 47.2658 43.8473C47.1264 43.7997 46.9869 43.7521 46.8433 43.7031C46.9362 43.4653 47.0292 43.2275 47.125 42.9824Z" fill="#CB7B5A"/>
<path d="M24.7307 29.4329C25.0793 29.5042 25.0793 29.5042 25.4349 29.577C25.4814 29.91 25.5279 30.2429 25.5758 30.586C25.2325 30.4148 25.2325 30.4148 24.8716 30.1536C24.7571 29.7662 24.7571 29.7662 24.7307 29.4329Z" fill="#4D4C4F"/>
<path d="M62.1955 63.3067C62.335 63.3067 62.4744 63.3067 62.6181 63.3067C62.5716 63.6397 62.5251 63.9727 62.4772 64.3158C62.3378 64.2682 62.1983 64.2206 62.0547 64.1716C62.1012 63.8862 62.1476 63.6008 62.1955 63.3067Z" fill="#83ABA5"/>
<path d="M29.8009 25.6851C29.8939 25.7327 29.9868 25.7802 30.0826 25.8292C29.8889 26.0455 29.8889 26.0455 29.6601 26.2617C29.5671 26.2617 29.4741 26.2617 29.3784 26.2617C29.3319 26.452 29.2854 26.6422 29.2375 26.8383C29.191 26.6956 29.1446 26.5529 29.0967 26.4058C29.3291 26.168 29.5615 25.9301 29.8009 25.6851Z" fill="#5F443D"/>
</svg>
