<svg width="80" height="80" viewBox="0 0 80 80" fill="none" xmlns="http://www.w3.org/2000/svg">
<path d="M0 40C0 17.9006 17.9006 0 40 0C62.0994 0 80 17.9006 80 40C80 62.0994 62.0994 80 40 80C17.9006 80 0 62.0994 0 40Z" fill="white"/>
<path d="M47.1782 8.68171C48.4752 9.7116 49.6597 11.1279 49.9285 12.8563C50.0456 14.7293 49.909 16.2474 48.7676 17.7926C48.6287 18.0458 48.6287 18.0458 48.7462 18.3202C48.9853 18.6877 49.2518 19.0162 49.5324 19.3518C51.811 22.1755 53.3714 25.7151 53.3528 29.4148C53.3531 29.5562 53.3535 29.6976 53.3538 29.8433C53.3426 30.9856 53.2085 32.0886 52.9747 33.2056C52.9123 33.5462 52.8667 33.8435 52.8862 34.1896C53.1894 34.6635 53.1894 34.6635 53.5905 35.0545C54.3032 36.2174 54.1758 37.7484 53.8991 39.0494C53.389 40.5686 52.4507 41.7057 51.0476 42.4289C50.4977 42.6719 50.0745 42.7097 49.4796 42.7031C49.3265 42.7018 49.1734 42.7005 49.0158 42.6992C48.8987 42.6975 48.7815 42.6958 48.6609 42.6941C48.6451 42.7801 48.6293 42.8662 48.613 42.9548C48.4084 43.876 48.0738 44.6812 47.6486 45.5139C47.5993 45.6124 47.55 45.7108 47.4992 45.8123C47.2588 46.2696 47.0328 46.6635 46.6806 47.0415C45.83 47.9576 45.7023 48.7396 45.7243 49.9559C45.7281 50.0626 45.7319 50.1693 45.7358 50.2792C45.7471 50.6026 45.7502 50.9252 45.7518 51.2487C45.7681 52.485 45.9037 53.6139 46.2665 54.8022C46.0806 54.8973 45.8947 54.9925 45.7031 55.0905C44.7921 54.1157 44.9421 52.4418 44.9109 51.1896C44.9054 51.0098 44.9 50.83 44.8944 50.6448C44.8812 50.2048 44.8691 49.7648 44.8581 49.3247C44.7123 49.4564 44.7123 49.4564 44.5636 49.5907C42.4352 51.4897 39.9234 52.5255 37.0764 52.5229C36.9714 52.523 36.8663 52.5231 36.7581 52.5232C35.9568 52.5154 35.2122 52.4134 34.4355 52.2076C34.4319 52.3748 34.4283 52.5421 34.4245 52.7144C34.325 55.8722 34.325 55.8722 33.4304 56.8664C33.3438 56.9463 33.2572 57.0262 33.1679 57.1085C33.075 57.0609 32.982 57.0134 32.8862 56.9644C32.9719 56.4857 33.0888 56.0386 33.2411 55.5781C33.4781 54.7833 33.5266 54.0255 33.5465 53.1986C33.5513 53.0607 33.5561 52.9229 33.561 52.7808C33.5725 52.4456 33.5823 52.1105 33.5905 51.7752C33.4719 51.7633 33.3534 51.7514 33.2312 51.7391C32.6609 51.6122 32.2227 51.3655 31.7331 51.0545C31.6408 50.9965 31.5486 50.9385 31.4536 50.8787C28.698 49.1108 26.9562 46.6113 26.1257 43.4148C26.0522 43.0238 26.0086 42.6595 25.9848 42.2617C25.8454 42.2557 25.706 42.2498 25.5623 42.2436C24.7207 42.1131 24.1256 41.6025 23.6279 40.9154C22.7631 39.4936 22.3009 38.036 22.4637 36.3518C22.6696 35.6049 22.949 34.9241 23.4496 34.3337C23.5426 34.3337 23.6355 34.3337 23.7313 34.3337C23.7025 34.2222 23.6736 34.1108 23.6438 33.9959C23.5869 33.7707 23.5869 33.7707 23.5289 33.5409C23.4725 33.3202 23.4725 33.3202 23.415 33.095C22.7553 30.0449 23.1813 26.7856 24.4355 23.9554C24.4906 23.8288 24.5456 23.7023 24.6022 23.5719C25.2964 22.065 26.2842 20.8378 27.3933 19.631C27.4677 19.5439 27.5422 19.4567 27.6189 19.367C29.5391 17.2153 32.6507 15.8482 35.4215 15.4509C35.7987 15.4347 36.1704 15.4442 36.5482 15.4509C36.5034 15.3319 36.4585 15.213 36.4123 15.0905C36.0181 13.7263 36.0829 12.2823 36.7243 11.0184C37.7348 9.15335 39.2133 8.12987 41.1961 7.52292C43.3093 7.08074 45.3966 7.41259 47.1782 8.68171Z" fill="#C17A49"/>
<path d="M45.7032 48.1716C45.7497 48.3143 45.7961 48.457 45.844 48.604C45.9455 48.606 46.047 48.6081 46.1516 48.6102C49.3178 48.7541 53.177 49.3749 55.4655 51.8112C56.5924 53.2062 56.6941 54.6087 56.5834 56.3641C56.5106 57.0105 56.2822 57.5505 55.9849 58.1175C55.9384 58.2602 55.8919 58.4029 55.844 58.5499C55.9684 58.6269 56.0928 58.7038 56.2209 58.7831C59.4869 60.8407 61.3269 63.6874 62.249 67.4498C62.3793 68.0236 62.4882 68.6002 62.587 69.1806C62.6056 69.2888 62.6243 69.397 62.6435 69.5085C62.7325 70.082 62.7319 70.5282 62.6046 71.0905C57.1883 71.0938 51.7719 71.0963 46.3556 71.0979C45.7168 71.098 45.0781 71.0982 44.4393 71.0984C44.2486 71.0985 44.2486 71.0985 44.054 71.0985C41.9921 71.0991 39.9302 71.1003 37.8682 71.1016C35.7542 71.103 33.6401 71.1038 31.526 71.1041C30.2204 71.1043 28.9148 71.1049 27.6093 71.106C26.7152 71.1068 25.8212 71.107 24.9272 71.1069C24.4106 71.1068 23.894 71.1069 23.3774 71.1077C22.8186 71.1085 22.2599 71.1082 21.7011 71.1078C21.4535 71.1084 21.4535 71.1085 21.2008 71.1091C20.9782 71.1087 20.9782 71.1087 20.751 71.1082C20.5573 71.1083 20.5573 71.1083 20.3596 71.1084C20.0694 71.0905 20.0694 71.0905 19.9285 70.9463C19.8429 67.7661 21.1678 63.6841 23.2847 61.3734C24.2344 60.3791 25.2188 59.6508 26.4074 58.9824C26.5468 58.8872 26.6863 58.7921 26.8299 58.6941C26.8067 58.5484 26.7835 58.4027 26.7595 58.2527C26.5512 56.4878 26.5074 54.761 27.5342 53.2617C28.509 52.0704 29.9277 51.4197 31.3282 50.9013C31.9243 50.9138 32.3318 51.1635 32.8483 51.4542C33.1758 51.6476 33.1758 51.6476 33.5905 51.7752C33.603 52.2496 33.6104 52.724 33.6169 53.1986C33.6205 53.3309 33.624 53.4632 33.6276 53.5995C33.6402 54.8152 33.357 55.8527 32.8863 56.9644C33.1608 56.9456 33.1608 56.9456 33.4497 56.8202C33.6365 56.5079 33.6365 56.5079 33.7578 56.1265C33.8033 56.0007 33.8489 55.8749 33.8959 55.7453C34.0687 55.2046 34.1721 54.7161 34.1985 54.1468C34.2044 54.0251 34.2103 53.9034 34.2163 53.778C34.2219 53.6522 34.2274 53.5264 34.2331 53.3968C34.2422 53.2048 34.2422 53.2048 34.2515 53.0088C34.2664 52.6937 34.2808 52.3786 34.2947 52.0635C34.389 52.0856 34.4832 52.1078 34.5803 52.1307C37.5294 52.7991 40.4663 52.2208 43.0271 50.622C43.5636 50.2643 44.0714 49.8714 44.5764 49.4689C44.7159 49.3737 44.8553 49.2786 44.999 49.1806C45.0018 49.296 45.0045 49.4115 45.0074 49.5305C45.0209 50.0595 45.0363 50.5885 45.0518 51.1175C45.0583 51.39 45.0583 51.39 45.065 51.6679C45.0851 53.3874 45.0851 53.3874 45.7032 54.9463C45.8426 54.8988 45.9821 54.8512 46.1257 54.8022C46.0955 54.707 46.0653 54.6118 46.0342 54.5138C45.6524 53.1672 45.6541 51.9008 45.6768 50.5139C45.6789 50.2857 45.6808 50.0575 45.6826 49.8292C45.6872 49.2766 45.6944 48.7241 45.7032 48.1716Z" fill="#ADD3DF"/>
<path d="M38.3792 22.3698C38.4721 22.3698 38.5651 22.3698 38.6609 22.3698C38.7023 22.535 38.7023 22.535 38.7445 22.7037C39.3038 24.754 40.2411 26.3961 41.6186 27.9914C41.7243 28.128 41.7243 28.128 41.8321 28.2673C42.6918 29.3746 43.834 30.2028 44.9813 30.9734C45.0637 31.0292 45.1462 31.0851 45.2311 31.1426C45.794 31.5095 46.3319 31.7115 46.9707 31.9193C47.4628 32.1296 47.7369 32.2969 47.9768 32.7922C48.2904 33.6683 48.4927 34.5711 48.6609 35.4869C49.06 35.4869 49.2428 35.2954 49.5676 35.0635C50.2894 34.5487 50.8754 34.3834 51.7595 34.4779C52.4211 34.7253 52.7842 35.028 53.1679 35.631C53.6947 36.8171 53.4838 37.9237 53.0639 39.1102C52.5524 40.2982 51.6808 41.1853 50.5799 41.8112C49.8786 42.0339 49.1691 42.1423 48.4821 41.8264C48.3614 41.7565 48.3614 41.7565 48.2383 41.6851C48.2209 41.7832 48.2035 41.8813 48.1855 41.9824C47.4913 45.3215 45.3553 48.1589 42.6014 50.0136C40.8736 51.1052 39.0982 51.714 37.0676 51.6941C36.8343 51.6925 36.8343 51.6925 36.5962 51.6908C35.4494 51.6671 34.5033 51.5434 33.4496 51.0544C33.3095 50.9933 33.1693 50.9322 33.0249 50.8692C30.3051 49.5881 28.3278 47.4273 27.2572 44.5788C25.7872 40.3836 25.7755 35.9907 25.844 31.595C25.9992 31.5355 26.1544 31.4761 26.3144 31.4148C29.2512 30.2769 32.044 28.9641 34.4355 26.8382C34.5506 26.7362 34.6657 26.6342 34.7843 26.5291C36.8477 24.6771 36.8477 24.6771 38.3792 22.3698Z" fill="#FED0AE"/>
<path d="M55.4461 59.1346C55.5389 59.1972 55.6317 59.2597 55.7274 59.3242C55.8841 59.4293 55.8841 59.4293 56.0441 59.5367C56.2065 59.6503 56.2065 59.6503 56.3722 59.7662C56.5408 59.8835 56.5408 59.8835 56.7129 60.0032C59.7987 62.1969 61.0552 65.416 61.7595 69.0725C61.8989 70.0714 61.8989 70.0714 62.0412 71.0905C55.1623 71.0905 48.2834 71.0905 41.1961 71.0905C41.2426 68.617 41.2891 66.1435 41.337 63.595C41.9712 63.3168 42.51 63.0915 43.1602 62.9075C45.6658 62.1786 48.0914 61.3028 50.5205 60.3416C50.6215 60.3018 50.7225 60.2619 50.8266 60.2208C51.3703 60.0053 51.911 59.7841 52.4497 59.5557C52.5636 59.5082 52.6775 59.4608 52.7948 59.4119C53.0127 59.321 53.2298 59.2284 53.4462 59.1339C54.1867 58.8274 54.6999 58.7637 55.4461 59.1346Z" fill="#ACD3DF"/>
<path d="M27.2525 59.2707C27.675 59.4148 27.675 59.4148 27.9655 59.7932C28.8598 60.9332 30.2849 61.5972 31.5218 62.2707C31.6708 62.3531 31.8198 62.4355 31.9733 62.5204C32.5979 62.8636 33.209 63.1919 33.8722 63.4509C33.8535 63.5503 33.8348 63.6497 33.8155 63.7521C33.7906 63.8876 33.7658 64.023 33.7401 64.1626C33.7034 64.3607 33.7034 64.3607 33.6659 64.5629C33.318 66.7482 33.3758 68.8287 33.3088 71.0905C29.1257 71.0905 24.9426 71.0905 20.6328 71.0905C20.962 68.3945 20.962 68.3945 21.3018 67.1806C21.3388 67.0461 21.3759 66.9116 21.4141 66.773C22.3184 63.5838 23.8505 61.5065 26.5482 59.7031C26.6742 59.6161 26.8002 59.5292 26.9301 59.4396C27.0365 59.3839 27.1429 59.3281 27.2525 59.2707Z" fill="#ADD3DF"/>
<path d="M44.8581 49.1806C44.9046 49.1806 44.9511 49.1806 44.999 49.1806C45.0031 49.3538 45.0031 49.3538 45.0074 49.5305C45.0209 50.0595 45.0363 50.5885 45.0518 51.1175C45.0561 51.2991 45.0605 51.4808 45.065 51.6679C45.1035 52.9252 45.1925 54.0774 45.7032 55.2346C44.6798 56.1243 43.6166 56.944 42.5324 57.7536C41.6131 58.4422 40.7118 59.152 39.8196 59.8769C39.5297 60.1108 39.2374 60.3406 38.9426 60.568C38.8335 60.6523 38.7245 60.7367 38.6121 60.8236C38.5022 60.9042 38.3923 60.9849 38.2791 61.068C38.1309 61.1782 38.1309 61.1782 37.9796 61.2907C37.5832 61.4757 37.38 61.4231 36.9708 61.2887C35.9009 60.4974 35.012 59.4239 34.1539 58.4058C34.0595 58.2964 33.9651 58.1869 33.8678 58.0742C33.7879 57.9755 33.708 57.8768 33.6257 57.7752C33.5567 57.6908 33.4877 57.6065 33.4166 57.5195C33.3088 57.2526 33.3088 57.2526 33.4117 56.9058C33.4707 56.7824 33.5297 56.659 33.5905 56.5319C34.2012 55.0554 34.2624 53.6439 34.2947 52.0635C34.4208 52.0947 34.4208 52.0947 34.5495 52.1265C37.621 52.7991 40.6411 52.1984 43.2702 50.4614C43.8323 50.0724 44.3778 49.6721 44.8581 49.1806Z" fill="#FED0AD"/>
<path d="M45.7031 48.1716C45.7728 48.3856 45.7728 48.3856 45.844 48.604C45.9455 48.606 46.0469 48.6081 46.1515 48.6102C49.3177 48.7541 53.1769 49.3749 55.4654 51.8112C56.5923 53.2062 56.6941 54.6087 56.5833 56.3641C56.5105 57.0105 56.2821 57.5505 55.9848 58.1175C55.9151 58.3316 55.9151 58.3316 55.844 58.5499C55.9683 58.6269 56.0927 58.7038 56.2208 58.7831C59.4869 60.8407 61.3268 63.6874 62.249 67.4498C62.3792 68.0236 62.4881 68.6003 62.5869 69.1806C62.6056 69.2888 62.6242 69.397 62.6435 69.5085C62.7311 70.0733 62.7597 70.5379 62.6045 71.0905C62.3721 71.0429 62.1397 70.9954 61.9003 70.9463C61.878 70.7787 61.8556 70.6111 61.8326 70.4385C61.3962 67.3102 60.6375 64.3712 58.6609 61.8653C58.589 61.772 58.5171 61.6787 58.443 61.5826C57.7944 60.8366 56.9899 60.3083 56.1785 59.7662C56.0044 59.6473 56.0044 59.6473 55.8268 59.5261C55.7144 59.4535 55.6021 59.3809 55.4863 59.3061C55.3858 59.2403 55.2853 59.1744 55.1818 59.1065C54.3976 58.8058 53.5368 59.2864 52.7971 59.5781C52.6799 59.6235 52.5627 59.6689 52.442 59.7157C52.0675 59.8609 51.6934 60.0071 51.3193 60.1536C48.6837 61.1815 46.0425 62.1674 43.344 63.0094C43.16 63.0673 42.9761 63.1252 42.7921 63.1831C42.3542 63.3209 41.916 63.4582 41.4778 63.595C41.4742 63.7657 41.4707 63.9364 41.4671 64.1123C41.4537 64.7525 41.4396 65.3927 41.4253 66.0329C41.4193 66.3087 41.4134 66.5845 41.4077 66.8603C41.347 69.8011 41.347 69.8011 41.1961 71.0905C40.9637 71.0905 40.7313 71.0905 40.4918 71.0905C40.4718 69.6648 40.5004 68.2414 40.5444 66.8165C40.5504 66.6214 40.5562 66.4263 40.5619 66.2312C40.57 65.9525 40.579 65.6738 40.5881 65.3951C40.5959 65.151 40.5959 65.151 40.6038 64.902C40.63 64.5013 40.686 64.1301 40.7735 63.7391C40.4947 63.7391 40.2158 63.7391 39.9285 63.7391C39.9607 63.4663 39.9607 63.4663 40.0693 63.1626C40.3303 63.0187 40.3303 63.0187 40.68 62.9148C40.8129 62.8736 40.9458 62.8324 41.0827 62.79C41.2305 62.7465 41.3783 62.7029 41.5306 62.6581C41.8548 62.557 42.1788 62.4555 42.5027 62.3534C42.6783 62.2985 42.8538 62.2436 43.0347 62.187C44.0215 61.8744 44.9988 61.5322 45.976 61.1896C46.0789 61.1536 46.1819 61.1175 46.2879 61.0804C48.832 60.1875 51.3396 59.1976 53.8426 58.1912C54.0081 58.1251 54.1736 58.059 54.3442 57.9908C54.491 57.9318 54.6378 57.8728 54.7891 57.812C55.1397 57.6851 55.1397 57.6851 55.4214 57.6851C55.8963 56.1966 55.9133 54.5623 55.3053 53.1147C54.6149 51.7367 53.3133 51.0795 51.9152 50.6053C51.4436 50.4555 50.9686 50.3209 50.4918 50.1896C50.2707 50.1252 50.2707 50.1252 50.0451 50.0595C48.6236 49.6807 47.1627 49.5888 45.7031 49.4689C45.7031 49.0408 45.7031 48.6127 45.7031 48.1716Z" fill="#77A3B5"/>
<path d="M25.7032 32.3157C25.7496 32.3157 25.7961 32.3157 25.844 32.3157C25.8461 32.4358 25.8481 32.5559 25.8502 32.6797C25.9798 41.2204 25.9798 41.2204 29.8465 48.5438C31.3228 49.9586 33.1018 50.8262 34.9989 51.4869C34.9525 51.6772 34.906 51.8674 34.8581 52.0635C34.9975 52.111 35.137 52.1586 35.2806 52.2076C35.0018 52.2076 34.7229 52.2076 34.4356 52.2076C34.4319 52.3748 34.4283 52.5421 34.4246 52.7144C34.325 55.8722 34.325 55.8722 33.4304 56.8664C33.3438 56.9463 33.2572 57.0262 33.168 57.1085C33.075 57.0609 32.982 57.0134 32.8863 56.9644C32.9719 56.4857 33.0888 56.0386 33.2411 55.5781C33.4782 54.7833 33.5266 54.0255 33.5465 53.1986C33.5513 53.0607 33.5561 52.9229 33.5611 52.7808C33.5725 52.4456 33.5823 52.1105 33.5905 51.7752C33.4719 51.7633 33.3534 51.7514 33.2312 51.7391C32.6609 51.6122 32.2227 51.3655 31.7331 51.0545C31.6409 50.9965 31.5486 50.9385 31.4536 50.8787C28.698 49.1108 26.9562 46.6113 26.1257 43.4148C26.0523 43.0238 26.0087 42.6595 25.9849 42.2617C25.8454 42.2557 25.706 42.2498 25.5623 42.2436C24.8536 42.1337 24.3701 41.7663 23.8722 41.2526C23.3803 40.5671 22.9024 39.7899 22.7454 38.9463C22.8599 38.631 22.8599 38.631 23.0271 38.3698C23.173 37.9218 23.1695 37.6471 23.1504 37.1806C23.1461 36.3469 23.2268 35.7742 23.777 35.1215C24.1463 34.7654 24.3857 34.6259 24.8933 34.586C25.085 34.6038 25.085 34.6038 25.2806 34.622C25.3736 34.5745 25.4665 34.5269 25.5623 34.4779C25.6063 34.1104 25.6346 33.7566 25.6503 33.3878C25.6558 33.2853 25.6612 33.1828 25.6669 33.0773C25.6802 32.8235 25.6918 32.5696 25.7032 32.3157Z" fill="#C57350"/>
<path d="M32.4637 51.3428C32.4637 51.4379 32.4637 51.533 32.4637 51.631C32.3614 51.6522 32.259 51.6734 32.1535 51.6952C30.4439 52.0855 28.9572 52.6859 27.9567 54.2256C27.4239 55.246 27.3731 56.4573 27.6002 57.5787C28.1755 59.3626 29.6781 60.4015 31.2401 61.2206C31.3766 61.2906 31.5132 61.3607 31.6539 61.4328C31.9396 61.583 32.2254 61.7331 32.5111 61.8833C32.885 62.078 33.2592 62.2722 33.6341 62.4649C33.8962 62.5999 34.1571 62.737 34.418 62.8743C34.557 62.9456 34.6961 63.017 34.8394 63.0905C35.1398 63.3067 35.1398 63.3067 35.2553 63.622C35.2637 63.7083 35.272 63.7945 35.2807 63.8833C34.7525 64.0455 34.7525 64.0455 34.4356 63.8833C34.1515 66.2822 34.0712 68.6771 34.013 71.0905C33.7807 71.0905 33.5483 71.0905 33.3088 71.0905C33.3017 70.45 33.2967 69.8096 33.2933 69.1691C33.2919 68.9521 33.29 68.7352 33.2876 68.5183C33.2684 66.7901 33.2977 65.0988 33.8722 63.4509C33.6946 63.3962 33.5171 63.3416 33.3341 63.2853C32.5337 63.0114 31.8108 62.6233 31.0729 62.2076C30.9368 62.1313 30.8006 62.0549 30.6604 61.9762C29.4723 61.2954 28.3305 60.5739 27.5342 59.4148C25.3071 60.267 23.5144 62.0162 22.4638 64.1716C21.5189 66.2938 20.9878 68.6294 20.7736 70.9464C20.5404 71.0014 20.3054 71.0493 20.0694 71.0905C19.9285 70.9464 19.9285 70.9464 19.9208 70.6603C20.1652 66.811 21.4764 62.9648 24.3139 60.3591C24.9588 59.8099 25.6739 59.3949 26.4074 58.9824C26.5468 58.8873 26.6863 58.7921 26.8299 58.6941C26.8067 58.5484 26.7835 58.4028 26.7595 58.2527C26.5512 56.4879 26.5074 54.7611 27.5342 53.2617C28.4945 52.0881 29.9036 51.4153 31.293 50.9193C31.7619 50.9064 32.0653 51.1056 32.4637 51.3428Z" fill="#77A3B5"/>
<path d="M38.52 21.0725C38.7605 21.5368 38.9351 22.0111 39.1098 22.5049C39.7795 24.2848 40.6898 25.7478 41.8718 27.2049C42.0086 27.3745 42.1418 27.5471 42.2739 27.7206C43.4827 29.2733 45.2223 30.3369 46.9091 31.2617C47.0089 31.3166 47.1087 31.3715 47.2115 31.4281C47.8676 31.781 48.5255 32.0623 49.2243 32.3157C49.2243 32.4584 49.2243 32.6011 49.2243 32.7482C48.4472 32.7964 47.8709 32.6536 47.1732 32.3247C47.0755 32.2794 46.9777 32.2341 46.877 32.1875C44.4621 31.0333 42.3605 29.3203 40.7736 27.1265C40.6873 27.0132 40.6011 26.8998 40.5122 26.7831C40.0057 26.0895 39.6074 25.3642 39.2419 24.586C39.1998 24.4982 39.1578 24.4103 39.1144 24.3198C38.8178 23.661 38.7209 23.0833 38.6609 22.3698C38.5679 22.3698 38.475 22.3698 38.3792 22.3698C38.342 22.4757 38.3048 22.5816 38.2664 22.6907C36.6782 26.4499 31.7358 29.3532 28.2177 30.8157C27.8034 30.9832 27.3873 31.1454 26.9707 31.3067C26.8433 31.3621 26.7158 31.4175 26.5845 31.4745C26.2665 31.595 26.2665 31.595 25.844 31.595C25.7975 32.8318 25.751 34.0685 25.7031 35.3427C25.6567 35.3427 25.6102 35.3427 25.5623 35.3427C25.5158 35.866 25.4693 36.3892 25.4215 36.9283C25.375 36.9283 25.3285 36.9283 25.2806 36.9283C25.2806 36.1673 25.2806 35.4062 25.2806 34.622C24.6531 34.6934 24.6531 34.6934 24.013 34.7662C24.402 34.368 24.7464 34.3945 25.2806 34.3337C25.2799 34.2538 25.2791 34.1739 25.2784 34.0915C25.2754 33.7278 25.2736 33.3641 25.2718 33.0004C25.2706 32.8746 25.2694 32.7488 25.2682 32.6192C25.2678 32.4975 25.2673 32.3758 25.2669 32.2504C25.2661 32.1387 25.2654 32.027 25.2646 31.9119C25.2812 31.5823 25.2993 31.3249 25.4215 31.0184C25.6665 30.87 25.6665 30.87 25.9881 30.7605C26.1671 30.6964 26.1671 30.6964 26.3497 30.631C26.4791 30.5864 26.6085 30.5418 26.7419 30.4959C28.7253 29.7693 30.6096 28.8212 32.3229 27.559C32.4659 27.4627 32.609 27.3665 32.7564 27.2673C34.9378 25.7785 36.6209 23.8481 38.0975 21.6491C38.2372 21.456 38.3774 21.2633 38.52 21.0725Z" fill="#A35B31"/>
<path d="M50.7736 41.5409C51.0748 41.8492 51.1153 41.9925 51.1961 42.4058C50.3681 42.7824 49.5472 42.7205 48.6609 42.6941C48.6451 42.7801 48.6293 42.8662 48.613 42.9548C48.4084 43.876 48.0738 44.6812 47.6486 45.5139C47.5993 45.6124 47.55 45.7108 47.4992 45.8123C47.2588 46.2696 47.0328 46.6635 46.6806 47.0415C45.8299 47.9576 45.7023 48.7396 45.7243 49.9559C45.7281 50.0626 45.7319 50.1693 45.7358 50.2792C45.7471 50.6026 45.7502 50.9251 45.7518 51.2487C45.7681 52.485 45.9037 53.6139 46.2665 54.8022C45.9876 54.9449 45.9876 54.9449 45.7031 55.0905C44.7921 54.1157 44.9421 52.4418 44.9109 51.1896C44.9054 51.0098 44.9 50.83 44.8944 50.6448C44.8812 50.2048 44.8691 49.7648 44.8581 49.3247C44.7609 49.4125 44.6637 49.5002 44.5636 49.5907C42.4228 51.5007 39.9005 52.5293 37.0412 52.5139C36.8862 52.5147 36.8862 52.5147 36.7281 52.5156C36.1363 52.5145 35.5818 52.4707 34.9989 52.3517C34.8405 51.8112 34.8405 51.8112 34.9989 51.4869C35.1551 51.4925 35.1551 51.4925 35.3145 51.4983C38.194 51.6108 38.194 51.6108 40.9144 50.7662C41.0675 50.6946 41.2205 50.6231 41.3782 50.5494C44.7622 48.8322 46.8014 46.0432 47.9953 42.4465C48.0775 42.1931 48.1581 41.9391 48.2383 41.6851C48.3184 41.7083 48.3985 41.7315 48.481 41.7555C49.2627 41.9352 50.0538 41.9211 50.7736 41.5409Z" fill="#C67653"/>
<path d="M49.506 52.64C49.4002 53.614 48.296 54.2672 47.6024 54.8427C46.8952 55.4142 46.165 55.9546 45.438 56.4992C44.3876 57.2861 43.3554 58.0952 42.3287 58.9142C38.3848 62.0565 38.3848 62.0565 37.4461 62.2166C36.0024 62.0251 34.7197 60.2655 33.8546 59.1434C31.4506 55.939 31.4506 55.939 31.4778 54.658C31.6173 54.7056 31.7567 54.7532 31.9004 54.8022C32.0066 55.048 32.1118 55.2946 32.2063 55.5454C32.372 55.923 32.6338 56.2111 32.8863 56.5319C32.8863 56.6746 32.8863 56.8173 32.8863 56.9644C32.9678 56.9978 33.0493 57.0312 33.1333 57.0657C33.5283 57.2991 33.7258 57.5676 34.0042 57.9373C34.5368 58.6206 35.0897 59.276 35.668 59.9193C35.7826 60.0488 35.7826 60.0488 35.8996 60.181C36.3106 60.6349 36.6891 61.0367 37.2525 61.2887C38.4359 61.2472 40.0453 59.5456 40.9469 58.8275C41.9841 58.0015 43.0326 57.1905 44.0792 56.3769C44.3991 56.1279 44.7184 55.8779 45.0375 55.6276C46.0312 54.852 47.0423 54.11 48.0799 53.3968C48.2447 53.283 48.2447 53.283 48.4129 53.1669C48.5147 53.0978 48.6165 53.0288 48.7214 52.9576C48.8118 52.8961 48.9022 52.8347 48.9954 52.7714C49.2243 52.64 49.2243 52.64 49.506 52.64Z" fill="#77A2B5"/>
<path d="M25.2806 34.622C25.2827 34.7138 25.2847 34.8056 25.2868 34.9002C25.3422 37.1387 25.5165 39.3268 25.844 41.5409C25.0234 41.4245 24.6557 41.0378 24.1538 40.3878C23.3638 39.0614 22.8945 37.6075 23.2334 36.0511C23.5997 35.0351 24.2365 34.5728 25.2806 34.622Z" fill="#FDD2B0"/>
<path d="M46.9619 17.0184C47.1143 17.1251 47.2666 17.2317 47.4235 17.3416C47.8819 17.6599 47.8819 17.6599 48.3792 17.9013C48.5186 17.8299 48.5186 17.8299 48.6609 17.7571C48.6754 17.8671 48.6899 17.9771 48.7049 18.0905C48.8079 18.5024 48.9101 18.6447 49.2242 18.9103C49.1778 19.0054 49.1313 19.1006 49.0834 19.1986C48.4392 19.0696 48.0098 18.8689 47.4813 18.4688C45.7735 17.2023 43.9486 16.373 41.9003 15.8833C41.7627 15.8496 41.6251 15.816 41.4833 15.7813C40.0524 15.4897 38.5657 15.4997 37.1116 15.4508C37.1116 15.3557 37.1116 15.2606 37.1116 15.1625C40.4398 13.9728 44.1143 15.1077 46.9619 17.0184Z" fill="#A55E35"/>
<path d="M52.8862 32.1716C52.9327 32.1716 52.9792 32.1716 53.0271 32.1716C53.0087 32.3072 52.9904 32.4428 52.9715 32.5826C52.8273 33.5532 52.8273 33.5532 53.0188 34.4858C53.2278 34.7288 53.2278 34.7288 53.5905 35.0544C54.3025 36.2187 54.1759 37.7481 53.8991 39.0494C53.4759 40.3097 52.7412 41.3221 51.6759 42.0939C51.3369 42.2617 51.3369 42.2617 50.9144 42.1175C50.9623 41.6943 50.9977 41.4581 51.2907 41.1462C51.3873 41.0713 51.4839 40.9965 51.5834 40.9193C52.6477 40.0152 53.1829 38.8575 53.3489 37.4537C53.3784 36.6926 53.2587 36.0087 52.8862 35.3427C52.2984 34.7561 51.7851 34.563 50.9601 34.5708C50.1024 34.705 49.333 35.2372 48.6609 35.7752C48.6609 35.6325 48.6609 35.4898 48.6609 35.3427C48.7538 35.2952 48.8468 35.2476 48.9426 35.1986C48.9978 35.0618 49.053 34.9251 49.1098 34.7842C49.3745 34.3171 49.5522 34.1586 50.0462 33.9779C50.9873 33.7414 51.6961 33.6735 52.6046 34.0454C52.6975 33.4271 52.7905 32.8087 52.8862 32.1716Z" fill="#C4724E"/>
<path d="M40.1221 44.1716C40.1977 44.2072 40.2732 44.2429 40.351 44.2797C40.3057 44.7144 40.2739 44.9385 39.9587 45.2448C39.8529 45.3128 39.7471 45.3808 39.638 45.4508C39.483 45.554 39.483 45.554 39.3249 45.6592C38.3799 46.1685 37.5737 46.3744 36.5042 46.3608C36.3872 46.36 36.2701 46.3592 36.1496 46.3584C34.9953 46.3293 33.9138 46.0917 33.0271 45.2887C32.9919 44.9013 32.9919 44.9013 33.0271 44.568C33.5755 44.627 33.9971 44.769 34.4883 45.0094C35.6675 45.507 37.1358 45.5002 38.3264 45.0364C38.7174 44.8491 39.0664 44.6343 39.4179 44.3788C39.7876 44.1355 39.7876 44.1355 40.1221 44.1716Z" fill="#C57654"/>
<path d="M42.4637 34.9103C42.8686 35.1445 42.8686 35.1445 43.1679 35.631C43.2984 36.5337 43.3527 37.3488 42.8686 38.1355C42.3915 38.4115 42.1571 38.4753 41.6186 38.3698C41.2175 38.048 41.0764 37.8581 40.9144 37.3608C40.8579 36.6421 40.8215 35.9913 41.108 35.3247C41.5129 34.8466 41.8635 34.8381 42.4637 34.9103Z" fill="#624230"/>
<path d="M31.4778 35.0544C32.0962 35.7045 32.223 36.1582 32.2133 37.0353C32.1708 37.4764 32.032 37.7405 31.7595 38.0815C31.2992 38.3955 31.1666 38.4738 30.6327 38.3698C30.1605 37.9725 29.9644 37.74 29.8696 37.1198C29.8491 36.3805 29.8572 35.7816 30.351 35.1986C30.7559 34.9914 31.0297 34.9994 31.4778 35.0544Z" fill="#61412F"/>
<path d="M35.7032 36.0635C35.8426 36.0635 35.982 36.0635 36.1257 36.0635C36.0551 37.1951 35.6429 38.0475 35.161 39.055C34.7343 39.9656 34.7343 39.9656 34.7172 40.9644C34.957 41.3426 35.1357 41.5073 35.5689 41.6079C35.8472 41.6448 36.1274 41.666 36.4074 41.6851C36.4612 41.9238 36.5079 42.1643 36.5482 42.4058C36.4074 42.5499 36.4074 42.5499 35.8968 42.595C35.2155 42.585 34.8446 42.3817 34.2947 41.9734C33.823 41.4439 33.8073 40.9234 33.8147 40.2359C33.9282 39.3968 34.3337 38.6741 34.7084 37.9283C34.8276 37.6821 34.8276 37.6821 34.9491 37.4309C35.5278 36.243 35.5278 36.243 35.7032 36.0635Z" fill="#C67552"/>
<path d="M42.05 31.0815C42.155 31.0817 42.2601 31.082 42.3683 31.0822C43.344 31.1143 44.2405 31.3696 44.9989 32.0274C45.1134 32.4176 45.1134 32.4176 45.1398 32.7481C44.7721 32.8893 44.5266 32.9295 44.1577 32.7786C43.9652 32.6762 43.7743 32.5704 43.5855 32.461C43.1186 32.2159 42.6875 32.1535 42.1666 32.1575C42.0073 32.1582 42.0073 32.1582 41.8448 32.1589C41.7353 32.1601 41.6258 32.1613 41.513 32.1626C41.4014 32.1632 41.2897 32.1639 41.1747 32.1645C40.9001 32.1662 40.6256 32.1688 40.3511 32.1716C40.3046 31.9813 40.2581 31.791 40.2102 31.595C40.8042 31.1489 41.3324 31.0791 42.05 31.0815Z" fill="#BA7146"/>
<path d="M30.9056 31.1265C31.1646 31.1209 31.1646 31.1209 31.4288 31.1152C31.9231 31.1648 32.11 31.2502 32.4637 31.595C32.4172 31.8328 32.3707 32.0707 32.3228 32.3157C32.1834 32.2919 32.044 32.2681 31.9003 32.2436C30.7582 32.089 30.1336 32.143 29.1252 32.7346C28.8017 32.8923 28.8017 32.8923 28.2383 32.8923C28.2383 32.586 28.2383 32.586 28.3792 32.1716C29.174 31.4092 29.8149 31.1406 30.9056 31.1265Z" fill="#B56D41"/>
<path d="M52.8862 32.1716C52.9327 32.1716 52.9792 32.1716 53.0271 32.1716C53.0104 32.3105 52.9937 32.4495 52.9765 32.5927C52.9583 32.7748 52.9402 32.9569 52.9215 33.1445C52.9018 33.3251 52.8822 33.5058 52.862 33.6918C52.8389 34.2007 52.8389 34.2007 53.1657 34.5432C53.2594 34.6168 53.3531 34.6903 53.4496 34.7662C53.4031 34.8613 53.3567 34.9564 53.3088 35.0544C53.0764 34.8642 52.844 34.6739 52.6046 34.4779C52.744 34.6681 52.8834 34.8584 53.0271 35.0544C52.9806 35.1496 52.9341 35.2447 52.8862 35.3427C52.7788 35.2506 52.6713 35.1584 52.5605 35.0635C52.0418 34.656 51.6116 34.5646 50.9601 34.5708C50.1024 34.705 49.333 35.2372 48.6609 35.7752C48.6609 35.6325 48.6609 35.4898 48.6609 35.3427C48.7538 35.2952 48.8468 35.2476 48.9426 35.1986C48.9978 35.0618 49.053 34.9251 49.1098 34.7842C49.3745 34.3171 49.5522 34.1586 50.0462 33.9779C50.9873 33.7414 51.6961 33.6735 52.6046 34.0454C52.6975 33.4271 52.7905 32.8087 52.8862 32.1716Z" fill="#B7693B"/>
<path d="M44.2947 29.7211C44.441 29.8103 44.441 29.8103 44.5902 29.9013C46.8269 31.2818 46.8269 31.2818 49.2243 32.3157C49.2243 32.4584 49.2243 32.6011 49.2243 32.7481C48.4084 32.8025 47.8501 32.6444 47.1116 32.2977C47.0124 32.2522 46.9131 32.2067 46.8108 32.1599C46.0984 31.8216 45.5574 31.4458 44.999 30.8743C44.8886 30.7999 44.7782 30.7256 44.6645 30.649C44.3564 30.3702 44.3603 30.1269 44.2947 29.7211Z" fill="#AA6136"/>
<path d="M25.7031 66.4779C25.7961 66.5254 25.8891 66.573 25.9848 66.622C26.0141 67.5428 25.9018 68.4311 25.7824 69.3427C25.7634 69.4951 25.7444 69.6475 25.7249 69.8045C25.5802 70.928 25.5802 70.928 25.4214 71.0905C25.1868 71.0964 24.9519 71.0967 24.7172 71.0905C24.874 67.4497 24.874 67.4497 25.7031 66.4779Z" fill="#7AA5B6"/>
<path d="M52.8862 66.7662C53.0257 66.7662 53.1651 66.7662 53.3088 66.7662C53.3346 67.7004 53.2355 68.5822 53.0975 69.5049C53.0773 69.6441 53.0572 69.7832 53.0364 69.9266C52.9871 70.2667 52.937 70.6065 52.8862 70.9463C52.6538 70.9939 52.4214 71.0415 52.182 71.0905C52.1056 69.6969 52.1891 68.0038 52.8862 66.7662Z" fill="#79A4B5"/>
<path d="M26.4074 31.0184C26.3609 31.2087 26.3144 31.399 26.2665 31.595C26.1271 31.595 25.9876 31.595 25.844 31.595C25.7975 32.8317 25.751 34.0685 25.7031 35.3427C25.6567 35.3427 25.6102 35.3427 25.5623 35.3427C25.5158 35.866 25.4693 36.3892 25.4215 36.9283C25.375 36.9283 25.3285 36.9283 25.2806 36.9283C25.2806 36.1672 25.2806 35.4062 25.2806 34.622C24.8623 34.6696 24.444 34.7172 24.013 34.7662C24.402 34.368 24.7464 34.3945 25.2806 34.3337C25.2799 34.2538 25.2791 34.1738 25.2784 34.0915C25.2754 33.7278 25.2736 33.3641 25.2718 33.0004C25.2706 32.8746 25.2694 32.7488 25.2682 32.6192C25.2678 32.4975 25.2673 32.3758 25.2669 32.2504C25.2661 32.1387 25.2654 32.027 25.2646 31.9119C25.2808 31.5912 25.3183 31.3218 25.4215 31.0184C25.797 30.8262 26.0083 30.9217 26.4074 31.0184Z" fill="#A75D33"/>
<path d="M34.2946 40.2437C34.3266 40.3239 34.3585 40.4042 34.3915 40.4869C34.6402 40.9354 34.8862 41.2164 35.2806 41.5409C35.6655 41.6418 36.007 41.6643 36.4073 41.6851C36.4611 41.9238 36.5079 42.1643 36.5482 42.4058C36.4073 42.55 36.4073 42.55 35.8968 42.595C35.2155 42.585 34.8445 42.3817 34.2946 41.9734C33.9701 41.5686 33.8628 41.3889 33.8985 40.8653C34.0129 40.5319 34.0129 40.5319 34.2946 40.2437Z" fill="#CB7D5A"/>
<path d="M45.7032 48.1716C45.7497 48.3143 45.7961 48.457 45.844 48.604C46.0428 48.6171 46.0428 48.6171 46.2457 48.6305C46.421 48.6425 46.5964 48.6546 46.7771 48.6671C46.9503 48.6788 47.1235 48.6905 47.302 48.7025C48.2337 48.7852 48.2337 48.7852 48.6609 48.8923C48.8004 49.1063 48.8004 49.1063 48.9426 49.3247C48.208 49.6394 47.6213 49.6261 46.8476 49.559C46.7372 49.5508 46.6268 49.5426 46.513 49.5342C46.243 49.514 45.9731 49.4916 45.7032 49.4689C45.7032 49.0408 45.7032 48.6127 45.7032 48.1716Z" fill="#7DA8BA"/>
<path d="M34.013 53.5049C34.0595 53.5049 34.1059 53.5049 34.1538 53.5049C34.2198 54.7015 34.2138 55.7684 33.5905 56.8202C33.451 56.9153 33.3116 57.0105 33.1679 57.1085C33.075 57.0609 32.982 57.0134 32.8862 56.9644C33.0046 56.3178 33.1601 55.6828 33.3176 55.0454C33.3438 54.9387 33.37 54.8319 33.3971 54.722C33.4614 54.4604 33.5259 54.1988 33.5905 53.9373C33.7299 54.1514 33.7299 54.1514 33.8721 54.3698C33.9186 54.0844 33.9651 53.799 34.013 53.5049Z" fill="#BF6B47"/>
<path d="M25.7032 32.3157C25.7497 32.3157 25.7961 32.3157 25.844 32.3157C25.8905 34.0757 25.937 35.8357 25.9849 37.649C25.7757 37.7204 25.7757 37.7204 25.5623 37.7932C25.4694 37.9359 25.3764 38.0786 25.2806 38.2256C25.3271 36.9889 25.3736 35.7521 25.4215 34.4779C25.468 34.4779 25.5144 34.4779 25.5623 34.4779C25.6088 33.7644 25.6553 33.0508 25.7032 32.3157Z" fill="#CA7D57"/>
<path d="M52.6046 34.4779C53.1639 34.7232 53.5431 35.0619 53.8876 35.5759C54.072 36.0807 54.0425 36.5777 54.0306 37.1085C54.0293 37.2159 54.0281 37.3233 54.0268 37.434C54.0235 37.6979 54.0184 37.9618 54.013 38.2256C53.9665 38.2256 53.92 38.2256 53.8722 38.2256C53.8722 37.6548 53.8722 37.084 53.8722 36.4959C53.7792 36.4959 53.6862 36.4959 53.5905 36.4959C53.5937 36.6053 53.597 36.7148 53.6004 36.8275C53.6029 36.9708 53.6055 37.1141 53.6081 37.2617C53.6113 37.4038 53.6146 37.546 53.618 37.6924C53.5905 38.0815 53.5905 38.0815 53.3088 38.5139C53.3137 38.385 53.3186 38.256 53.3236 38.1232C53.3533 36.7685 53.2172 35.6828 52.6046 34.4779Z" fill="#BD663F"/>
<path d="M45.7031 47.8833C45.8957 48.2774 45.8329 48.5496 45.7961 48.988C45.7829 49.1497 45.7698 49.3113 45.7562 49.4779C45.7416 49.6473 45.727 49.8168 45.7119 49.9914C45.6979 50.162 45.6838 50.3325 45.6693 50.5083C45.6343 50.9306 45.5986 51.3529 45.5623 51.7752C45.4693 51.5849 45.3764 51.3946 45.2806 51.1986C45.2341 51.5316 45.1876 51.8645 45.1397 52.2076C45.0933 52.2076 45.0468 52.2076 44.9989 52.2076C44.9867 51.6611 44.9791 51.1146 44.9725 50.568C44.9689 50.4123 44.9654 50.2565 44.9618 50.0961C44.9604 49.9475 44.959 49.7988 44.9576 49.6457C44.9543 49.4396 44.9543 49.4396 44.9509 49.2294C44.9668 49.1181 44.9826 49.0069 44.9989 48.8923C45.1383 48.7972 45.2778 48.702 45.4214 48.604C45.5911 48.2362 45.5911 48.2362 45.7031 47.8833Z" fill="#C56B44"/>
<path d="M32.4637 51.3427C32.4637 51.4379 32.4637 51.533 32.4637 51.631C31.5263 51.8853 30.613 52.1125 29.6468 52.2076C29.6003 52.1125 29.5538 52.0173 29.5059 51.9193C29.7489 51.7786 29.9919 51.6378 30.2349 51.497C30.4665 51.358 30.691 51.2069 30.9144 51.0545C31.5583 50.8229 31.8882 51.0003 32.4637 51.3427Z" fill="#7CA5B6"/>
<path d="M33.8722 66.1896C33.9187 66.1896 33.9652 66.1896 34.0131 66.1896C34.0131 67.8069 34.0131 69.4242 34.0131 71.0905C33.7807 71.0905 33.5483 71.0905 33.3088 71.0905C33.3088 69.8537 33.3088 68.617 33.3088 67.3427C33.3553 67.3427 33.4018 67.3427 33.4497 67.3427C33.4497 68.4844 33.4497 69.626 33.4497 70.8022C33.5426 70.8022 33.6356 70.8022 33.7314 70.8022C33.7297 70.6745 33.7281 70.5469 33.7264 70.4154C33.7164 69.0011 33.7777 67.6003 33.8722 66.1896Z" fill="#729FB1"/>
<path d="M47.9567 44.1355C48.0975 44.568 48.0975 44.568 47.8895 45.0528C47.7902 45.2433 47.6892 45.4331 47.5869 45.622C47.5385 45.7159 47.49 45.8099 47.44 45.9066C47.1072 46.5345 46.7286 47.0598 46.2665 47.595C46.1736 47.4523 46.0806 47.3096 45.9848 47.1626C45.706 47.3053 45.706 47.3053 45.4214 47.4508C45.4792 47.3726 45.5369 47.2944 45.5964 47.2138C45.6723 47.1107 45.7482 47.0075 45.8264 46.9013C45.9015 46.7993 45.9767 46.6973 46.0542 46.5922C46.2254 46.3547 46.3882 46.1108 46.5482 45.8653C46.7341 45.8653 46.92 45.8653 47.1116 45.8653C47.3905 45.2944 47.6693 44.7236 47.9567 44.1355Z" fill="#C16D48"/>
<path d="M23.168 35.3427C23.1566 35.7933 23.1407 36.2437 23.124 36.6941C23.1208 36.8223 23.1176 36.9505 23.1143 37.0826C23.1093 37.2052 23.1043 37.3279 23.0992 37.4542C23.0955 37.5674 23.0918 37.6807 23.088 37.7973C23.0271 38.0815 23.0271 38.0815 22.6046 38.3698C22.3094 37.4635 22.3445 36.3532 22.7454 35.4869C23.0271 35.3427 23.0271 35.3427 23.168 35.3427Z" fill="#C97953"/>
<path d="M40.4919 31.3067C41.0025 31.3608 41.0025 31.3608 41.4778 31.4508C41.4313 31.5935 41.3849 31.7363 41.337 31.8833C41.8482 31.8833 42.3595 31.8833 42.8863 31.8833C42.8863 31.9308 42.8863 31.9784 42.8863 32.0274C42.0496 32.075 41.213 32.1226 40.3511 32.1716C40.3046 31.9813 40.2581 31.791 40.2102 31.595C40.3032 31.4999 40.3961 31.4047 40.4919 31.3067Z" fill="#B56A3E"/>
<path d="M34.9989 51.4869C35.9285 51.5345 36.8581 51.582 37.8158 51.631C37.8158 51.6786 37.8158 51.7262 37.8158 51.7752C37.681 51.7858 37.681 51.7858 37.5435 51.7966C37.4271 51.8074 37.3107 51.8181 37.1908 51.8292C37.0168 51.8443 37.0168 51.8443 36.8392 51.8596C36.6952 51.8892 36.6952 51.8892 36.5482 51.9193C36.5017 52.0145 36.4552 52.1096 36.4074 52.2076C36.0855 52.2673 36.0855 52.2673 35.6943 52.2977C35.5649 52.3085 35.4354 52.3193 35.3021 52.3304C35.152 52.341 35.152 52.341 34.9989 52.3518C34.8405 51.8112 34.8405 51.8112 34.9989 51.4869Z" fill="#CF8360"/>
<path d="M53.5905 36.4959C53.6835 36.4959 53.7764 36.4959 53.8722 36.4959C53.9035 36.82 53.9324 37.1444 53.9602 37.4689C53.9766 37.6495 53.9929 37.8301 54.0097 38.0162C54.0129 38.4916 53.997 38.7095 53.7313 39.0905C53.6384 39.1381 53.5454 39.1856 53.4497 39.2346C53.3567 38.9492 53.2637 38.6638 53.168 38.3698C53.2609 38.2746 53.3539 38.1795 53.4497 38.0815C53.5149 37.6977 53.5149 37.6977 53.5377 37.2707C53.5482 37.1261 53.5587 36.9816 53.5696 36.8326C53.5765 36.7215 53.5834 36.6104 53.5905 36.4959Z" fill="#C77A57"/>
<path d="M25.2806 34.0454C25.42 34.0454 25.5595 34.0454 25.7031 34.0454C25.7031 34.4735 25.7031 34.9016 25.7031 35.3427C25.6567 35.3427 25.6102 35.3427 25.5623 35.3427C25.5158 35.866 25.4693 36.3892 25.4215 36.9283C25.375 36.9283 25.3285 36.9283 25.2806 36.9283C25.2806 36.1672 25.2806 35.4062 25.2806 34.622C24.6531 34.6934 24.6531 34.6934 24.013 34.7662C24.402 34.368 24.7464 34.3945 25.2806 34.3337C25.2806 34.2386 25.2806 34.1435 25.2806 34.0454Z" fill="#B6653C"/>
<path d="M56.4074 54.3698C56.4539 54.3698 56.5003 54.3698 56.5482 54.3698C56.5558 54.7482 56.5614 55.1264 56.5658 55.5049C56.5682 55.6125 56.5705 55.7201 56.573 55.8309C56.5755 56.1127 56.5628 56.3946 56.5482 56.6761C56.4553 56.7712 56.3623 56.8663 56.2665 56.9644C56.2201 56.7741 56.1736 56.5838 56.1257 56.3878C56.0327 56.4829 55.9398 56.5781 55.844 56.6761C55.8905 56.2004 55.937 55.7247 55.9848 55.2346C56.1243 55.4487 56.1243 55.4487 56.2665 55.6671C56.313 55.239 56.3595 54.8108 56.4074 54.3698Z" fill="#6899AE"/>
<path d="M53.1679 38.6581C53.3538 38.7532 53.5397 38.8483 53.7313 38.9463C53.6785 39.3698 53.6785 39.3698 53.5904 39.8112C53.451 39.8826 53.451 39.8826 53.3088 39.9553C53.3088 39.8602 53.3088 39.7651 53.3088 39.6671C53.0299 39.8573 52.751 40.0476 52.4637 40.2436C52.6678 39.6972 52.9076 39.1788 53.1679 38.6581Z" fill="#C26E4A"/>
<path d="M61.9003 66.9103C62.4516 67.4745 62.4813 68.3827 62.4813 69.1536C62.4755 69.3171 62.4697 69.4806 62.4637 69.6491C62.4172 69.4588 62.3707 69.2685 62.3228 69.0725C62.1369 69.12 61.951 69.1676 61.7595 69.2166C61.7595 69.0739 61.7595 68.9312 61.7595 68.7842C61.8989 68.7842 62.0383 68.7842 62.182 68.7842C62.1617 68.6972 62.1413 68.6103 62.1204 68.5207C62.0942 68.4055 62.0681 68.2903 62.0412 68.1716C62.015 68.0579 61.9889 67.9441 61.9619 67.827C61.9003 67.4869 61.9003 67.4869 61.9003 66.9103Z" fill="#6D9DB1"/>
<path d="M25.844 38.9463C26.0641 39.1626 26.0641 39.1626 26.2665 39.5229C26.2621 39.9228 26.1966 40.2801 26.1257 40.6761C25.9862 40.6761 25.8468 40.6761 25.7031 40.6761C25.5095 40.1254 25.5988 39.6562 25.7031 39.0905C25.7496 39.0429 25.7961 38.9953 25.844 38.9463Z" fill="#CB7E5B"/>
<path d="M23.168 35.7752C23.3299 36.3647 23.3245 36.9329 23.3176 37.5409C23.317 37.6483 23.3164 37.7557 23.3157 37.8664C23.3141 38.1303 23.3115 38.3942 23.3088 38.6581C23.2159 38.6105 23.1229 38.5629 23.0271 38.5139C22.9342 38.6566 22.8412 38.7993 22.7455 38.9463C22.6574 38.6761 22.6574 38.6761 22.6046 38.3698C22.6976 38.2746 22.7905 38.1795 22.8863 38.0815C22.9466 37.646 22.9466 37.646 22.9655 37.1535C23.014 36.2481 23.014 36.2481 23.168 35.7752Z" fill="#C06A43"/>
<path d="M23.0271 38.3698C23.1665 38.3698 23.306 38.3698 23.4496 38.3698C23.5465 38.7752 23.5465 38.7752 23.5905 39.2346C23.388 39.5049 23.388 39.5049 23.168 39.6671C23.0285 39.5244 22.8891 39.3817 22.7454 39.2346C22.8384 38.9492 22.9313 38.6638 23.0271 38.3698Z" fill="#CA7C58"/>
<path d="M48.6609 41.8292C48.7538 41.9243 48.8468 42.0195 48.9426 42.1175C49.2339 42.2101 49.2339 42.2101 49.5059 42.2616C49.5059 42.3568 49.5059 42.4519 49.5059 42.5499C49.3956 42.5678 49.2852 42.5856 49.1714 42.604C48.7819 42.664 48.7819 42.664 48.52 42.9824C48.4271 42.9824 48.3341 42.9824 48.2383 42.9824C48.2848 42.7445 48.3313 42.5067 48.3792 42.2616C48.4721 42.2616 48.5651 42.2616 48.6609 42.2616C48.6609 42.1189 48.6609 41.9762 48.6609 41.8292Z" fill="#CC7E5A"/>
<path d="M52.6046 34.4779C52.9558 34.6514 53.2639 34.8317 53.5905 35.0545C53.648 35.4454 53.6093 35.8103 53.5905 36.2076C53.4975 36.0649 53.4046 35.9222 53.3088 35.7752C53.1228 35.5162 52.9362 35.2577 52.7487 34.9998C52.6046 34.7662 52.6046 34.7662 52.6046 34.4779Z" fill="#C67751"/>
<path d="M39.506 24.2437C39.6454 24.2912 39.7848 24.3388 39.9285 24.3878C40.0957 24.8292 40.0957 24.8292 40.2102 25.2527C40.0707 25.1575 39.9313 25.0624 39.7876 24.9644C39.8806 25.2498 39.9736 25.5352 40.0693 25.8292C39.7407 25.5235 39.5179 25.2504 39.3651 24.8202C39.4179 24.4959 39.4179 24.4959 39.506 24.2437Z" fill="#A1562C"/>
<path d="M32.3229 50.3337C32.2764 50.5716 32.2299 50.8094 32.182 51.0545C31.9496 51.0069 31.7172 50.9593 31.4778 50.9103C31.4778 50.8152 31.4778 50.72 31.4778 50.622C31.3848 50.5269 31.2919 50.4317 31.1961 50.3337C31.5992 50.1275 31.891 50.2473 32.3229 50.3337Z" fill="#CD7B58"/>
<path d="M25.4214 69.3607C25.4679 69.3607 25.5144 69.3607 25.5623 69.3607C25.5661 69.622 25.5688 69.8833 25.5711 70.1445C25.5727 70.29 25.5744 70.4355 25.576 70.5854C25.5623 70.9463 25.5623 70.9463 25.4214 71.0905C25.1868 71.0963 24.9519 71.0966 24.7172 71.0905C24.7172 70.9953 24.7172 70.9002 24.7172 70.8022C24.9031 70.8022 25.0891 70.8022 25.2806 70.8022C25.3271 70.3265 25.3736 69.8508 25.4214 69.3607Z" fill="#75A2B3"/>
<path d="M38.661 60.5679C38.7539 60.6155 38.8469 60.6631 38.9426 60.7121C38.0871 61.5599 38.0871 61.5599 37.543 61.631C37.4471 61.6132 37.3513 61.5953 37.2525 61.577C37.7082 61.2182 38.181 60.8917 38.661 60.5679Z" fill="#6B9EB6"/>
<path d="M56.2666 56.2437C56.313 56.5766 56.3595 56.9096 56.4074 57.2527C56.2215 57.2527 56.0356 57.2527 55.844 57.2527C55.7976 57.0148 55.7511 56.777 55.7032 56.5319C56.1257 56.2437 56.1257 56.2437 56.2666 56.2437Z" fill="#7EA8BA"/>
<path d="M33.5905 55.0905C33.6834 55.0905 33.7764 55.0905 33.8722 55.0905C33.7489 56.0635 33.7489 56.0635 33.5905 56.3878C33.4975 56.3878 33.4046 56.3878 33.3088 56.3878C33.2912 55.9013 33.2912 55.9013 33.3088 55.3788C33.4018 55.2836 33.4947 55.1885 33.5905 55.0905Z" fill="#C57957"/>
<path d="M61.9003 67.7752C62.182 68.2076 62.182 68.2076 62.182 68.7842C62.0426 68.7842 61.9032 68.7842 61.7595 68.7842C61.713 68.8793 61.6665 68.9744 61.6187 69.0725C61.7116 68.6444 61.8046 68.2162 61.9003 67.7752Z" fill="#7EA9BB"/>
<path d="M27.8159 46.586C27.9553 46.6335 28.0947 46.6811 28.2384 46.7301C28.4056 47.0995 28.4056 47.0995 28.5201 47.4508C28.3806 47.4508 28.2412 47.4508 28.0975 47.4508C27.8159 47.0184 27.8159 47.0184 27.8159 46.586Z" fill="#C97C5B"/>
<path d="M27.1117 44.1355C27.2851 44.4905 27.2626 44.7524 27.2525 45.1445C27.1131 45.2159 27.1131 45.2159 26.9708 45.2887C26.8779 45.1935 26.7849 45.0984 26.6891 45.0004C26.6891 44.8101 26.6891 44.6199 26.6891 44.4238C26.8286 44.3287 26.968 44.2335 27.1117 44.1355Z" fill="#CA7C59"/>
<path d="M33.3088 55.6671C33.4632 56.1413 33.4214 56.3464 33.3088 56.8202C33.1693 56.8202 33.0299 56.8202 32.8862 56.8202C33.1503 55.9914 33.1503 55.9914 33.3088 55.6671Z" fill="#CA6940"/>
<path d="M45.9848 54.2256C46.0778 54.4159 46.1707 54.6062 46.2665 54.8022C45.9876 54.9449 45.9876 54.9449 45.7031 55.0905C45.6102 54.9478 45.5172 54.8051 45.4214 54.6581C45.5609 54.6105 45.7003 54.5629 45.844 54.5139C45.8905 54.4188 45.9369 54.3236 45.9848 54.2256Z" fill="#CB7C59"/>
<path d="M44.1539 49.4689C44.2933 49.5164 44.4328 49.564 44.5764 49.613C44.2511 49.8509 43.9257 50.0887 43.5905 50.3337C43.4976 50.2386 43.4046 50.1435 43.3088 50.0454C43.705 49.7482 43.705 49.7482 44.1539 49.4689Z" fill="#D58863"/>
</svg>
