<svg width="80" height="80" viewBox="0 0 80 80" fill="none" xmlns="http://www.w3.org/2000/svg">
<path d="M0 40C0 17.9006 17.9006 0 40 0C62.0994 0 80 17.9006 80 40C80 62.0994 62.0994 80 40 80C17.9006 80 0 62.0994 0 40Z" fill="white"/>
<path d="M44.3662 9.47233C44.6717 9.68889 44.9627 9.91544 45.2514 10.1548C45.5616 10.389 45.8125 10.4701 46.1972 10.4813C46.3366 10.4338 46.476 10.3862 46.6197 10.3372C48.6384 10.1875 50.37 10.3915 51.9724 11.7876C52.9054 12.7145 53.4567 13.6628 53.8028 14.9498C53.8028 15.0449 53.8028 15.1401 53.8028 15.2381C54.0773 15.2871 54.0773 15.2871 54.3574 15.3372C55.5465 15.6123 56.5927 16.248 57.3239 17.2561C58.1576 18.747 58.9623 20.3131 58.5013 22.068C58.4006 22.342 58.2856 22.6104 58.169 22.8777C58.1225 23.0204 58.076 23.1631 58.0282 23.3102C58.0997 23.3646 58.1712 23.419 58.2449 23.4751C59.1704 24.2325 59.9367 25.2551 60.1408 26.4813C60.2549 28.0911 60.1748 29.5507 59.1197 30.8327C58.9919 30.9665 58.8641 31.1003 58.7324 31.2381C58.7954 31.3117 58.8584 31.3853 58.9233 31.4611C60.0331 32.8269 60.5476 34.1137 60.4814 35.9059C60.3139 37.3897 59.6683 38.5672 58.6091 39.5804C58.0774 39.9505 57.6701 40.0532 57.0422 40.175C57.0539 40.3564 57.0655 40.5377 57.0775 40.7246C57.0716 41.9901 56.6044 43.063 55.7559 43.9723C54.9418 44.7114 54.1861 44.9466 53.1123 44.9509C52.7702 44.9288 52.4472 44.8627 52.1127 44.7876C52.0562 44.8729 51.9997 44.9582 51.9416 45.0461C51.2587 46.0175 50.4796 46.7334 49.2958 46.9498C49.0025 46.9595 48.7089 46.9621 48.4155 46.9588C48.2637 46.9575 48.1119 46.9562 47.9555 46.9549C47.8401 46.9532 47.7246 46.9515 47.6056 46.9498C47.8461 48.69 48.1491 50.1587 49.5323 51.336C50.1621 51.7723 50.8699 52.0512 51.5704 52.346C52.0453 52.5462 52.5172 52.7534 52.9896 52.9594C53.0837 53.0002 53.1777 53.0409 53.2746 53.083C57.0588 54.7257 60.226 56.5507 61.9245 60.5748C62.854 63.0503 63.6715 66.0477 63.3803 68.7156C63.2394 68.8597 63.2394 68.8597 62.9447 68.8776C62.8134 68.8776 62.6821 68.8775 62.5468 68.8775C62.3205 68.8779 62.3205 68.8779 62.0895 68.8783C61.9217 68.8779 61.7539 68.8775 61.581 68.877C61.4043 68.8772 61.2276 68.8773 61.0455 68.8774C60.5528 68.8777 60.0602 68.8772 59.5675 68.8764C59.037 68.8758 58.5066 68.876 57.9761 68.8761C57.0563 68.8762 56.1366 68.8758 55.2168 68.875C53.8869 68.8738 52.557 68.8734 51.2271 68.8732C49.0697 68.8729 46.9123 68.872 44.7549 68.8706C42.6587 68.8693 40.5624 68.8682 38.4661 68.8676C38.337 68.8676 38.2079 68.8676 38.0749 68.8675C37.4271 68.8673 36.7794 68.8671 36.1317 68.867C30.7545 68.8655 25.3772 68.8629 20 68.8597C19.9942 67.593 19.9942 67.593 20.0985 66.9864C20.1202 66.8596 20.142 66.7328 20.1644 66.6021C20.2007 66.4041 20.2007 66.4041 20.2377 66.2021C20.2629 66.0632 20.2882 65.9243 20.3142 65.7812C21.0468 61.8981 22.486 58.2903 25.7306 55.916C27.7742 54.525 30.0063 53.5637 32.2535 52.5714C32.4762 52.4724 32.6988 52.3733 32.9214 52.2741C34.122 51.7418 34.122 51.7418 34.6479 51.5624C34.8102 51.297 34.8102 51.297 34.9296 50.9858C34.9675 50.902 35.0055 50.8182 35.0446 50.7319C35.4692 49.6102 35.4543 48.4259 35.493 47.2381C35.3688 47.1983 35.2446 47.1586 35.1166 47.1176C32.2744 46.1002 30.3018 43.7635 28.9841 41.0892C28.5031 40.057 28.2487 38.9852 28.0282 37.8687C27.9007 37.8565 27.7733 37.8442 27.6419 37.8316C26.864 37.6502 26.4932 37.0813 26.0563 36.4273C25.3685 34.9468 25.06 33.2257 25.4781 31.6187C25.6121 31.2446 25.7536 30.8797 25.9155 30.5174C25.8312 30.4789 25.747 30.4404 25.6602 30.4008C24.6702 29.849 24.1696 28.6993 23.8606 27.6373C23.6112 26.3804 23.8327 25.0377 24.5158 23.9588C24.7887 23.5985 24.7887 23.5985 25.0704 23.3102C25.0439 23.0381 25.0152 22.766 24.9752 22.4957C24.7327 20.6944 24.7114 18.9247 25.7746 17.4003C25.8389 17.3021 25.9032 17.204 25.9694 17.103C26.7903 15.9892 27.9831 15.4548 29.2958 15.2381C29.3165 15.1387 29.3372 15.0393 29.3585 14.9369C29.6954 13.4921 30.3842 12.2629 31.5493 11.3462C33.1439 10.3962 34.6929 10.0508 36.5174 10.434C36.8394 10.5341 37.1528 10.6407 37.4648 10.7696C37.5229 10.6931 37.581 10.6165 37.6408 10.5376C39.2021 8.58316 42.2185 8.24042 44.3662 9.47233Z" fill="#613F2F"/>
<path d="M46.7606 44.4993C46.7675 44.6874 46.7744 44.8754 46.7815 45.0692C46.8431 48.3389 46.8431 48.3389 48.3094 51.1593C48.7868 51.5989 49.2907 51.974 49.8592 52.2831C49.9522 52.0929 50.0451 51.9026 50.1409 51.7066C59.9972 55.9275 59.9972 55.9275 62.033 60.8476C62.6707 62.4901 62.9385 64.244 63.2395 65.9768C63.2687 66.1346 63.298 66.2923 63.3281 66.4549C63.3902 66.9144 63.399 67.3599 63.3979 67.8237C63.3983 67.9881 63.3987 68.1526 63.399 68.322C63.3803 68.7156 63.3803 68.7156 63.2395 68.8597C63.0089 68.8737 62.7778 68.8775 62.5469 68.8774C62.3205 68.8779 62.3205 68.8779 62.0896 68.8783C61.9218 68.8779 61.7539 68.8775 61.581 68.877C61.4043 68.8772 61.2276 68.8773 61.0456 68.8774C60.5529 68.8777 60.0602 68.8772 59.5675 68.8764C59.0371 68.8758 58.5066 68.876 57.9762 68.8761C57.0564 68.8762 56.1366 68.8758 55.2168 68.8749C53.887 68.8738 52.5571 68.8734 51.2272 68.8732C49.0698 68.8729 46.9124 68.8719 44.755 68.8706C42.6587 68.8693 40.5625 68.8682 38.4662 68.8676C38.3371 68.8676 38.208 68.8675 38.0749 68.8675C37.4272 68.8673 36.7795 68.8671 36.1318 68.867C30.7545 68.8655 25.3773 68.8629 20.0001 68.8597C19.9942 67.593 19.9942 67.593 20.0985 66.9864C20.1312 66.7962 20.1312 66.7962 20.1645 66.6021C20.1887 66.4701 20.2128 66.3381 20.2377 66.202C20.263 66.0632 20.2882 65.9243 20.3143 65.7812C21.0469 61.8981 22.4861 58.2903 25.7307 55.916C28.3939 54.1032 31.4272 52.7225 34.5071 51.8507C34.5071 51.9458 34.5071 52.041 34.5071 52.139C35.0792 51.8383 35.3465 51.574 35.6339 50.9858C35.6823 50.8868 35.7308 50.7878 35.7808 50.6857C35.9683 50.1004 35.9809 49.5352 36.0036 48.9228C36.009 48.8023 36.0145 48.6818 36.0201 48.5576C36.0333 48.262 36.045 47.9662 36.0564 47.6705C37.1202 47.7975 37.1202 47.7975 37.4709 47.8929C39.0265 48.2647 40.6375 47.882 42.1127 47.3822C42.2367 47.3423 42.3607 47.3023 42.4885 47.2612C43.9447 46.7336 45.3087 45.7524 46.4289 44.6745C46.6198 44.4993 46.6198 44.4993 46.7606 44.4993Z" fill="#FAB98D"/>
<path d="M37.7465 18.5534C37.8802 18.6812 38.0138 18.8091 38.1515 18.9408C39.3508 19.9918 40.749 20.4834 42.3152 20.4453C42.4182 20.444 42.5213 20.4427 42.6274 20.4414C42.8784 20.438 43.1294 20.4328 43.3804 20.4273C43.3994 20.5059 43.4185 20.5845 43.4381 20.6655C43.7843 21.9064 44.4072 22.8169 45.4754 23.5174C46.127 23.8866 46.7321 24.0541 47.4649 24.175C47.4787 24.2902 47.4925 24.4054 47.5067 24.5241C47.7069 26.0293 47.9426 27.4818 48.9624 28.6418C49.2337 29.0503 49.3183 29.4636 49.4367 29.9408C49.5302 30.2892 49.6241 30.6376 49.7184 30.9858C49.7649 31.159 49.8113 31.3322 49.8592 31.5106C49.9835 31.976 49.9835 31.976 50.2818 32.3912C50.7264 32.1921 51.0024 31.9631 51.3293 31.5985C51.8967 31.0067 52.2717 30.8405 53.0811 30.7336C53.6896 30.7501 54.0233 30.9982 54.4493 31.4273C55.0126 32.1171 54.9904 32.9383 54.9737 33.8C54.804 35.5933 53.9606 36.8049 52.6662 37.9487C52.1301 38.3597 51.7648 38.4814 51.0916 38.4633C50.966 38.4607 50.8403 38.4581 50.7109 38.4554C50.6158 38.4521 50.5206 38.4487 50.4226 38.4453C50.3296 38.255 50.2367 38.0648 50.1409 37.8687C50.048 37.8687 49.955 37.8687 49.8592 37.8687C49.8331 37.9897 49.8331 37.9897 49.8064 38.1131C49.0376 41.1719 46.607 44.0425 44.0125 45.6514C41.926 46.9014 39.373 47.6893 36.9636 47.0585C33.9759 46.1143 31.6252 44.3852 30.0573 41.5771C29.0838 39.6454 28.5623 37.7861 28.3539 35.6255C28.3364 35.444 28.3189 35.2625 28.3008 35.0754C27.9563 31.2267 28.2513 27.932 29.5775 24.3192C29.6324 24.1649 29.6872 24.0107 29.7437 23.8518C30.1037 22.9751 30.1037 22.9751 30.5679 22.7212C30.7832 22.651 31.0012 22.5887 31.2209 22.5343C32.0468 22.3106 32.6122 21.8328 33.1075 21.139C33.6199 20.4954 34.2145 20.373 34.9711 20.202C36.103 19.9394 36.9504 19.4069 37.7465 18.5534Z" fill="#DD8962"/>
<path d="M46.7606 44.4993C46.7675 44.6874 46.7744 44.8754 46.7815 45.0692C46.8431 48.3389 46.8431 48.3389 48.3094 51.1593C48.7868 51.5989 49.2907 51.974 49.8592 52.2831C48.593 54.6033 45.864 56.1244 43.4519 56.8719C42.2305 57.2083 41.0046 57.2439 39.7448 57.2561C39.5736 57.2588 39.4024 57.2614 39.226 57.2642C37.3289 57.2507 35.7717 56.695 34.3877 55.3445C33.7672 54.6502 33.3803 53.9656 33.3803 53.0038C27.4088 55.503 27.4088 55.503 23.0986 60.2111C23.0278 60.3296 22.957 60.4482 22.8841 60.5703C21.552 63.0011 21.1288 65.9978 20.7043 68.7156C20.4719 68.7631 20.2395 68.8107 20.0001 68.8597C19.9719 67.9442 20.0731 67.1012 20.2377 66.202C20.263 66.0632 20.2882 65.9243 20.3143 65.7812C21.0469 61.8981 22.4861 58.2903 25.7307 55.916C28.3939 54.1032 31.4272 52.7225 34.5071 51.8507C34.5071 51.9458 34.5071 52.041 34.5071 52.139C35.0792 51.8383 35.3465 51.574 35.6339 50.9858C35.6823 50.8868 35.7308 50.7878 35.7808 50.6857C35.9683 50.1004 35.9809 49.5352 36.0036 48.9228C36.009 48.8023 36.0145 48.6818 36.0201 48.5576C36.0333 48.262 36.045 47.9662 36.0564 47.6705C37.1202 47.7975 37.1202 47.7975 37.4709 47.8929C39.0265 48.2647 40.6375 47.882 42.1127 47.3822C42.2367 47.3423 42.3607 47.3023 42.4885 47.2612C43.9447 46.7336 45.3087 45.7524 46.4289 44.6745C46.6198 44.4993 46.6198 44.4993 46.7606 44.4993Z" fill="#E0926A"/>
<path d="M48.1514 15.6165C48.3458 15.7778 48.5395 15.9399 48.7324 16.103C48.8777 16.2189 49.0229 16.3348 49.1726 16.4543C51.8165 18.8661 53.6025 22.4718 54.0845 26.0489C54.0956 26.3817 54.0997 26.7148 54.0983 27.0478C54.0978 27.2336 54.0974 27.4194 54.0969 27.6108C54.0957 27.8049 54.0945 27.999 54.0933 28.193C54.0926 28.3905 54.092 28.5879 54.0914 28.7854C54.0897 29.2666 54.0872 29.7479 54.0845 30.2291C53.4338 30.2766 52.7831 30.3242 52.1127 30.3732C52.0633 30.0789 52.0139 29.7846 51.963 29.4813C51.3741 26.3544 50.1609 23.4584 48.169 21.0039C48.0623 20.8693 47.9555 20.7348 47.8455 20.5962C45.8199 18.1708 42.9457 16.7604 39.8592 16.3912C36.3589 16.1736 33.3833 16.9101 30.6162 19.2111C28.5156 21.2029 27.593 24.213 27.4648 27.0579C27.3718 27.0579 27.2789 27.0579 27.1831 27.0579C26.8535 26.2555 26.8525 25.5081 26.8574 24.6525C26.8581 24.5103 26.8588 24.3681 26.8595 24.2215C26.8751 23.2321 26.9613 22.3612 27.324 21.4363C27.3752 21.2953 27.4264 21.1542 27.4791 21.0089C28.8395 17.4474 31.4276 15.0226 34.7897 13.4832C39.152 11.6348 44.4726 12.7366 48.1514 15.6165Z" fill="#98BFB4"/>
<path d="M27.8873 30.2291C27.8873 30.4193 27.8873 30.6096 27.8873 30.8057C27.9802 30.8057 28.0732 30.8057 28.1689 30.8057C28.176 30.9238 28.1831 31.042 28.1903 31.1637C28.5106 37.7775 28.5106 37.7775 31.5492 43.4903C31.6558 43.6295 31.7624 43.7687 31.8722 43.9121C32.2577 44.3852 32.6947 44.7337 33.1866 45.0849C33.3161 45.1783 33.3161 45.1783 33.4483 45.2736C35.588 46.7793 37.9224 47.3982 40.4841 46.9228C43.8862 46.1651 46.4701 44.0007 48.3364 41.0647C48.954 40.0488 49.4722 38.9992 49.8591 37.8687C49.952 37.8687 50.045 37.8687 50.1408 37.8687C50.2337 38.0114 50.3267 38.1541 50.4225 38.3011C51.1235 38.4612 51.7996 38.3811 52.4207 38.0129C53.6635 37.1007 54.4892 35.7975 54.7887 34.2651C54.8651 33.2604 54.8835 32.4028 54.3661 31.5264C54.0585 31.1755 53.8493 30.9765 53.3857 30.9104C52.9001 30.9011 52.4338 30.9363 51.9718 31.0939C51.9718 30.9512 51.9718 30.8085 51.9718 30.6615C52.1112 30.6139 52.2506 30.5664 52.3943 30.5174C52.3943 30.4222 52.3943 30.3271 52.3943 30.2291C53.8115 30.0333 53.8115 30.0333 54.4377 30.4825C55.3905 31.544 55.5553 32.5289 55.527 33.9385C55.4193 35.4254 54.7674 36.8607 53.7516 37.9312C52.9764 38.6036 52.1106 39.2053 51.0557 39.1463C50.6379 39.1274 50.385 39.1361 49.9999 39.3102C49.6501 39.8124 49.4076 40.3258 49.1582 40.885C48.9053 41.443 48.5691 41.8601 48.1777 42.3282C47.2511 43.6219 47.4262 45.2648 47.4647 46.8057C47.6042 46.8532 47.7436 46.9008 47.8873 46.9498C47.7943 46.9498 47.7013 46.9498 47.6056 46.9498C47.8439 48.6746 48.1146 50.0817 49.4894 51.2471C49.5863 51.3194 49.6833 51.3917 49.7832 51.4661C49.9999 51.7066 49.9999 51.7066 50.0318 52.0956C50.0213 52.2051 50.0108 52.3145 49.9999 52.4273C48.5654 51.6474 47.5426 50.731 47.0422 49.112C46.6836 47.6574 46.6776 46.1353 46.6196 44.6435C46.5527 44.7117 46.4857 44.7799 46.4166 44.8501C44.929 46.2885 43.2215 47.2197 41.2675 47.8147C41.1601 47.85 41.0526 47.8853 40.9418 47.9216C39.3491 48.3724 37.6062 48.1752 36.0563 47.6705C36.0628 47.8428 36.0693 48.015 36.0761 48.1925C36.1469 50.8268 36.1469 50.8268 35.2871 51.7938C34.9221 52.1323 34.5788 52.3689 34.0844 52.4273C34.1309 52.3321 34.1774 52.237 34.2253 52.139C33.9929 52.1866 33.7605 52.2341 33.5211 52.2831C33.7728 51.9848 33.9372 51.8531 34.3045 51.7156C34.7249 51.528 34.7508 51.4045 34.9295 50.9858C34.9675 50.902 35.0054 50.8182 35.0445 50.7319C35.4691 49.6102 35.4542 48.4259 35.4929 47.2381C35.3687 47.1983 35.2445 47.1586 35.1166 47.1176C32.2743 46.1002 30.3017 43.7635 28.9841 41.0892C28.5031 40.057 28.2486 38.9852 28.0281 37.8687C27.9006 37.8565 27.7732 37.8442 27.6419 37.8316C26.864 37.6502 26.4931 37.0812 26.0563 36.4273C25.3041 34.8082 25.0384 32.9414 25.5809 31.2111C25.7857 30.7093 25.8878 30.5389 26.3204 30.202C26.8755 30.0543 27.3603 29.9594 27.8873 30.2291Z" fill="#954925"/>
<path d="M34.3662 51.8507C34.436 51.9934 34.436 51.9934 34.5071 52.139C34.2254 52.4273 34.2254 52.4273 33.9437 52.5714C34.2009 53.8435 34.7158 54.7159 35.7747 55.4543C38.0823 56.6987 41.056 56.7053 43.5426 55.9425C45.7357 55.1745 47.8604 53.8722 49.2958 51.9948C49.5747 52.1375 49.5747 52.1375 49.8592 52.2831C48.593 54.6033 45.864 56.1244 43.4519 56.8719C42.2305 57.2083 41.0046 57.2439 39.7448 57.2561C39.488 57.2601 39.488 57.2601 39.226 57.2642C37.3289 57.2507 35.7717 56.695 34.3877 55.3445C33.7672 54.6502 33.3803 53.9656 33.3803 53.0039C27.4088 55.503 27.4088 55.503 23.0986 60.2111C23.0278 60.3296 22.957 60.4482 22.8841 60.5703C21.552 63.0011 21.1288 65.9978 20.7043 68.7156C20.3557 68.7869 20.3557 68.7869 20.0001 68.8597C19.9719 67.9442 20.0731 67.1012 20.2377 66.2021C20.2756 65.9937 20.2756 65.9937 20.3143 65.7812C21.0469 61.8981 22.4861 58.2903 25.7307 55.916C28.1022 54.3018 30.8018 52.9997 33.5212 52.139C33.6868 52.0825 33.8523 52.026 34.0229 51.9678C34.1362 51.9292 34.2495 51.8905 34.3662 51.8507Z" fill="#E08953"/>
<path d="M27.8873 30.2291C27.8873 30.4193 27.8873 30.6096 27.8873 30.8057C27.9802 30.8057 28.0732 30.8057 28.1689 30.8057C28.176 30.9238 28.1831 31.042 28.1903 31.1637C28.5106 37.7775 28.5106 37.7775 31.5492 43.4903C31.6556 43.6295 31.762 43.7687 31.8716 43.9121C32.259 44.3876 32.7003 44.7335 33.1954 45.0849C33.2812 45.1469 33.367 45.2088 33.4554 45.2726C34.1473 45.7626 34.8622 46.1717 35.6337 46.5174C35.0456 46.718 34.7697 46.4919 34.2253 46.2291C34.3066 46.2915 34.388 46.3539 34.4718 46.4183C34.7652 46.6435 35.0586 46.8687 35.352 47.0939C33.3133 46.768 31.4114 44.9281 30.22 43.2831C29.1075 41.5881 28.4223 39.8647 28.0281 37.8687C27.9006 37.8565 27.7732 37.8442 27.6419 37.8316C26.864 37.6502 26.4931 37.0812 26.0563 36.4273C25.3041 34.8082 25.0384 32.9414 25.5809 31.2111C25.7857 30.7093 25.8878 30.5389 26.3204 30.202C26.8755 30.0543 27.3603 29.9594 27.8873 30.2291Z" fill="#914422"/>
<path d="M50 51.7066C59.6539 55.564 59.6539 55.564 61.9229 60.5816C62.635 62.3026 62.9212 64.146 63.2394 65.9768C63.2836 66.2132 63.2836 66.2132 63.3286 66.4543C63.3904 66.9175 63.3937 67.3654 63.3891 67.8327C63.3878 67.9988 63.3865 68.1649 63.3852 68.3361C63.3836 68.4613 63.382 68.5865 63.3803 68.7156C63.1479 68.7631 62.9155 68.8107 62.6761 68.8597C62.6619 68.7415 62.6478 68.6234 62.6333 68.5016C62.0909 64.0153 61.5289 59.4694 57.7993 56.4813C55.4156 54.7997 52.6694 53.6786 50 52.5714C50 52.286 50 52.0006 50 51.7066Z" fill="#E08952"/>
<path d="M34.3661 51.8507C34.4126 51.9458 34.4591 52.041 34.507 52.139C34.2253 52.4273 34.2253 52.4273 33.9436 52.5714C34.2007 53.8435 34.7156 54.7159 35.7746 55.4543C38.0821 56.6987 41.0559 56.7053 43.5425 55.9425C45.7355 55.1745 47.8603 53.8722 49.2957 51.9948C49.4816 52.09 49.6675 52.1851 49.8591 52.2831C48.5929 54.6033 45.8638 56.1244 43.4517 56.8719C42.2303 57.2083 41.0045 57.2439 39.7446 57.2561C39.5734 57.2588 39.4022 57.2614 39.2258 57.2642C37.3288 57.2507 35.7716 56.695 34.3876 55.3445C33.593 54.4554 33.3288 53.6137 33.3653 52.4188C33.3702 52.3265 33.3751 52.2341 33.3802 52.139C33.5458 52.1078 33.5458 52.1078 33.7147 52.0759C34.0794 52.0124 34.0794 52.0124 34.3661 51.8507Z" fill="#CC774C"/>
<path d="M26.9014 63.0939C26.9943 63.0939 27.0873 63.0939 27.1831 63.0939C27.2005 64.178 27.1535 65.2404 27.051 66.3192C27.0388 66.4572 27.0265 66.5953 27.0139 66.7375C26.9565 67.3626 26.8813 67.9536 26.7605 68.5714C35.4056 68.5714 44.0507 68.5714 52.9577 68.5714C52.9577 67.4774 52.9577 66.3833 52.9577 65.2561C53.0507 64.7329 53.1436 64.2096 53.2394 63.6705C53.3788 63.623 53.5183 63.5754 53.6619 63.5264C53.6619 65.2388 53.6619 66.9512 53.6619 68.7156C53.0393 68.843 52.485 68.8776 51.8571 68.8716C51.7472 68.8711 51.6373 68.8706 51.5241 68.8702C51.1565 68.8684 50.7889 68.8656 50.4212 68.8628C50.1575 68.8614 49.8937 68.86 49.63 68.8586C48.9142 68.8548 48.1984 68.8501 47.4826 68.8452C46.7344 68.8403 45.9863 68.8361 45.2381 68.8319C43.8215 68.8239 42.4049 68.815 40.9883 68.8059C39.3755 68.7956 37.7627 68.7861 36.1499 68.7766C32.8323 68.7572 29.5147 68.7367 26.1971 68.7156C26.1914 68.264 26.188 67.8124 26.185 67.3608C26.1834 67.235 26.1818 67.1091 26.1801 66.9794C26.1741 65.7577 26.3134 64.5642 26.6197 63.3822C26.7126 63.2871 26.8056 63.192 26.9014 63.0939Z" fill="#F8AB77"/>
<path d="M27.6056 30.5174C27.6092 30.637 27.6127 30.7567 27.6163 30.88C27.7003 33.9446 27.7003 33.9446 27.8873 37.0039C27.2877 36.8847 27.1091 36.6568 26.7606 36.139C26.0532 34.914 25.8378 33.4084 26.1367 32.0174C26.3064 31.4541 26.4488 31.0458 26.9014 30.6615C27.3239 30.5174 27.3239 30.5174 27.6056 30.5174Z" fill="#DE8B63"/>
<path d="M32.6761 29.6975C33.233 29.8282 33.4463 30.0691 33.8028 30.5174C34.0779 31.3619 33.9487 32.057 33.6549 32.867C33.5212 33.112 33.5212 33.112 33.0986 33.4003C32.4944 33.4003 32.2122 33.3527 31.7694 32.9228C31.3938 32.2325 31.4328 31.4208 31.5493 30.6615C31.7874 30.1015 32.0823 29.8368 32.6761 29.6975Z" fill="#65402F"/>
<path d="M43.2483 29.8507C43.7445 29.9588 43.9135 30.1154 44.2254 30.5174C44.4226 30.9211 44.3954 31.2653 44.4014 31.7156C44.4051 31.8785 44.4087 32.0415 44.4124 32.2094C44.3579 32.7646 44.1911 33.147 43.8028 33.5444C42.9254 33.6291 42.9254 33.6291 42.4824 33.2831C41.9589 32.5619 42.0153 31.6653 42.1127 30.8057C42.3488 30.2401 42.6476 29.9762 43.2483 29.8507Z" fill="#64402F"/>
<path d="M41.9719 39.3102C41.935 39.7634 41.8742 39.9837 41.567 40.3192C41.4217 40.4143 41.2765 40.5094 41.1268 40.6075C41.0337 40.6721 40.9406 40.7368 40.8446 40.8034C39.5394 41.5667 37.9363 41.5163 36.479 41.3282C35.7881 41.118 35.2957 40.838 34.7888 40.3192C34.8416 40.0129 34.8416 40.0129 34.9297 39.7426C35.4557 39.8144 35.7483 39.8687 36.1973 40.175C37.6388 40.5767 39.3885 40.4568 40.7076 39.7296C40.7937 39.6774 40.8797 39.6252 40.9684 39.5714C41.4085 39.3102 41.4085 39.3102 41.9719 39.3102Z" fill="#8E4424"/>
<path d="M44.7337 26.0838C45.9455 26.6918 45.9455 26.6918 46.338 27.202C46.294 27.5894 46.294 27.5894 46.1971 27.9228C45.6723 27.8691 45.2966 27.7567 44.8492 27.4847C44.1536 27.1194 43.5305 27.146 42.764 27.184C42.5136 27.1939 42.263 27.2026 42.0125 27.2099C41.9031 27.2151 41.7938 27.2203 41.6811 27.2256C41.4084 27.202 41.4084 27.202 41.1267 26.9138C41.1355 26.6345 41.1355 26.6345 41.2676 26.3372C42.2199 25.5925 43.6434 25.6998 44.7337 26.0838Z" fill="#6C412D"/>
<path d="M37.0421 31.2381C37.1351 31.2381 37.228 31.2381 37.3238 31.2381C37.2605 32.5345 36.8294 33.6092 36.2235 34.7426C36.009 35.2393 35.9968 35.6019 36.0562 36.139C36.3628 36.5553 36.6476 36.6479 37.139 36.7426C37.3097 36.7769 37.3097 36.7769 37.4839 36.8118C37.5705 36.8276 37.6571 36.8434 37.7464 36.8597C37.8256 37.139 37.8256 37.139 37.8872 37.4363C37.6674 37.6612 37.4521 37.6103 37.1478 37.6165C36.3766 37.6052 36.0119 37.3713 35.4488 36.8417C35.121 36.2702 35.1251 35.7703 35.2111 35.13C35.3929 34.5665 35.6353 34.0413 35.889 33.5084C35.9526 33.369 36.0162 33.2296 36.0818 33.0861C36.6777 31.7934 36.6777 31.7934 37.0421 31.2381Z" fill="#904422"/>
<path d="M34.2127 25.956C34.3098 26.0342 34.4069 26.1124 34.507 26.193C34.551 26.5804 34.551 26.5804 34.507 26.9138C34.0441 27.029 33.8436 27.0718 33.3803 26.9138C32.4175 26.8273 31.7109 27.0603 30.845 27.4903C30.7986 27.5379 30.7521 27.5855 30.7042 27.6345C30.4695 27.6403 30.2346 27.6406 30 27.6345C29.9535 27.4442 29.907 27.2539 29.8591 27.0579C31.0514 25.9119 32.5826 25.1789 34.2127 25.956Z" fill="#663E2A"/>
<path d="M26.9013 63.0939C26.9943 63.0939 27.0872 63.0939 27.183 63.0939C27.2171 64.3428 27.1112 65.5568 26.9717 66.7967C26.9516 66.982 26.9314 67.1673 26.9107 67.3583C26.8614 67.8108 26.8113 68.2632 26.7605 68.7156C26.5746 68.7156 26.3886 68.7156 26.1971 68.7156C26.1578 67.2756 26.1423 65.8678 26.3908 64.4453C26.4085 64.3422 26.4263 64.2391 26.4446 64.1328C26.5807 63.4221 26.5807 63.4221 26.9013 63.0939Z" fill="#E08B55"/>
<path d="M53.3803 63.5264C53.4733 63.5264 53.5662 63.5264 53.662 63.5264C53.662 65.2388 53.662 66.9512 53.662 68.7156C53.3134 68.7869 53.3134 68.7869 52.9578 68.8597C52.9495 68.2922 52.9445 67.7246 52.9402 67.157C52.9378 66.9984 52.9354 66.8398 52.933 66.6764C52.9271 65.6504 52.986 64.6675 53.2395 63.6705C53.2859 63.623 53.3324 63.5754 53.3803 63.5264Z" fill="#E08B55"/>
<path d="M35.4931 47.2381C35.6325 47.2857 35.7719 47.3332 35.9156 47.3822C35.9562 47.8353 35.9893 48.2887 36.0212 48.7426C36.0384 48.9325 36.0384 48.9325 36.0559 49.1263C36.1164 50.0589 35.9797 50.7623 35.4931 51.5624C35.1036 52.0095 34.683 52.3566 34.0846 52.4273C34.1311 52.3321 34.1776 52.237 34.2255 52.139C33.8769 52.2103 33.8769 52.2103 33.5212 52.2831C33.773 51.9848 33.9373 51.8531 34.3047 51.7156C34.725 51.528 34.751 51.4045 34.9297 50.9858C34.9676 50.902 35.0056 50.8182 35.0447 50.7319C35.4693 49.6102 35.4544 48.4259 35.4931 47.2381Z" fill="#AB5931"/>
<path d="M52.3945 30.2291C53.1228 30.1285 53.7862 30.0625 54.4477 30.4318C55.0845 31.0412 55.2711 31.5976 55.3006 32.4659C55.295 33.9744 55.295 33.9744 54.9297 34.5534C54.9244 34.4194 54.9191 34.2855 54.9137 34.1474C54.8494 32.5261 54.8494 32.5261 54.0582 31.175C53.4331 30.8196 52.8831 30.8786 52.1832 31.0219C52.1135 31.0457 52.0438 31.0694 51.9719 31.0939C51.9719 30.9512 51.9719 30.8085 51.9719 30.6615C52.1114 30.6139 52.2508 30.5664 52.3945 30.5174C52.3945 30.4222 52.3945 30.3271 52.3945 30.2291Z" fill="#8F4623"/>
<path d="M26.0564 34.9858C26.1493 34.9858 26.2423 34.9858 26.3381 34.9858C26.3909 35.0919 26.4437 35.198 26.4982 35.3073C26.892 36.0759 27.2393 36.7265 27.8874 37.2921C27.8409 37.3397 27.7944 37.3873 27.7465 37.4363C27.8424 37.5195 27.9382 37.6028 28.037 37.6885C28.1271 37.7956 28.2171 37.9026 28.3099 38.0129C28.2747 38.3372 28.2747 38.3372 28.1691 38.5894C28.0993 38.2327 28.0993 38.2327 28.0282 37.8687C27.912 37.8717 27.7958 37.8747 27.6761 37.8777C26.9201 37.6429 26.5083 37.0731 26.0564 36.4273C25.7473 35.7908 25.7473 35.7908 25.9155 35.2741C25.962 35.179 26.0085 35.0839 26.0564 34.9858Z" fill="#8C3E1D"/>
<path d="M27.7464 23.4543C27.9052 23.9775 27.8268 24.2973 27.6825 24.8231C27.5262 25.5558 27.507 26.3107 27.4647 27.0579C27.3717 27.0579 27.2788 27.0579 27.183 27.0579C26.8908 26.321 26.8669 25.6938 26.8837 24.9138C26.885 24.8008 26.8862 24.6878 26.8875 24.5714C26.8908 24.2951 26.8959 24.0188 26.9013 23.7426C26.9478 23.7426 26.9942 23.7426 27.0421 23.7426C27.0886 23.9804 27.1351 24.2183 27.183 24.4633C27.2759 24.4633 27.3689 24.4633 27.4647 24.4633C27.5576 24.1303 27.6506 23.7974 27.7464 23.4543Z" fill="#9DCDC2"/>
<path d="M54.5071 35.5624C54.6 35.61 54.693 35.6575 54.7888 35.7066C54.7423 35.8968 54.6958 36.0871 54.6479 36.2831C54.555 36.2831 54.462 36.2831 54.3662 36.2831C54.3633 36.3842 54.3604 36.4853 54.3574 36.5894C54.1871 37.1238 53.9145 37.3218 53.4914 37.6626C53.0745 38.0036 52.848 38.2058 52.6761 38.7336C52.4208 38.8597 52.4208 38.8597 52.1127 38.8777C51.9202 38.7402 51.7318 38.5964 51.5493 38.4453C51.6294 38.405 51.7095 38.3646 51.7919 38.3231C53.0471 37.6562 53.816 36.8171 54.5071 35.5624Z" fill="#8F4724"/>
<path d="M47.8874 49.8327C48.3565 50.2936 48.7709 50.7908 49.1858 51.3023C49.4426 51.5685 49.6659 51.7052 50.0001 51.8507C49.9536 52.041 49.9071 52.2312 49.8592 52.4273C48.2105 51.263 48.2105 51.263 47.6057 50.4093C47.6987 50.3617 47.7916 50.3141 47.8874 50.2651C47.8874 50.1224 47.8874 49.9797 47.8874 49.8327Z" fill="#A1532D"/>
<path d="M35.4931 50.2651C35.5396 50.2651 35.586 50.2651 35.6339 50.2651C35.7516 51.2627 35.7516 51.2627 35.4342 51.6823C35.0015 52.0704 34.6558 52.3148 34.0846 52.4273C34.1311 52.3321 34.1776 52.237 34.2255 52.139C33.9931 52.1866 33.7607 52.2341 33.5212 52.2831C33.7755 51.9819 33.9441 51.8506 34.3135 51.7066C34.4791 51.6352 34.4791 51.6352 34.648 51.5624C34.6945 51.4197 34.741 51.277 34.7888 51.13C34.9283 51.13 35.0677 51.13 35.2114 51.13C35.3043 50.8446 35.3973 50.5592 35.4931 50.2651Z" fill="#B45F34"/>
<path d="M20.2816 66.2651C20.328 66.2651 20.3745 66.2651 20.4224 66.2651C20.4224 66.6932 20.4224 67.1213 20.4224 67.5624C20.5618 67.5624 20.7013 67.5624 20.8449 67.5624C20.7985 67.943 20.752 68.3235 20.7041 68.7156C20.4717 68.7631 20.2393 68.8107 19.9999 68.8597C19.9671 67.9541 20.0837 67.1472 20.2816 66.2651Z" fill="#E0864C"/>
<path d="M27.6056 30.0849C27.6521 30.1801 27.6986 30.2752 27.7465 30.3732C27.6717 30.4065 27.5969 30.4397 27.5198 30.474C26.8668 30.7826 26.4786 31.0555 26.0563 31.6705C25.9169 31.7419 25.9169 31.7419 25.7747 31.8147C25.7765 31.3678 25.8009 30.9499 25.9155 30.5174C26.4646 30.0861 26.926 30.0352 27.6056 30.0849Z" fill="#994B27"/>
<path d="M25.9156 30.8057C26.0564 31.0939 26.0564 31.0939 26.0564 31.5264C26.1959 31.2885 26.3353 31.0507 26.479 30.8057C26.5254 30.9008 26.5719 30.9959 26.6198 31.0939C26.553 31.2664 26.4862 31.4388 26.4173 31.6165C26.0667 32.6097 26.1636 33.6577 26.1973 34.6976C25.8628 34.1842 25.8664 33.9025 25.8364 33.2921C25.7915 32.4637 25.7915 32.4637 25.6779 31.6435C25.6339 31.2381 25.6339 31.2381 25.9156 30.8057Z" fill="#873A19"/>
<path d="M34.2253 46.0849C34.3647 46.1533 34.5042 46.2217 34.6478 46.2921C35.2101 46.5416 35.7297 46.6069 36.338 46.6615C36.2915 46.8993 36.245 47.1372 36.1971 47.3822C35.2042 47.2864 35.2042 47.2864 34.7887 46.8057C34.5103 46.6548 34.229 46.5095 33.9436 46.3732C34.0366 46.2781 34.1295 46.1829 34.2253 46.0849Z" fill="#9A4E2B"/>
<path d="M29.155 40.175C29.5025 40.6439 29.8219 41.1268 30.1409 41.6165C30.0015 41.7592 29.862 41.9019 29.7184 42.0489C29.4367 41.6165 29.155 41.184 28.8733 40.7516C28.9662 40.5613 29.0592 40.3711 29.155 40.175Z" fill="#974A28"/>
<path d="M46.7606 44.4993C46.7606 45.5458 46.7606 46.5923 46.7606 47.6705C46.7141 47.6705 46.6677 47.6705 46.6198 47.6705C46.6027 47.4953 46.5856 47.3201 46.5681 47.1395C46.5443 46.9111 46.5204 46.6827 46.4965 46.4543C46.4855 46.3386 46.4744 46.223 46.463 46.1038C46.4313 45.8079 46.3857 45.5137 46.3381 45.2201C46.2451 45.1725 46.1522 45.1249 46.0564 45.0759C46.6022 44.4993 46.6022 44.4993 46.7606 44.4993Z" fill="#EB9A72"/>
<path d="M29.155 41.0399C29.2189 41.1291 29.2828 41.2183 29.3487 41.3102C29.5735 41.625 29.5735 41.625 29.8593 41.9048C29.9522 41.8096 30.0452 41.7145 30.1409 41.6165C30.2804 41.8543 30.4198 42.0921 30.5635 42.3372C30.424 42.3372 30.2846 42.3372 30.1409 42.3372C30.1874 42.575 30.2339 42.8129 30.2818 43.0579C29.7628 42.5837 29.4679 42.1012 29.155 41.4723C29.155 41.3296 29.155 41.1869 29.155 41.0399Z" fill="#8A3A1B"/>
<path d="M62.9577 65.4003C63.3239 65.9625 63.2606 66.4776 63.2394 67.13C63.1464 67.0348 63.0535 66.9397 62.9577 66.8417C62.8183 66.9368 62.6788 67.032 62.5352 67.13C62.5352 66.7494 62.5352 66.3689 62.5352 65.9768C62.6281 66.072 62.7211 66.1671 62.8168 66.2651C62.8633 65.9797 62.9098 65.6943 62.9577 65.4003Z" fill="#DF8348"/>
<path d="M28.4508 36.4273C28.6762 37.0041 28.492 37.4429 28.3099 38.0129C28.217 37.9177 28.124 37.8226 28.0282 37.7246C27.8427 37.624 27.6551 37.5272 27.4648 37.4363C27.5578 37.3412 27.6508 37.246 27.7465 37.148C27.793 37.0529 27.8395 36.9577 27.8874 36.8597C28.0268 36.8597 28.1663 36.8597 28.3099 36.8597C28.3564 36.717 28.4029 36.5743 28.4508 36.4273Z" fill="#9B4D29"/>
<path d="M22.5353 59.7786C22.6747 59.7786 22.8142 59.7786 22.9578 59.7786C22.8649 60.2067 22.7719 60.6348 22.6761 61.0759C22.5367 61.0284 22.3973 60.9808 22.2536 60.9318C22.2536 60.8366 22.2536 60.7415 22.2536 60.6435C22.1607 60.6435 22.0677 60.6435 21.9719 60.6435C22.1314 60.3171 22.3016 60.0546 22.5353 59.7786Z" fill="#E38F5C"/>
<path d="M62.9577 64.9678C63.1452 65.5437 63.0166 65.8469 62.8168 66.4093C62.6774 66.5044 62.5379 66.5995 62.3943 66.6975C62.4408 66.2219 62.4872 65.7462 62.5351 65.2561C62.6746 65.2561 62.814 65.2561 62.9577 65.2561C62.9577 65.161 62.9577 65.0658 62.9577 64.9678Z" fill="#E5935F"/>
<path d="M47.3239 43.4903C47.3704 43.4903 47.4168 43.4903 47.4647 43.4903C47.4183 44.4417 47.3718 45.393 47.3239 46.3732C47.2774 46.3732 47.2309 46.3732 47.183 46.3732C47.1516 46.028 47.1227 45.6828 47.095 45.3372C47.0859 45.2401 47.0769 45.143 47.0675 45.043C47.022 44.4459 47.0576 44.0261 47.3239 43.4903Z" fill="#A7552C"/>
<path d="M28.7323 38.0129C29.0986 38.5751 29.0353 39.0902 29.014 39.7426C28.8746 39.8139 28.8746 39.8139 28.7323 39.8867C28.7149 39.7946 28.6975 39.7024 28.6795 39.6075C28.6505 39.5093 28.6214 39.4112 28.5915 39.3102C28.4985 39.2626 28.4056 39.215 28.3098 39.166C28.4028 39.0233 28.4957 38.8806 28.5915 38.7336C28.6457 38.495 28.694 38.2547 28.7323 38.0129Z" fill="#994C2A"/>
<path d="M34.3663 51.8507C34.4128 51.9458 34.4592 52.041 34.5071 52.139C34.2254 52.4273 34.2254 52.4273 33.8029 52.7156C33.7099 52.7156 33.617 52.7156 33.5212 52.7156C33.4747 52.8583 33.4283 53.001 33.3804 53.148C33.3804 52.815 33.3804 52.4821 33.3804 52.139C33.546 52.1078 33.546 52.1078 33.7149 52.0759C34.0796 52.0124 34.0796 52.0124 34.3663 51.8507Z" fill="#C97449"/>
<path d="M50.5635 38.4453C51.6098 38.4041 51.6098 38.4041 52.1128 38.7336C52.0663 38.8287 52.0198 38.9239 51.9719 39.0219C51.6931 39.0219 51.4142 39.0219 51.1269 39.0219C51.1733 38.8792 51.2198 38.7365 51.2677 38.5894C51.0353 38.5894 50.8029 38.5894 50.5635 38.5894C50.5635 38.5419 50.5635 38.4943 50.5635 38.4453Z" fill="#9F512C"/>
<path d="M47.3238 47.6705C47.4633 47.7657 47.6027 47.8608 47.7464 47.9588C47.6762 48.4903 47.5913 48.7667 47.183 49.112C46.9982 48.5445 47.1488 48.2291 47.3238 47.6705Z" fill="#A35834"/>
<path d="M52.8168 30.2291C53.0957 30.2291 53.3746 30.2291 53.6619 30.2291C53.6619 30.3242 53.6619 30.4194 53.6619 30.5174C53.7549 30.5649 53.8478 30.6125 53.9436 30.6615C53.4909 30.8932 53.0371 30.8139 52.5352 30.8057C52.7211 30.7105 52.907 30.6154 53.0985 30.5174C53.0056 30.4222 52.9126 30.3271 52.8168 30.2291Z" fill="#893B18"/>
<path d="M21.1269 62.8057C21.2198 62.9484 21.3128 63.0911 21.4086 63.2381C21.3128 63.5956 21.3128 63.5956 21.1445 63.9858C21.0897 64.1157 21.0348 64.2456 20.9783 64.3794C20.9344 64.4785 20.8905 64.5775 20.8452 64.6795C20.7987 64.6795 20.7522 64.6795 20.7043 64.6795C20.7719 64 20.8407 63.4304 21.1269 62.8057Z" fill="#E18247"/>
<path d="M49.2959 51.9948C49.4818 52.09 49.6677 52.1851 49.8592 52.2831C49.5775 52.7156 49.5775 52.7156 49.2782 52.8147C49.1911 52.8295 49.1039 52.8444 49.0142 52.8597C49.1374 52.157 49.1374 52.157 49.2959 51.9948Z" fill="#D37F55"/>
<path d="M27.8872 35.7066C27.9337 35.7066 27.9802 35.7066 28.0281 35.7066C28.0745 35.9444 28.121 36.1822 28.1689 36.4273C28.2619 36.2846 28.3548 36.1419 28.4506 35.9948C28.4506 36.2803 28.4506 36.5657 28.4506 36.8597C28.3112 36.9311 28.3112 36.9311 28.1689 37.0039C28.0759 36.9563 27.983 36.9087 27.8872 36.8597C27.8872 36.4792 27.8872 36.0986 27.8872 35.7066Z" fill="#8D401C"/>
<path d="M41.9982 26.103C42.0824 26.1327 42.1667 26.1624 42.2535 26.193C42.0211 26.2882 41.7887 26.3833 41.5492 26.4813C41.5492 26.6716 41.5492 26.8619 41.5492 27.0579C41.4098 27.0103 41.2704 26.9628 41.1267 26.9138C41.1707 26.6435 41.1707 26.6435 41.2676 26.3372C41.6901 26.0489 41.6901 26.0489 41.9982 26.103Z" fill="#633A28"/>
</svg>
