<svg width="80" height="80" viewBox="0 0 80 80" fill="none" xmlns="http://www.w3.org/2000/svg">
<path d="M0 40C0 17.9006 17.9006 0 40 0C62.0994 0 80 17.9006 80 40C80 62.0994 62.0994 80 40 80C17.9006 80 0 62.0994 0 40Z" fill="white"/>
<path d="M49.7137 12.4744C50.2156 12.9135 50.6865 13.381 51.1558 13.8561C51.2887 13.979 51.2887 13.979 51.4242 14.1044C55.7569 18.1935 57.1006 24.8917 57.8476 30.5772C58.2754 33.827 59.1486 36.3363 60.8223 39.1216C62.7595 42.3901 63.8831 46.0224 62.9867 49.8285C62.8858 50.1839 62.7797 50.5302 62.661 50.8792C62.6132 51.02 62.6132 51.02 62.5643 51.1637C62.4732 51.4251 62.3772 51.6846 62.2809 51.944C61.9509 53.2307 62.191 54.2215 62.6346 55.4417C63.1812 57.0696 63.5465 58.8245 62.8635 60.4777C62.6873 60.8084 62.4872 61.1095 62.2825 61.4237C62.3386 62.1884 62.6038 62.9125 62.8283 63.6399C63.397 65.5411 63.7816 67.3459 63.691 69.3516C63.4586 69.3041 63.2262 69.2565 62.9867 69.2075C62.966 69.021 62.966 69.021 62.9449 68.8308C62.472 64.8796 61.5786 60.5339 58.3581 57.9259C55.9524 56.1583 53.1155 54.8851 50.3107 53.9282C50.2628 54.0441 50.2628 54.0441 50.2139 54.1624C49.0296 56.3556 46.3551 57.5691 44.1135 58.2345C41.4703 58.9375 38.3645 58.7557 35.9181 57.4868C34.6821 56.7358 33.924 55.8934 33.4093 54.5048C33.4093 54.3621 33.4093 54.2194 33.4093 54.0723C32.7151 54.3633 32.0214 54.6554 31.3281 54.9486C31.0929 55.0479 30.8575 55.1469 30.6221 55.2455C28.6015 56.0922 26.8158 57.0003 25.0994 58.3967C24.9963 58.4781 24.8932 58.5594 24.7869 58.6433C21.7596 61.1637 20.8224 65.4454 20.3107 69.2075C20.0783 69.255 19.8459 69.3026 19.6065 69.3516C19.5613 68.2973 19.6817 67.3572 19.9234 66.3336C19.955 66.1952 19.9866 66.0569 20.0192 65.9143C20.2416 64.9663 20.4984 64.0513 20.8741 63.1534C20.7869 63.1116 20.6998 63.0698 20.61 63.0267C19.8329 62.6071 19.558 61.7947 19.2923 60.9845C18.8566 59.2732 19.5241 57.9211 20.2051 56.3787C20.755 55.1304 20.6451 54.1018 20.2095 52.8297C20.082 52.4856 19.9512 52.1457 19.8133 51.806C19.7762 51.714 19.7391 51.6221 19.7009 51.5273C19.5946 51.2666 19.4856 51.007 19.3765 50.7475C18.3029 47.858 18.7861 44.5854 19.9635 41.8364C20.3991 40.8467 20.855 39.8671 21.3137 38.8885C22.5045 36.3296 22.8377 33.7091 23.0497 30.9048C23.5601 24.173 25.006 17.5307 30.1698 12.8471C35.7019 8.06145 43.9941 7.77465 49.7137 12.4744Z" fill="#E48A6D"/>
<path d="M50.3108 53.9282C50.9541 54.0136 51.488 54.1892 52.0834 54.4507C52.17 54.4886 52.2565 54.5264 52.3457 54.5655C52.6245 54.6881 52.9026 54.8124 53.1805 54.9372C53.2753 54.9795 53.3701 55.0219 53.4678 55.0655C57.0619 56.6752 60.1638 58.59 61.6978 62.5003C62.527 64.7347 62.9165 66.974 63.1277 69.3516C48.9516 69.3516 34.7756 69.3516 20.1699 69.3516C20.667 66.1298 20.667 66.1298 20.971 65.0813C21.0066 64.9569 21.0422 64.8325 21.0788 64.7042C21.6113 62.9217 22.3289 61.2387 23.5502 59.8381C23.6286 59.7359 23.7071 59.6337 23.7879 59.5284C25.6677 57.1651 28.4751 56.0417 31.1294 54.8651C31.2181 54.8257 31.3069 54.7862 31.3983 54.7455C31.6525 54.6328 31.9073 54.5215 32.1621 54.4102C32.3108 54.345 32.4594 54.2799 32.6126 54.2128C32.9868 54.0723 32.9868 54.0723 33.4094 54.0723C33.4508 54.2058 33.4508 54.2058 33.493 54.342C34.0527 55.9642 34.9721 56.8566 36.4615 57.5873C39.1986 58.8371 42.5776 58.7173 45.3656 57.6757C46.3874 57.2687 47.3025 56.7368 48.1981 56.0904C48.3007 56.0209 48.4032 55.9514 48.5089 55.8798C49.2634 55.3453 49.7813 54.6902 50.3108 53.9282Z" fill="#FED9B1"/>
<path d="M39.1839 17.8922C39.6471 18.1292 39.7717 18.6459 39.985 19.1084C41.534 22.3596 44.1076 24.8882 47.3353 26.3606C47.4284 26.4038 47.5215 26.4469 47.6173 26.4914C48.1093 26.7076 48.557 26.8535 49.0888 26.9248C50.2799 27.1115 50.2799 27.1115 50.7332 27.5498C51.3018 28.6621 51.7191 30.1778 51.7191 31.4417C51.8195 31.3952 51.9199 31.3488 52.0234 31.3009C52.6704 31.0623 53.294 31.0707 53.9727 31.1534C54.7235 31.5306 55.1919 32.0538 55.5572 32.8201C55.8757 34.3143 55.6577 35.6404 54.9135 36.9608C54.3407 37.8161 53.5737 38.4472 52.5642 38.6489C52.0625 38.6849 52.0625 38.6849 51.5783 38.6489C51.3368 38.4304 51.3368 38.4304 51.1558 38.2165C51.1325 38.2969 51.1093 38.3772 51.0854 38.46C50.0743 41.8993 48.5019 44.8242 45.3113 46.5845C42.9578 47.8331 40.1905 48.4371 37.5795 47.6591C37.1638 47.5141 36.7661 47.3408 36.367 47.1534C36.229 47.0891 36.0911 47.0248 35.9489 46.9586C33.2264 45.5576 31.3535 43.0903 30.3327 40.1962C30.13 39.5262 29.9547 38.8525 29.7913 38.1714C29.7628 38.0537 29.7342 37.936 29.7048 37.8147C29.271 35.9077 29.1366 34.0108 29.1472 32.0602C29.1487 31.7301 29.1472 31.4002 29.1454 31.0701C29.1441 29.991 29.18 28.9205 29.2918 27.8471C29.3207 27.5687 29.3207 27.5687 29.3502 27.2846C29.4656 26.8291 29.4656 26.8291 29.7276 26.5635C30.1675 26.32 30.6237 26.1231 31.0853 25.9282C32.6043 25.2655 33.9746 24.4609 35.2403 23.3696C35.353 23.2752 35.4658 23.1808 35.5819 23.0836C37.2599 21.6201 38.2745 19.9174 39.1839 17.8922Z" fill="#FEC9A6"/>
<path d="M39.4657 18.0363C39.6516 18.0363 39.8375 18.0363 40.0291 18.0363C40.1042 18.1948 40.1794 18.3533 40.2569 18.5166C40.9341 19.9062 41.6349 20.9641 42.7051 22.0723C42.8498 22.2608 42.9937 22.4499 43.1365 22.6399C44.5922 24.3436 46.8939 25.6489 49.0206 26.1748C51.191 26.7479 51.191 26.7479 51.6646 27.4577C52.0856 28.4381 52.2826 29.5075 52.2826 30.5768C52.3727 30.5263 52.4627 30.4758 52.5555 30.4237C53.3284 30.1815 54.0006 30.2978 54.7122 30.6759C55.7146 31.5386 56.2583 32.4817 56.4056 33.806C56.4639 35.2945 55.9989 36.8182 55.0632 37.9744C54.6096 38.422 54.0958 38.7626 53.5502 39.0813C53.4598 39.1349 53.3694 39.1884 53.2762 39.2435C52.9279 39.3953 52.6241 39.4293 52.2474 39.4597C52.0589 39.4759 52.0589 39.4759 51.8667 39.4924C51.7715 39.4994 51.6764 39.5065 51.5784 39.5138C51.5475 39.6082 51.5166 39.7026 51.4848 39.7998C50.9088 41.4964 50.1533 43.4333 48.7909 44.6377C48.1367 45.2589 47.9863 45.7304 47.9461 46.6438C47.9452 46.9478 47.9501 47.2505 47.9597 47.5543C47.9692 47.8641 47.9712 48.1732 47.972 48.4831C47.9848 49.7246 48.0771 50.8049 48.7224 51.8831C49.1387 52.2924 49.572 52.5242 50.0907 52.775C50.1803 52.8208 50.2699 52.8665 50.3622 52.9136C50.9509 53.2069 51.5501 53.4541 52.1627 53.6906C53.1704 54.0818 54.148 54.5283 55.1259 54.9913C55.378 55.1078 55.378 55.1078 55.6351 55.2266C57.901 56.2975 59.6559 57.798 61.1558 59.8381C61.2428 59.9509 61.3298 60.0637 61.4194 60.1799C63.0944 62.5661 63.878 66.4398 63.6911 69.3516C63.4587 69.3041 63.2263 69.2565 62.9868 69.2075C62.9661 69.021 62.9661 69.021 62.945 68.8308C62.4721 64.8796 61.5787 60.5339 58.3582 57.9259C55.9524 56.1583 53.1156 54.8851 50.3108 53.9282C50.2628 54.0441 50.2628 54.0441 50.2139 54.1624C49.0297 56.3556 46.3552 57.5691 44.1136 58.2345C41.4704 58.9375 38.3645 58.7557 35.9182 57.4868C34.6822 56.7358 33.9241 55.8934 33.4094 54.5048C33.4094 54.3621 33.4094 54.2194 33.4094 54.0723C32.7152 54.3633 32.0214 54.6554 31.3281 54.9486C31.0929 55.0479 30.8576 55.1469 30.6221 55.2455C28.6016 56.0922 26.8158 57.0003 25.0995 58.3967C24.9964 58.4781 24.8933 58.5594 24.787 58.6433C21.7597 61.1637 20.8224 65.4454 20.3108 69.2075C20.0784 69.255 19.846 69.3026 19.6065 69.3516C19.5613 68.2973 19.6818 67.3572 19.9234 66.3336C19.9551 66.1952 19.9867 66.0569 20.0193 65.9143C20.2417 64.9663 20.4984 64.0513 20.8741 63.1534C20.7874 63.1129 20.7006 63.0724 20.6112 63.0307C20.0627 62.7284 19.6788 62.1625 19.4657 61.5678C19.5122 61.4251 19.5587 61.2824 19.6065 61.1354C19.6705 61.2658 19.6705 61.2658 19.7358 61.3989C20.084 62.0786 20.3726 62.5772 21.015 63.0093C21.0362 62.8588 21.0362 62.8588 21.0579 62.7052C21.6546 60.1666 23.9844 57.8509 26.0854 56.5228C26.2325 56.4275 26.3795 56.3321 26.5311 56.2339C28.5237 54.9926 30.7604 54.1233 32.9433 53.2996C33.1074 53.2376 33.2716 53.1756 33.4407 53.1118C33.588 53.0576 33.7352 53.0034 33.8869 52.9476C34.4232 52.6958 34.5854 52.4571 34.8178 51.9102C34.9758 51.4251 34.988 51.0322 35.0032 50.5211C35.0091 50.3339 35.015 50.1467 35.0211 49.9538C35.0267 49.7561 35.0323 49.5584 35.0379 49.3606C35.044 49.1612 35.0501 48.9618 35.0563 48.7624C35.0713 48.2741 35.0856 47.7859 35.0995 47.2976C34.9356 47.2336 34.9356 47.2336 34.7685 47.1684C32.3185 46.1237 30.8561 43.36 29.8052 41.0234C29.6062 40.522 29.4598 40.0361 29.3249 39.5138C28.9065 39.4186 28.4882 39.3235 28.0572 39.2255C28.1967 39.1779 28.3361 39.1304 28.4798 39.0813C28.4798 38.9862 28.4798 38.8911 28.4798 38.7931C28.3868 38.7455 28.2939 38.6979 28.1981 38.6489C28.5234 38.6489 28.8488 38.6489 29.184 38.6489C29.1568 38.5454 29.1295 38.4419 29.1015 38.3353C28.5302 36.0112 28.4328 33.6847 28.4798 31.2976C28.5727 31.2976 28.6657 31.2976 28.7615 31.2976C28.9369 30.7589 28.9474 30.2381 28.9727 29.6759C29.008 28.9101 29.0665 28.1632 29.184 27.4057C29.2305 27.4057 29.277 27.4057 29.3249 27.4057C29.3239 27.4859 29.323 27.5662 29.322 27.6489C29.3125 28.5004 29.3062 29.3519 29.3016 30.2034C29.2995 30.5193 29.2967 30.8352 29.293 31.151C29.2397 35.814 29.8115 41.0875 33.0615 44.6592C34.7748 46.4479 37.1721 47.7659 39.648 47.7976C39.8497 47.7953 39.8497 47.7953 40.0555 47.7931C40.1975 47.7918 40.3395 47.7905 40.4858 47.7891C43.412 47.7202 46.0377 46.4101 48.0572 44.2705C49.6022 42.4615 50.3546 40.5015 51.015 38.2165C51.1544 38.2165 51.2939 38.2165 51.4375 38.2165C51.484 38.3116 51.5305 38.4068 51.5784 38.5048C52.5346 38.5659 53.2387 38.3479 54.0608 37.8471C55.0355 36.8232 55.5189 35.6158 55.5749 34.1985C55.5596 33.3701 55.4063 32.7136 54.9587 32.0183C54.3765 31.4509 54.0166 31.2774 53.2245 31.2795C53.0914 31.2792 52.9583 31.2788 52.8212 31.2784C52.4395 31.2968 52.0911 31.3544 51.7192 31.4417C51.6076 31.0784 51.4961 30.715 51.3847 30.3516C51.3535 30.2501 51.3223 30.1485 51.2901 30.0439C51.1974 29.7414 51.106 29.4385 51.015 29.1354C50.9609 28.9557 50.9068 28.776 50.851 28.5909C50.7333 28.1264 50.7333 28.1264 50.7333 27.5498C50.5971 27.5353 50.461 27.5208 50.3207 27.5059C46.7395 26.9776 43.28 24.3752 41.1534 21.4742C39.4657 19.0906 39.4657 19.0906 39.4657 18.0363Z" fill="#CA6F4F"/>
<path d="M46.9305 46.4327C46.977 46.4327 47.0234 46.4327 47.0713 46.4327C47.0734 46.5197 47.0754 46.6067 47.0775 46.6963C47.0733 49.848 47.0733 49.848 48.3389 52.6309C48.7861 52.9699 49.2492 53.2433 49.7474 53.4958C48.9821 55.2348 46.8452 56.3819 45.2013 57.1005C42.2999 58.1826 39.1158 58.1541 36.2967 56.8561C35.3597 56.3427 34.5049 55.5398 34.1136 54.5048C34.0624 54.1371 34.0624 54.1371 34.1136 53.784C34.3714 53.5164 34.6508 53.3244 34.9526 53.1112C35.7952 52.1269 35.7351 50.68 35.7597 49.4417C35.7645 49.2763 35.7693 49.111 35.7743 48.9406C35.7858 48.5371 35.7956 48.1336 35.8037 47.73C35.9278 47.7726 35.9278 47.7726 36.0544 47.816C36.3932 47.932 36.7322 48.0473 37.0713 48.1624C37.2031 48.2076 37.3349 48.2527 37.4707 48.2992C40.3719 49.1626 43.3801 48.4772 45.9798 47.0453C46.4856 46.7831 46.4856 46.7831 46.9305 46.4327Z" fill="#FEC8A5"/>
<path d="M39.184 16.4507C39.5549 16.8105 39.7427 17.0949 39.8882 17.6039C39.8354 17.9372 39.8354 17.9372 39.7474 18.1804C39.5614 18.1804 39.3755 18.1804 39.184 18.1804C39.1259 18.3094 39.0678 18.4383 39.0079 18.5712C38.4786 19.7171 37.8967 20.6848 37.0713 21.6399C36.9711 21.7614 36.8709 21.8829 36.7676 22.0081C35.1617 23.9121 33.1519 25.1558 30.9319 26.1743C30.7734 26.2476 30.6149 26.321 30.4516 26.3967C30.2938 26.4673 30.136 26.5379 29.9735 26.6106C29.7918 26.7188 29.7918 26.7188 29.6065 26.8291C29.4888 27.3241 29.4888 27.3241 29.4657 27.8381C29.4203 27.9212 29.3749 28.0043 29.3282 28.0899C29.1231 28.5517 29.1181 29.0124 29.0949 29.5115C29.089 29.6163 29.0831 29.7211 29.0771 29.829C29.0588 30.1623 29.0421 30.4957 29.0255 30.8291C29.0134 31.0556 29.0011 31.2822 28.9887 31.5087C28.9586 32.0629 28.93 32.6171 28.9023 33.1714C28.8558 33.1714 28.8093 33.1714 28.7614 33.1714C28.7614 32.5531 28.7614 31.9347 28.7614 31.2976C28.6685 31.2976 28.5755 31.2976 28.4798 31.2976C28.6216 33.7663 28.8149 36.2035 29.184 38.6489C28.9516 38.6965 28.7192 38.744 28.4798 38.7931C28.4798 38.8882 28.4798 38.9833 28.4798 39.0813C28.0935 39.1916 27.8506 39.2503 27.4641 39.1224C26.0621 38.3118 25.403 37.3407 24.9586 35.766C24.9316 35.675 24.9045 35.5839 24.8767 35.4901C24.5762 33.9555 24.8468 32.6284 25.6276 31.3156C26.2952 30.6704 26.9244 30.398 27.846 30.3967C28.0574 30.4058 28.2687 30.4168 28.4798 30.4327C28.4765 30.3467 28.4732 30.2606 28.4699 30.172C28.452 29.2918 28.4996 28.4249 28.5854 27.5498C28.5941 27.4429 28.6028 27.336 28.6117 27.2258C28.6944 26.4593 28.6944 26.4593 29.0048 26.1693C29.3462 25.9505 29.6849 25.7836 30.0549 25.6208C30.1963 25.5573 30.3377 25.4939 30.4833 25.4285C30.6326 25.3615 30.7819 25.2945 30.9357 25.2255C34.5201 23.5737 37.3313 20.9535 38.9254 17.2199C39.0191 16.9662 39.1032 16.7089 39.184 16.4507Z" fill="#CC7051"/>
<path d="M48.3389 51.766C48.4609 51.8404 48.5829 51.9147 48.7086 51.9913C49.2181 52.2877 49.7361 52.5651 50.2579 52.8381C50.4108 52.9182 50.5636 52.9983 50.7211 53.0808C51.1886 53.311 51.6668 53.4994 52.1521 53.6866C53.1634 54.0791 54.1445 54.5266 55.1258 54.9913C55.2939 55.0689 55.4619 55.1466 55.635 55.2266C57.9009 56.2975 59.6558 57.798 61.1558 59.8381C61.2427 59.9509 61.3297 60.0637 61.4193 60.1799C63.0943 62.5661 63.8779 66.4398 63.691 69.3516C63.4586 69.3041 63.2262 69.2565 62.9868 69.2075C62.973 69.0832 62.9592 68.9589 62.945 68.8308C62.472 64.8797 61.5787 60.5339 58.3581 57.926C55.9524 56.1583 53.1156 54.8851 50.3107 53.9282C50.2788 54.0055 50.2468 54.0828 50.2139 54.1624C49.0296 56.3556 46.3551 57.5691 44.1135 58.2345C41.4703 58.9375 38.3645 58.7557 35.9181 57.4868C34.6932 56.7425 33.9024 55.8932 33.4093 54.5048C33.4093 54.3145 33.4093 54.1242 33.4093 53.9282C33.5952 53.9282 33.7811 53.9282 33.9727 53.9282C34.0115 54.0103 34.0504 54.0925 34.0904 54.1771C35.0071 56.0093 36.1633 56.762 38.0572 57.3877C40.5827 58.1909 43.7604 57.7273 46.0854 56.5228C46.2239 56.4518 46.3624 56.3808 46.5051 56.3077C47.7265 55.6318 48.9679 54.6923 49.7473 53.4958C49.56 53.4423 49.56 53.4423 49.3688 53.3877C48.8876 53.2018 48.5812 52.9769 48.198 52.6309C48.2445 52.3455 48.291 52.0601 48.3389 51.766Z" fill="#CB704F"/>
<path d="M27.8724 31.1354C28.0432 31.1393 28.0432 31.1393 28.2174 31.1433C28.3473 31.1483 28.3473 31.1483 28.4798 31.1534C28.4893 31.325 28.4893 31.325 28.499 31.5001C28.6349 33.901 28.8217 36.2703 29.1841 38.6489C28.982 38.6309 28.7801 38.6115 28.5783 38.5915C28.4097 38.5755 28.4097 38.5755 28.2376 38.5592C27.4435 38.4246 26.9114 37.8179 26.4216 37.2075C25.6465 36.0634 25.3914 34.8327 25.5221 33.4597C25.8411 32.3045 26.5881 31.0973 27.8724 31.1354Z" fill="#FEC9A7"/>
<path d="M49.7473 53.6399C50.0466 53.694 50.0466 53.694 50.3107 53.7841C50.1155 54.8485 49.1728 55.5552 48.3565 56.1624C48.2658 56.2301 48.175 56.2977 48.0815 56.3674C45.3942 58.2991 42.0103 58.9532 38.7829 58.4473C37.0417 58.1186 35.1993 57.4662 34.1135 55.9462C33.7113 55.2661 33.4093 54.733 33.4093 53.9282C33.5952 53.9282 33.7811 53.9282 33.9727 53.9282C34.0115 54.0103 34.0504 54.0925 34.0904 54.1771C35.0071 56.0093 36.1633 56.762 38.0572 57.3877C40.5827 58.1909 43.7604 57.7273 46.0854 56.5228C46.2239 56.4518 46.3624 56.3808 46.5051 56.3077C47.7667 55.6095 48.7411 54.6697 49.7473 53.6399Z" fill="#D88E61"/>
<path d="M55.0994 64.1624C55.2389 64.21 55.3783 64.2576 55.522 64.3066C55.522 65.9714 55.522 67.6363 55.522 69.3516C49.3352 69.361 43.1493 69.3382 36.9627 69.2874C35.8633 69.2784 34.764 69.2698 33.6646 69.2613C31.4199 69.2438 29.1752 69.2258 26.9304 69.2075C26.9304 69.1599 26.9304 69.1123 26.9304 69.0633C36.1332 69.0633 45.3361 69.0633 54.8177 69.0633C54.8177 67.5887 54.8177 66.1141 54.8177 64.5949C54.9107 64.4522 55.0037 64.3095 55.0994 64.1624Z" fill="#FCD3A6"/>
<path d="M25.2403 43.1174C25.3332 43.1174 25.4262 43.1174 25.522 43.1174C25.5118 43.2343 25.5016 43.3511 25.4912 43.4716C25.3296 45.4445 25.3328 47.0826 25.9852 48.9565C26.6237 50.8057 26.6905 52.3177 26.0854 54.2165C25.8768 54.6315 25.8768 54.6315 25.6628 54.9372C25.5699 54.9372 25.4769 54.9372 25.3811 54.9372C25.3572 54.3609 25.3821 53.8751 25.522 53.3156C25.9262 51.5811 25.4433 50.054 24.9259 48.4127C24.39 46.6913 24.3393 45.0267 25.1137 43.3601C25.1764 43.2399 25.1764 43.2399 25.2403 43.1174Z" fill="#CD7151"/>
<path d="M56.2262 43.694C56.3191 43.694 56.4121 43.694 56.5079 43.694C57.5662 45.9183 57.3577 47.8819 56.6487 50.1805C56.2256 51.6602 56.3926 52.7011 56.8209 54.1461C56.9268 54.6324 56.9292 54.8997 56.7895 55.3696C56.3842 55.2241 56.2487 55.126 56.0479 54.7294C55.4542 52.8031 55.4878 51.1525 56.1145 49.2576C56.6591 47.501 56.4269 45.4989 56.2262 43.694Z" fill="#CD7151"/>
<path d="M34.5272 30.5858C34.9585 30.721 34.9585 30.721 35.2931 30.9822C35.6799 31.7588 35.6751 32.6414 35.4339 33.4761C35.3107 33.712 35.3107 33.712 34.9585 34.0363C34.561 34.1414 34.23 34.1367 33.8318 34.0363C33.4894 33.7667 33.319 33.5633 33.1276 33.1714C33.0493 32.4409 33.0489 31.8854 33.3828 31.2255C33.7554 30.7897 33.948 30.5732 34.5272 30.5858Z" fill="#624230"/>
<path d="M43.5765 40.1444C43.6607 40.1741 43.745 40.2039 43.8318 40.2345C43.7885 40.6779 43.7564 40.8943 43.4285 41.1996C42.0353 42.0319 40.5236 42.4803 38.9022 42.2525C37.1097 41.724 37.1097 41.724 36.6487 41.0994C36.6927 40.784 36.6927 40.784 36.7895 40.5228C37.2559 40.5796 37.5959 40.6443 38.0065 40.8848C38.6112 41.159 39.1107 41.1764 39.7649 41.1714C39.9416 41.171 39.9416 41.171 40.1219 41.1705C41.2348 41.1418 42.7007 39.9907 43.5765 40.1444Z" fill="#C67150"/>
<path d="M45.2139 30.6669C45.6628 30.721 45.6628 30.721 45.9886 31.0633C46.4544 31.805 46.4384 32.4452 46.3671 33.3156C46.1723 33.7597 45.9955 33.9842 45.6628 34.3246C44.7859 34.292 44.7859 34.292 44.4128 33.9102C44.0479 33.2046 44.0234 32.5118 44.1136 31.73C44.3514 31.1768 44.6157 30.7486 45.2139 30.6669Z" fill="#614130"/>
<path d="M39.0431 32.4507C39.1826 32.4983 39.322 32.5458 39.4657 32.5949C39.432 33.5773 39.1671 34.3744 38.7732 35.2624C38.5065 35.8873 38.4222 36.3839 38.4798 37.0633C38.7385 37.4087 38.9493 37.4791 39.3628 37.5526C39.6788 37.5908 39.9932 37.6198 40.3108 37.6399C40.3108 37.8777 40.3108 38.1156 40.3108 38.3606C39.3681 38.3943 38.6772 38.4129 37.8812 37.8471C37.5161 37.3267 37.4763 36.8326 37.4939 36.1985C37.6184 35.7096 37.8121 35.2673 38.022 34.8111C38.0729 34.6948 38.1237 34.5784 38.1761 34.4586C38.2755 34.2315 38.3761 34.0049 38.4778 33.7788C38.6744 33.3395 38.859 32.8956 39.0431 32.4507Z" fill="#C87452"/>
<path d="M46.8688 27.0903C47.079 27.1915 47.2877 27.2962 47.4938 27.4057C47.6362 27.474 47.7785 27.5424 47.9252 27.6129C48.1981 27.8381 48.1981 27.8381 48.3125 28.2255C48.3212 28.3355 48.3299 28.4455 48.3389 28.5588C47.969 28.7008 47.7234 28.7386 47.3519 28.5892C47.1565 28.4867 46.9628 28.3809 46.7709 28.2717C46.3535 28.0411 45.9867 27.9617 45.5204 27.9366C45.4137 27.9306 45.307 27.9246 45.1971 27.9183C45.0311 27.9098 45.0311 27.9098 44.8618 27.9012C44.7495 27.8949 44.6372 27.8887 44.5215 27.8823C44.2447 27.867 43.9679 27.8525 43.691 27.8381C43.6445 27.6003 43.5981 27.3624 43.5502 27.1174C44.4954 26.5217 45.8755 26.6914 46.8688 27.0903Z" fill="#C66D4B"/>
<path d="M34.1399 26.6129C34.2388 26.6102 34.3376 26.6076 34.4394 26.6048C34.9435 26.6111 35.1952 26.6473 35.5908 26.9778C35.661 27.0714 35.7313 27.165 35.8037 27.2615C35.7107 27.4518 35.6178 27.6421 35.522 27.8381C35.3825 27.8143 35.2431 27.7905 35.0994 27.766C33.9638 27.6123 33.3326 27.6663 32.3244 28.243C32.025 28.4019 31.7665 28.4916 31.4375 28.5588C31.323 28.3156 31.323 28.3156 31.2966 27.9823C32.1122 26.9389 32.8724 26.6334 34.1399 26.6129Z" fill="#C66D4C"/>
<path d="M26.7896 64.3066C26.929 64.3066 27.0685 64.3066 27.2121 64.3066C27.2448 65.4114 27.1451 66.4737 27.0009 67.5678C26.9807 67.7263 26.9606 67.8848 26.9398 68.0481C26.8905 68.4347 26.8405 68.8211 26.7896 69.2075C26.441 69.2788 26.441 69.2788 26.0854 69.3516C26.0307 67.7845 26.0916 65.7353 26.7896 64.3066Z" fill="#E09B6A"/>
<path d="M55.0994 64.1624C55.2389 64.21 55.3783 64.2576 55.522 64.3066C55.522 65.9714 55.522 67.6363 55.522 69.3516C55.336 69.3516 55.1501 69.3516 54.9586 69.3516C54.9551 68.6358 54.9525 67.9199 54.9508 67.2041C54.9501 66.9603 54.9492 66.7166 54.948 66.4729C54.9463 66.1234 54.9455 65.7738 54.9448 65.4243C54.9441 65.3146 54.9434 65.205 54.9426 65.0921C54.9426 64.8302 54.9499 64.5683 54.9586 64.3066C55.0051 64.259 55.0515 64.2114 55.0994 64.1624Z" fill="#DE9765"/>
<path d="M39.0431 32.4507C39.1825 32.4983 39.322 32.5458 39.4656 32.5949C39.4107 33.7197 39.0772 34.6027 38.6205 35.6219C38.4797 35.3336 38.4797 35.3336 38.5892 34.9687C38.6431 34.8275 38.697 34.6863 38.7526 34.5408C38.9688 34.0143 38.9688 34.0143 39.0431 33.4597C38.9036 33.7451 38.7642 34.0305 38.6205 34.3246C38.4585 33.8272 38.5072 33.7045 38.6734 33.2255C38.7122 33.1107 38.7511 32.9958 38.7911 32.8775C38.9022 32.5949 38.9022 32.5949 39.0431 32.4507Z" fill="#C56D4C"/>
<path d="M53.691 31.0093C54.2292 31.0858 54.5448 31.2251 54.9586 31.5859C55.0516 31.4432 55.1446 31.3004 55.2403 31.1534C55.6505 31.6274 55.8737 31.9605 55.9446 32.5949C55.8516 32.5473 55.7586 32.4997 55.6629 32.4507C55.6629 32.6886 55.6629 32.9264 55.6629 33.1714C55.3812 32.8832 55.3812 32.8832 55.1523 32.4057C54.8513 31.8424 54.4584 31.5946 53.9177 31.2897C53.8429 31.2447 53.7681 31.1998 53.691 31.1534C53.691 31.1059 53.691 31.0583 53.691 31.0093Z" fill="#C96B4C"/>
<path d="M29.0432 34.757C29.0896 34.757 29.1361 34.757 29.184 34.757C29.2043 34.864 29.2247 34.9711 29.2456 35.0813C29.3151 35.4627 29.3151 35.4627 29.4129 35.766C29.4801 36.1329 29.4125 36.4161 29.3249 36.775C29.1389 36.775 28.953 36.775 28.7615 36.775C28.7814 36.5197 28.8021 36.2645 28.8231 36.0093C28.8345 35.8671 28.846 35.725 28.8578 35.5785C28.9023 35.1895 28.9023 35.1895 29.0432 34.757Z" fill="#CF7756"/>
<path d="M63.1277 65.6039C63.4502 66.099 63.4345 66.3225 63.4094 66.9012C63.3164 66.8536 63.2235 66.806 63.1277 66.757C63.0812 66.9949 63.0347 67.2327 62.9868 67.4777C62.6447 66.9525 62.6824 66.6543 62.7051 66.0363C62.8446 66.1077 62.8446 66.1077 62.9868 66.1804C63.0333 65.9902 63.0798 65.7999 63.1277 65.6039Z" fill="#C76B45"/>
<path d="M63.2685 67.4778C63.315 67.4778 63.3615 67.4778 63.4094 67.4778C63.4558 68.001 63.5023 68.5242 63.5502 69.0633C63.3643 69.1109 63.1784 69.1585 62.9868 69.2075C63.0067 68.9732 63.0274 68.739 63.0484 68.5048C63.0599 68.3743 63.0713 68.2439 63.0831 68.1095C63.1277 67.766 63.1277 67.766 63.2685 67.4778Z" fill="#D07F5A"/>
<path d="M39.184 17.8922C39.4657 18.0363 39.4657 18.0363 39.6329 18.3786C39.7473 18.757 39.7473 18.757 39.6065 19.1894C39.5135 18.9992 39.4206 18.8089 39.3248 18.6129C39.0924 18.9934 38.86 19.374 38.6206 19.766C38.5741 19.6709 38.5276 19.5758 38.4797 19.4777C38.62 19.1027 38.62 19.1027 38.823 18.6669C38.8897 18.5224 38.9563 18.3778 39.025 18.2289C39.0774 18.1177 39.1299 18.0066 39.184 17.8922Z" fill="#FCD2AF"/>
<path d="M48.3389 26.2525C48.5248 26.3001 48.7107 26.3477 48.9022 26.3967C48.8558 26.5394 48.8093 26.6821 48.7614 26.8291C48.9938 26.8767 49.2262 26.9242 49.4656 26.9732C49.1063 27.1074 48.9389 27.1297 48.5699 27.0053C48.4588 26.9501 48.3477 26.895 48.2332 26.8381C48.1207 26.7833 48.0081 26.7285 47.8921 26.672C47.8072 26.6287 47.7222 26.5854 47.6346 26.5408C47.7276 26.4932 47.8206 26.4457 47.9163 26.3967C48.0558 26.4442 48.1952 26.4918 48.3389 26.5408C48.3389 26.4457 48.3389 26.3505 48.3389 26.2525Z" fill="#C76A4A"/>
<path d="M20.7333 64.739C20.8263 64.7866 20.9192 64.8341 21.015 64.8832C20.9685 65.1686 20.922 65.454 20.8741 65.748C20.7812 65.6053 20.6882 65.4626 20.5925 65.3156C20.453 65.5059 20.3136 65.6961 20.1699 65.8922C20.2164 65.5592 20.2629 65.2262 20.3108 64.8832C20.4502 64.8356 20.5896 64.788 20.7333 64.739Z" fill="#C76A46"/>
<path d="M24.536 58.685C24.629 58.7325 24.722 58.7801 24.8177 58.8291C24.3994 59.3048 23.9811 59.7804 23.5501 60.2705C23.4572 60.223 23.3642 60.1754 23.2684 60.1264C23.6867 59.6507 24.1051 59.175 24.536 58.685Z" fill="#FCE2BA"/>
<path d="M20.4516 65.0273C20.7839 65.3674 20.8025 65.572 20.8741 66.0363C20.5952 66.0839 20.3164 66.1314 20.0291 66.1805C20.1566 65.7889 20.3001 65.4096 20.4516 65.0273Z" fill="#CE7A58"/>
<path d="M63.1276 65.1714C63.2977 65.6937 63.2041 65.8405 62.9867 66.3246C62.8473 66.3246 62.7079 66.3246 62.5642 66.3246C62.6107 66.0392 62.6572 65.7538 62.7051 65.4597C62.798 65.4597 62.891 65.4597 62.9867 65.4597C63.0332 65.3646 63.0797 65.2695 63.1276 65.1714Z" fill="#D1815F"/>
<path d="M61.86 61.8561C62.046 61.9988 62.2319 62.1415 62.4234 62.2886C62.3305 62.4788 62.2375 62.6691 62.1417 62.8651C61.9093 62.6273 61.6769 62.3895 61.4375 62.1444C61.5769 62.1444 61.7164 62.1444 61.86 62.1444C61.86 62.0493 61.86 61.9541 61.86 61.8561Z" fill="#CD7857"/>
<path d="M33.4093 53.9282C33.5952 53.9282 33.7811 53.9282 33.9727 53.9282C34.0192 54.0709 34.0656 54.2136 34.1135 54.3606C34.067 54.4558 34.0206 54.5509 33.9727 54.6489C33.7868 54.6013 33.6009 54.5538 33.4093 54.5048C33.4093 54.3145 33.4093 54.1242 33.4093 53.9282Z" fill="#DF9468"/>
</svg>
