<svg width="80" height="80" viewBox="0 0 80 80" fill="none" xmlns="http://www.w3.org/2000/svg">
<path d="M0 40C0 17.9006 17.9006 0 40 0C62.0994 0 80 17.9006 80 40C80 62.0994 62.0994 80 40 80C17.9006 80 0 62.0994 0 40Z" fill="white"/>
<path d="M53.5816 10.1192C55.3373 11.4926 56.8909 12.2516 59.1094 12.3768C59.213 12.383 59.3167 12.3892 59.4235 12.3957C59.6767 12.4108 59.93 12.4254 60.1833 12.4399C60.6226 13.4203 60.6207 14.4681 60.3368 15.5007C60.0647 16.2062 59.768 16.7829 59.2854 17.3588C58.9281 17.8086 58.8694 18.0698 58.9245 18.6471C58.9651 18.8849 59.0095 19.1222 59.0565 19.3588C59.3913 21.3283 59.3396 23.4496 58.881 25.3903C58.6204 26.2855 58.6204 26.2855 58.7853 27.1544C58.8603 27.2367 58.9353 27.319 59.0125 27.4038C60.3255 29.0101 60.3148 31.063 60.1833 33.0525C59.9671 34.8563 59.4256 36.3029 58.0437 37.4934C57.3853 37.9372 56.8362 37.9863 56.0548 37.9714C55.8781 37.9688 55.7015 37.9662 55.5195 37.9635C55.3853 37.9602 55.2511 37.9568 55.1129 37.9534C55.0611 38.2304 55.0611 38.2304 55.0083 38.5131C54.8416 39.277 54.5673 39.9638 54.2502 40.6741C54.1656 40.8639 54.1656 40.8639 54.0793 41.0575C53.0666 43.2687 51.5596 44.9643 49.4791 46.1696C49.3897 46.2216 49.3004 46.2736 49.2084 46.3273C48.8431 46.5271 48.6336 46.602 48.2115 46.602C48.1992 47.1455 48.1917 47.689 48.1851 48.2327C48.1815 48.3872 48.178 48.5417 48.1743 48.7008C48.173 48.849 48.1716 48.9972 48.1702 49.1499C48.168 49.2865 48.1658 49.4231 48.1635 49.5639C48.1864 49.9141 48.1864 49.9141 48.3612 50.1561C48.7626 50.4411 49.2019 50.5932 49.6595 50.7563C49.8691 50.8336 50.0788 50.9109 50.2883 50.9882C50.3978 51.0281 50.5073 51.068 50.62 51.1091C54.942 52.6896 59.0368 54.409 61.134 58.8903C61.8654 60.5368 62.2791 62.2659 62.6217 64.0345C62.6459 64.1572 62.67 64.28 62.695 64.4064C62.7167 64.5258 62.7385 64.6452 62.7609 64.7681C62.78 64.8718 62.7991 64.9755 62.8188 65.0823C62.8804 65.6939 62.8594 66.3115 62.8594 66.9263C48.0791 66.9263 33.2988 66.9263 18.0706 66.9263C18.0706 64.7394 18.0706 64.7394 18.2995 63.7191C18.3246 63.6036 18.3497 63.4881 18.3756 63.369C19.2081 59.7061 20.7996 56.2677 23.9929 54.1853C24.452 53.9001 24.921 53.6359 25.3946 53.3768C25.4912 53.3234 25.5878 53.2701 25.6873 53.2151C27.5028 52.2309 29.416 51.5003 31.3365 50.7642C31.5292 50.6903 31.5292 50.6903 31.7258 50.6149C32.0937 50.4743 32.4618 50.3346 32.8302 50.1955C32.9426 50.1528 33.055 50.1101 33.1708 50.066C33.9529 49.7732 33.9529 49.7732 34.2678 49.7732C35.16 47.9715 35.7691 45.7512 35.3946 43.7191C35.0747 43.4053 35.0747 43.4053 34.6903 43.1426C33.4098 41.6463 32.0143 39.2793 32.0143 37.2327C31.9191 37.2934 31.824 37.3542 31.726 37.4168C31.5375 37.5352 31.5375 37.5352 31.3453 37.6561C31.2211 37.7347 31.0969 37.8133 30.9689 37.8943C30.271 38.285 29.5578 38.3631 28.7748 38.2417C27.4493 37.7746 26.4312 37.0018 25.7742 35.7214C25.2537 34.4694 25.0576 33.2177 25.0601 31.8633C25.0604 31.6651 25.0604 31.6651 25.0607 31.4629C25.0893 29.8328 25.463 28.4633 26.5389 27.2327C26.803 26.9984 26.803 26.9984 27.0847 26.9984C27.0641 26.92 27.0435 26.8416 27.0223 26.7607C26.9283 26.4016 26.8348 26.0424 26.7414 25.6831C26.6928 25.498 26.6928 25.498 26.6432 25.3092C26.0276 22.9353 25.9953 20.5356 26.803 18.2056C26.8508 18.0618 26.8985 17.918 26.9477 17.7698C27.7048 15.7129 28.961 13.9838 30.465 12.4399C30.5821 12.3191 30.6992 12.1983 30.8198 12.0739C37.204 5.59165 46.3687 4.4596 53.5816 10.1192Z" fill="#FED0AD"/>
<path d="M53.5817 10.1192C55.3373 11.4926 56.8909 12.2516 59.1094 12.3768C59.213 12.383 59.3167 12.3892 59.4235 12.3957C59.6768 12.4108 59.93 12.4254 60.1833 12.4399C60.6226 13.4203 60.6207 14.4681 60.3368 15.5007C60.0648 16.2062 59.7681 16.7829 59.2854 17.3588C58.9281 17.8086 58.8694 18.0698 58.9245 18.6471C58.9651 18.8849 59.0095 19.1222 59.0566 19.3588C59.3913 21.3283 59.3396 23.4496 58.8811 25.3903C58.6205 26.2855 58.6205 26.2855 58.7853 27.1544C58.8603 27.2367 58.9353 27.319 59.0125 27.4038C60.3255 29.0101 60.3149 31.063 60.1833 33.0525C59.9672 34.8563 59.4257 36.3029 58.0437 37.4934C57.4442 37.8975 56.9341 37.9904 56.2221 37.9804C56.0036 37.979 56.0036 37.979 55.7808 37.9776C55.3946 37.9534 55.3946 37.9534 54.9721 37.8092C54.9721 37.7141 54.9721 37.619 54.9721 37.5209C54.8326 37.5209 54.6932 37.5209 54.5495 37.5209C54.5784 37.3695 54.6073 37.2181 54.637 37.062C54.6753 36.8577 54.7137 36.6533 54.752 36.4489C54.7804 36.3002 54.7804 36.3002 54.8095 36.1485C55.0361 34.9323 55.1355 33.7372 55.1415 32.4995C55.1423 32.3671 55.1431 32.2347 55.1439 32.0982C55.1453 31.8189 55.1462 31.5395 55.1467 31.2602C55.1481 30.8424 55.1525 30.4247 55.1569 30.0069C55.1696 27.7555 55.0198 25.5185 54.259 23.3858C54.223 23.2768 54.1869 23.1679 54.1498 23.0556C53.9451 22.451 53.9451 22.451 53.5636 21.9534C53.3727 22.0289 53.3727 22.0289 53.1779 22.106C53.0118 22.1716 52.8457 22.2372 52.6745 22.3047C52.5095 22.3699 52.3444 22.4352 52.1744 22.5024C51.2778 22.8509 50.5116 22.8552 49.5583 22.8633C49.3204 22.8696 49.3204 22.8696 49.0777 22.876C47.0779 22.8913 45.1598 22.1546 43.7044 20.7191C43.3173 20.3053 43.0233 19.8381 42.7185 19.3588C42.6186 19.526 42.6186 19.526 42.5166 19.6966C41.1782 21.8541 39.6448 22.8801 37.2267 23.4359C36.4757 23.5884 35.7342 23.5921 34.9721 23.539C34.959 23.7842 34.959 23.7842 34.9456 24.0345C34.7791 25.5397 34.2722 27.0014 33.6516 28.3678C33.2912 29.1896 33.1958 29.7364 33.4228 30.602C33.8751 32.6061 33.543 34.716 32.576 36.5001C32.1907 37.1114 31.7983 37.4787 31.1692 37.8092C31.0777 37.8574 30.9862 37.9055 30.8919 37.9551C30.034 38.3401 29.2469 38.4101 28.3584 38.093C27.0797 37.5004 26.1781 36.6928 25.6235 35.3588C25.2079 34.2141 25.0579 33.0791 25.0601 31.8633C25.0603 31.7312 25.0605 31.599 25.0608 31.4629C25.0894 29.8328 25.4631 28.4633 26.539 27.2327C26.803 26.9984 26.803 26.9984 27.0847 26.9984C27.0641 26.92 27.0435 26.8416 27.0223 26.7607C26.9283 26.4016 26.8348 26.0424 26.7414 25.6831C26.709 25.5597 26.6766 25.4363 26.6432 25.3092C26.0276 22.9353 25.9953 20.5356 26.803 18.2056C26.8508 18.0618 26.8985 17.918 26.9477 17.7698C27.7048 15.7129 28.961 13.9838 30.465 12.4399C30.6407 12.2587 30.6407 12.2587 30.8199 12.0739C37.204 5.59165 46.3687 4.4596 53.5817 10.1192Z" fill="#3C657D"/>
<path d="M32.1552 51.2146C32.2946 51.2146 32.434 51.2146 32.5777 51.2146C32.6213 51.4599 32.6213 51.4599 32.6657 51.7101C33.084 53.3755 34.4308 54.5595 35.8154 55.4268C38.6948 57.1458 42.2841 57.7393 45.5442 56.8903C47.1308 56.3952 48.7869 55.557 49.631 54.0277C49.9746 53.3577 50.3204 52.6828 50.465 51.9354C54.412 52.9949 58.0073 54.9024 60.1377 58.5361C61.4837 61.0599 61.9718 64.1116 62.1552 66.9263C47.7932 66.9263 33.4312 66.9263 18.634 66.9263C18.9629 63.8971 18.9629 63.8971 19.2942 62.7281C19.3308 62.5957 19.3674 62.4632 19.4051 62.3268C19.9257 60.5087 20.6418 58.8104 21.7326 57.2687C21.8025 57.1689 21.8724 57.0691 21.9444 56.9663C23.4909 54.9711 26.1231 53.7309 28.3523 52.7732C28.5187 52.7001 28.685 52.627 28.8563 52.5516C29.7924 52.1449 30.73 51.7821 31.7002 51.4695C32.0065 51.3878 32.0065 51.3878 32.1552 51.2146Z" fill="#F6E0C7"/>
<path d="M43.8981 12.0885C43.9931 12.089 44.0882 12.0896 44.1861 12.0901C45.6813 12.1021 47.086 12.1837 48.4932 12.7281C48.5913 12.7661 48.6895 12.804 48.7906 12.8431C51.8126 14.0621 53.9132 16.2036 55.3104 19.2068C56.6881 22.558 56.9975 26.8659 55.8171 30.3137C55.7663 30.4092 55.7154 30.5048 55.663 30.6032C55.4786 31.0182 55.4739 31.4104 55.4474 31.8633C55.4368 32.032 55.4263 32.2007 55.4155 32.3745C55.4051 32.5674 55.4051 32.5674 55.3946 32.7642C55.3481 32.7642 55.3016 32.7642 55.2537 32.7642C55.2506 32.5499 55.2506 32.5499 55.2475 32.3313C55.4625 26.8248 55.4625 26.8248 53.5636 21.9534C53.3727 22.0289 53.3727 22.0289 53.1779 22.106C53.0118 22.1716 52.8457 22.2371 52.6745 22.3047C52.5095 22.3699 52.3444 22.4352 52.1744 22.5024C51.2778 22.8509 50.5116 22.8552 49.5583 22.8633C49.3204 22.8696 49.3204 22.8696 49.0777 22.876C47.0778 22.8913 45.1598 22.1546 43.7044 20.7191C43.3172 20.3053 43.0233 19.8381 42.7185 19.3588C42.6186 19.526 42.6186 19.526 42.5166 19.6966C41.1782 21.8541 39.6448 22.8801 37.2267 23.4359C36.4757 23.5884 35.7341 23.5921 34.972 23.539C34.959 23.7842 34.959 23.7842 34.9456 24.0345C34.7236 26.0235 33.9133 27.9174 33.141 29.7372C33.1035 29.6556 33.0659 29.574 33.0272 29.49C32.7893 29.0231 32.4947 28.6019 32.203 28.169C32.0143 27.8633 32.0143 27.8633 31.8734 27.4309C31.6247 27.2854 31.6247 27.2854 31.3101 27.1426C30.8677 26.919 30.8677 26.919 30.465 26.566C30.4104 26.1213 30.4078 25.8121 30.4562 25.3768C30.4661 25.2618 30.4761 25.1468 30.4863 25.0283C30.5198 24.6749 30.5611 24.3235 30.6058 23.9714C30.6185 23.8692 30.6311 23.7671 30.6441 23.6619C31.0686 20.4558 32.4498 17.7299 34.6903 15.4669C34.8491 15.3047 34.8491 15.3047 35.0111 15.1392C37.4147 12.8172 40.6837 12.0621 43.8981 12.0885Z" fill="#C47E4B"/>
<path d="M32.4368 36.5119C32.8116 36.8955 32.8791 37.3191 33.0178 37.8272C33.8462 40.6701 35.3326 43.2244 37.9002 44.7321C40.9285 46.393 44.3074 47.0023 47.648 46.0254C50.3468 45.1362 52.0171 43.2013 53.2818 40.6921C53.7819 39.6631 54.1823 38.6063 54.5494 37.5209C54.6889 37.5209 54.8283 37.5209 54.972 37.5209C54.972 37.6161 54.972 37.7112 54.972 37.8092C55.1114 37.8568 55.2509 37.9044 55.3945 37.9534C55.3016 37.9534 55.2086 37.9534 55.1128 37.9534C55.0783 38.1381 55.0438 38.3228 55.0083 38.5131C54.8416 39.277 54.5673 39.9638 54.2502 40.6741C54.1656 40.8639 54.1656 40.8639 54.0793 41.0575C53.0666 43.2687 51.5596 44.9643 49.479 46.1696C49.3897 46.2216 49.3004 46.2736 49.2083 46.3272C48.8431 46.5271 48.6335 46.602 48.2114 46.602C48.1992 47.1455 48.1917 47.689 48.185 48.2327C48.1815 48.3872 48.1779 48.5417 48.1743 48.7008C48.1729 48.849 48.1716 48.9972 48.1702 49.1499C48.1679 49.2865 48.1657 49.4231 48.1635 49.5639C48.1864 49.9141 48.1864 49.9141 48.3612 50.1561C48.7625 50.441 49.2019 50.5932 49.6595 50.7563C49.8691 50.8336 50.0787 50.9109 50.2883 50.9882C50.3978 51.0281 50.5072 51.068 50.62 51.1091C54.942 52.6896 59.0368 54.409 61.134 58.8903C61.8654 60.5368 62.279 62.2659 62.6216 64.0345C62.6579 64.2186 62.6579 64.2186 62.6949 64.4064C62.8493 65.2537 62.8865 66.0655 62.8593 66.9263C62.6269 66.9263 62.3945 66.9263 62.1551 66.9263C62.1344 66.7567 62.1137 66.5871 62.0924 66.4123C61.5902 62.5463 60.7101 57.9441 57.5424 55.3768C55.4522 53.8133 52.8855 52.8339 50.4649 51.9354C50.4488 52.0859 50.4326 52.2364 50.416 52.3914C50.1687 53.8797 49.2432 54.9689 48.0706 55.8272C46.2474 56.9623 44.4486 57.351 42.3223 57.3318C42.1495 57.3305 41.9767 57.3292 41.7987 57.3278C38.7021 57.2675 35.9955 56.0526 33.722 53.8903C33.1234 53.2438 32.5944 52.5158 32.5595 51.6071C32.5685 51.4128 32.5685 51.4128 32.5776 51.2146C25.2571 53.9148 25.2571 53.9148 20.4198 59.8112C20.0288 60.7201 19.7266 61.6416 19.479 62.602C19.4404 62.7419 19.4017 62.8819 19.3618 63.026C19.0982 64.0241 18.9531 65.0149 18.8353 66.0395C18.7748 66.4939 18.7748 66.4939 18.634 66.9263C18.448 66.9263 18.2621 66.9263 18.0706 66.9263C17.85 63.4343 19.1753 59.1118 21.4267 56.4461C22.6221 55.1544 23.8717 54.2099 25.3945 53.3768C25.5394 53.2967 25.5394 53.2967 25.6873 53.2151C27.5027 52.2309 29.4159 51.5003 31.3364 50.7642C31.4649 50.7149 31.5934 50.6656 31.7258 50.6149C32.0936 50.4743 32.4618 50.3346 32.8302 50.1955C32.9426 50.1528 33.055 50.1101 33.1708 50.066C33.9528 49.7732 33.9528 49.7732 34.2678 49.7732C35.1599 47.9715 35.7691 45.7512 35.3945 43.7191C35.0746 43.4053 35.0746 43.4053 34.6903 43.1426C33.4231 41.6619 31.8822 39.1419 32.0142 37.0885C32.2255 36.7552 32.2255 36.7552 32.4368 36.5119Z" fill="#D5B898"/>
<path d="M53.585 13.2272C56.0602 15.4737 57.8105 18.8519 58.0706 22.2417C58.101 22.9565 58.1116 23.6704 58.1147 24.3858C58.1158 24.6574 58.1158 24.6574 58.1171 24.9344C58.1067 26.2408 58.1067 26.2408 57.7889 26.566C57.4192 26.5119 57.4192 26.5119 57.0847 26.4218C57.0834 26.3409 57.0821 26.2599 57.0807 26.1765C56.9931 21.8416 56.132 17.8471 53.0002 14.7462C51.3555 13.1505 49.29 12.171 47.0847 11.7191C46.938 11.687 46.7913 11.6549 46.6402 11.6217C42.909 10.913 38.8083 11.6091 35.6378 13.7619C32.3577 16.2141 30.6212 19.7422 29.9853 23.7901C29.8588 24.6635 29.8004 25.54 29.7608 26.4218C29.9264 26.4545 30.0919 26.4873 30.2625 26.5209C31.3824 26.8176 32.0062 27.4945 32.6377 28.4646C33.6937 30.4063 33.8668 32.8008 33.2819 34.9264C32.8272 36.1316 32.3395 37.1943 31.1692 37.8092C31.0777 37.8574 30.9862 37.9055 30.8919 37.9551C30.034 38.3401 29.2469 38.4101 28.3584 38.093C27.0797 37.5004 26.1781 36.6928 25.6235 35.3588C25.2079 34.2141 25.0579 33.0791 25.0601 31.8633C25.0603 31.7312 25.0605 31.599 25.0608 31.4629C25.0873 29.9537 25.3739 28.4938 26.4333 27.3695C26.9079 26.9205 27.2897 26.7569 27.9298 26.7101C27.9298 26.5674 27.9298 26.4247 27.9298 26.2777C28.1157 26.3253 28.3016 26.3728 28.4932 26.4218C28.4899 26.2838 28.4866 26.1457 28.4833 26.0035C28.4094 21.5266 29.5959 17.4641 32.6589 14.1557C38.2132 8.35213 47.5404 7.98551 53.585 13.2272Z" fill="#3D667F"/>
<path d="M53.5816 10.1192C55.3372 11.4926 56.8909 12.2516 59.1093 12.3768C59.213 12.383 59.3167 12.3892 59.4235 12.3957C59.6767 12.4108 59.93 12.4254 60.1833 12.4399C60.6226 13.4203 60.6207 14.4681 60.3368 15.5007C60.0647 16.2062 59.768 16.7829 59.2854 17.3588C58.9281 17.8086 58.8693 18.0698 58.9245 18.6471C58.9651 18.8849 59.0094 19.1222 59.0565 19.3588C59.4197 21.4953 59.3173 23.7534 58.7748 25.8453C58.7284 25.8453 58.6819 25.8453 58.634 25.8453C58.6369 25.7453 58.6399 25.6454 58.6429 25.5424C58.6963 23.4498 58.6724 21.513 58.0706 19.5029C58.018 19.3244 57.9653 19.1458 57.9111 18.9618C57.245 16.9057 56.191 15.227 54.8312 13.593C54.7489 13.4938 54.6667 13.3946 54.5819 13.2923C52.2438 10.7116 48.4841 9.14611 45.1033 8.95612C40.7206 8.79987 36.8632 9.65833 33.4227 12.584C33.31 12.6756 33.1972 12.7672 33.0811 12.8616C30.362 15.1698 28.4784 18.8043 28.0706 22.3858C27.9721 23.8251 27.9459 25.2677 27.9298 26.7101C27.6509 26.7577 27.372 26.8053 27.0847 26.8543C26.9697 26.44 26.8554 26.0256 26.7414 25.611C26.709 25.4945 26.6766 25.378 26.6432 25.258C26.0018 22.9178 26.006 20.5046 26.803 18.2056C26.8508 18.0618 26.8985 17.918 26.9477 17.7698C27.7048 15.7129 28.961 13.9838 30.465 12.4399C30.5821 12.3191 30.6992 12.1983 30.8198 12.0739C37.204 5.59165 46.3687 4.4596 53.5816 10.1192Z" fill="#C37B48"/>
<path d="M36.2396 44.8723C36.3558 44.9422 36.472 45.012 36.5917 45.084C40.0302 47.1342 43.42 48.8733 47.5072 47.8993C47.5157 48.0591 47.5243 48.2189 47.5331 48.3836C47.545 48.5945 47.5569 48.8055 47.5688 49.0164C47.5744 49.1216 47.5799 49.2268 47.5856 49.3351C47.6166 49.9196 47.6166 49.9196 47.7185 50.4941C47.8906 51.1986 47.8816 51.7456 47.5688 52.3858C46.6343 53.5139 45.5804 54.2047 44.1269 54.3858C42.1334 54.5151 40.3443 54.4641 38.4931 53.6651C38.3609 53.6114 38.2288 53.5577 38.0926 53.5024C36.8203 52.9257 35.4064 51.7294 34.6903 50.4939C34.7313 50.071 34.829 49.92 35.0952 49.584C36.1194 48.2583 36.1454 46.491 36.2396 44.8723Z" fill="#FECFAE"/>
<path d="M53.585 13.2272C56.0602 15.4737 57.8105 18.8519 58.0707 22.2417C58.101 22.9565 58.1116 23.6704 58.1147 24.3858C58.1159 24.6574 58.1159 24.6574 58.1171 24.9344C58.1067 26.2408 58.1067 26.2408 57.789 26.566C57.4192 26.5119 57.4192 26.5119 57.0847 26.4218C57.0834 26.3409 57.0821 26.2599 57.0807 26.1765C56.9931 21.8416 56.132 17.8471 53.0002 14.7462C51.3555 13.1505 49.29 12.171 47.0847 11.7191C46.938 11.687 46.7913 11.6549 46.6402 11.6217C42.909 10.913 38.8083 11.6091 35.6378 13.7619C32.3577 16.2141 30.6212 19.7422 29.9853 23.7901C29.8588 24.6635 29.8004 25.54 29.7608 26.4218C29.1333 26.4932 29.1333 26.4932 28.4932 26.566C28.3898 21.868 29.4185 17.6557 32.6589 14.1557C38.2132 8.35213 47.5404 7.98551 53.585 13.2272Z" fill="#598EB2"/>
<path d="M32.4368 36.5119C32.8116 36.8955 32.8791 37.3191 33.0178 37.8272C33.8462 40.6701 35.3326 43.2244 37.9003 44.7321C40.9285 46.393 44.3074 47.0023 47.6481 46.0254C50.3468 45.1362 52.0172 43.2013 53.2819 40.6921C53.7819 39.6631 54.1823 38.6063 54.5495 37.5209C54.6889 37.5209 54.8284 37.5209 54.972 37.5209C54.972 37.6161 54.972 37.7112 54.972 37.8092C55.1115 37.8568 55.2509 37.9044 55.3946 37.9534C55.3016 37.9534 55.2086 37.9534 55.1129 37.9534C55.0784 38.1381 55.0439 38.3228 55.0083 38.5131C54.8416 39.277 54.5673 39.9638 54.2502 40.6741C54.1656 40.8639 54.1656 40.8639 54.0793 41.0575C53.0666 43.2687 51.5596 44.9643 49.4791 46.1696C49.3897 46.2216 49.3004 46.2736 49.2084 46.3272C48.8431 46.5271 48.6336 46.602 48.2115 46.602C48.2033 47.1426 48.1983 47.6831 48.1939 48.2236C48.1903 48.4536 48.1903 48.4536 48.1867 48.6882C48.1858 48.8359 48.1849 48.9836 48.184 49.1358C48.1825 49.2717 48.181 49.4076 48.1795 49.5475C48.2129 49.9344 48.3164 50.156 48.4932 50.4939C48.4403 50.8182 48.4403 50.8182 48.3523 51.0705C48.1664 51.0705 47.9805 51.0705 47.7889 51.0705C47.5085 50.3541 47.4722 49.7554 47.4896 48.9984C47.4909 48.8923 47.4922 48.7862 47.4935 48.6769C47.4968 48.4177 47.5018 48.1585 47.5072 47.8993C47.4085 47.9439 47.3097 47.9885 47.2079 48.0345C44.7858 48.9506 41.9943 48.06 39.7531 47.0248C38.5791 46.4486 37.4559 45.766 36.3805 45.0164C36.365 45.1766 36.3496 45.3368 36.3337 45.5018C35.9767 49.0097 35.9767 49.0097 34.6815 50.1876C34.2678 50.4939 34.2678 50.4939 33.8453 50.4939C33.8917 50.2561 33.9382 50.0182 33.9861 49.7732C34.0791 49.7732 34.172 49.7732 34.2678 49.7732C35.16 47.9715 35.7691 45.7512 35.3946 43.7191C35.0747 43.4053 35.0747 43.4053 34.6903 43.1426C33.4231 41.6619 31.8823 39.1419 32.0143 37.0885C32.2256 36.7552 32.2256 36.7552 32.4368 36.5119Z" fill="#CD7D59"/>
<path d="M53.6984 12.3475C53.8417 12.474 53.9846 12.6008 54.127 12.7281C54.2847 12.8675 54.2847 12.8675 54.4456 13.0097C56.538 15.0078 57.8472 17.6898 58.4932 20.5119C58.5248 20.6344 58.5564 20.7568 58.589 20.883C58.9611 22.5446 58.8832 24.4283 58.6517 26.1065C58.5837 26.7362 58.679 27.029 59.0478 27.539C59.1874 27.6991 59.3298 27.8568 59.4791 28.0074C59.4327 28.1026 59.3862 28.1977 59.3383 28.2957C59.1797 28.0887 59.0212 27.8814 58.8629 27.6741C58.7747 27.5587 58.6865 27.4433 58.5956 27.3244C58.1447 26.7201 58.0352 26.4162 58.0272 25.6589C58.024 25.4769 58.0208 25.2949 58.0175 25.1074C58.0162 25.0116 58.0149 24.9158 58.0136 24.817C57.9483 20.5484 56.9171 16.8925 53.9862 13.7372C50.9378 10.8132 46.9738 9.5725 42.8501 9.67465C41.1171 9.75743 39.5531 10.1155 37.9298 10.7101C37.703 10.7926 37.703 10.7926 37.4715 10.8768C35.7871 11.5421 34.4356 12.6133 33.1411 13.8813C33.034 13.9801 32.9269 14.079 32.8165 14.1808C29.4369 17.4122 28.7171 21.9416 28.4932 26.4218C28.3073 26.3743 28.1214 26.3267 27.9298 26.2777C27.7801 22.1352 28.3351 18.5064 30.8876 15.1786C30.9827 15.0543 30.9827 15.0543 31.0797 14.9275C33.6916 11.5629 37.183 9.37683 41.397 8.86518C45.8463 8.48175 50.2221 9.36132 53.6984 12.3475Z" fill="#4B505A"/>
<path d="M52.6817 14.3075C52.8394 14.4533 52.8394 14.4533 53.0002 14.602C53.1601 14.7456 53.1601 14.7456 53.3232 14.892C55.5883 17.0505 56.759 20.1493 57.0847 23.2507C57.1004 23.8004 57.0981 24.3494 57.0935 24.8993C57.0929 25.046 57.0923 25.1927 57.0916 25.3439C57.09 25.7032 57.0877 26.0625 57.0847 26.4218C56.8524 26.3743 56.62 26.3267 56.3805 26.2777C56.3751 26.0313 56.3751 26.0313 56.3695 25.78C56.2617 22.3239 55.5455 19.3134 53.5636 16.4759C53.4874 16.3665 53.4111 16.257 53.3325 16.1442C51.7638 14.1212 48.9603 12.7152 46.4954 12.3386C44.0857 12.0781 41.5104 12.0869 39.1974 12.8723C39.1054 12.9024 39.0135 12.9325 38.9187 12.9636C35.7954 14.017 33.5155 16.3478 32.0402 19.2929C31.0048 21.6431 30.7205 24.028 30.465 26.566C30.2326 26.5184 30.0002 26.4709 29.7608 26.4218C29.5917 22.3764 30.8954 18.4741 33.5636 15.4669C33.648 15.3671 33.7325 15.2673 33.8195 15.1645C38.3933 10.0791 47.636 9.89474 52.6817 14.3075Z" fill="#4C515B"/>
<path d="M27.8506 27.4218C28.8916 27.8636 29.2517 28.5865 29.7328 29.5879C30.1141 30.5758 30.0775 31.6092 30.0865 32.6561C30.0906 32.812 30.0947 32.9679 30.0989 33.1285C30.1081 34.3257 29.9546 35.4876 29.1006 36.3768C28.9931 36.469 28.8856 36.5611 28.7749 36.6561C28.7284 36.7036 28.6819 36.7512 28.6341 36.8002C27.6895 36.9313 27.6895 36.9313 27.2647 36.6257C25.9979 35.2132 25.7552 33.1809 25.7913 31.3419C25.8706 29.9563 26.2118 28.6579 27.1552 27.62C27.5073 27.4309 27.5073 27.4309 27.8506 27.4218Z" fill="#538BB0"/>
<path d="M34.127 50.7822C34.3794 51.0439 34.6093 51.3038 34.84 51.584C36.4268 53.4219 38.6206 54.7654 41.0439 55.0058C41.5032 55.0253 41.9595 55.0298 42.4192 55.0254C42.5804 55.0243 42.7416 55.0233 42.9077 55.0221C44.0604 54.9991 45.0488 54.9083 46.0988 54.3858C46.2175 54.3297 46.3363 54.2736 46.4586 54.2158C47.4262 53.6671 47.8192 52.8207 48.2115 51.7912C48.2632 51.6003 48.3124 51.4085 48.3523 51.2146C48.9604 51.2878 49.4837 51.3871 50.0424 51.6471C49.6362 53.3939 48.8479 54.5561 47.3664 55.539C44.7456 56.9872 41.4842 57.0766 38.6658 56.2223C37.2133 55.7276 35.8173 55.025 34.6903 53.9534C34.5807 53.8508 34.471 53.7482 34.358 53.6426C33.0227 52.3385 33.0227 52.3385 32.7185 51.5029C32.7521 51.1932 32.7521 51.1932 32.8594 50.9263C33.3292 50.6534 33.6269 50.5701 34.127 50.7822Z" fill="#F6E1C8"/>
<path d="M57.1728 27.2056C57.6201 27.2109 57.8576 27.2353 58.2275 27.4984C59.4437 28.8417 59.5258 30.5818 59.5088 32.3346C59.4257 33.9411 59.067 35.5503 57.9821 36.7698C57.4166 37.2505 56.9224 37.3012 56.2006 37.258C56.1206 37.2496 56.0405 37.2413 55.958 37.2327C56.0495 36.9785 56.0495 36.9785 56.1429 36.7191C56.9755 34.1018 57.0293 31.4902 56.473 28.8098C56.3874 28.3337 56.3521 27.9132 56.3805 27.4309C56.6096 27.1964 56.8566 27.2286 57.1728 27.2056Z" fill="#538BB0"/>
<path d="M28.9156 27.1426C29.8083 27.0429 30.2906 27.1982 31.0135 27.7445C31.4904 28.1674 31.8382 28.6026 32.1551 29.1606C32.2134 29.2628 32.2716 29.365 32.3317 29.4703C33.034 31.018 33.0141 33.4068 32.472 35.0074C32.3146 35.356 32.3146 35.356 32.1551 35.6471C32.0679 35.8076 31.9808 35.9682 31.891 36.1336C31.487 36.6443 31.0457 37.0796 30.4649 37.3768C30.2245 37.3869 29.9837 37.389 29.7431 37.3858C29.5508 37.3839 29.5508 37.3839 29.3547 37.3819C29.2071 37.3794 29.2071 37.3794 29.0565 37.3768C29.1843 37.24 29.3121 37.1033 29.4438 36.9624C30.9246 35.2068 30.7252 32.7712 30.6058 30.602C30.4591 29.3962 29.9625 28.4834 29.1973 27.575C29.1044 27.4323 29.0114 27.2896 28.9156 27.1426Z" fill="#538BB0"/>
<path d="M34.6793 50.5243C35.048 50.6676 35.1853 50.846 35.4298 51.1606C36.7928 52.8121 38.6205 53.9506 40.7467 54.2417C42.7828 54.3859 44.9307 54.4917 46.6622 53.2327C47.3686 52.5993 47.6281 52.0087 47.7889 51.0705C47.9748 51.0705 48.1608 51.0705 48.3523 51.0705C48.2953 52.1405 48.0098 52.9949 47.2646 53.7749C45.3768 55.3498 42.9009 55.2363 40.6058 55.1065C39.9053 55.0246 39.2797 54.819 38.634 54.53C38.549 54.492 38.4641 54.4541 38.3766 54.415C36.6511 53.6208 35.2887 52.4587 34.127 50.9263C34.127 50.8312 34.127 50.7361 34.127 50.6381C34.4086 50.4939 34.4086 50.4939 34.6793 50.5243Z" fill="#D1AC91"/>
<path d="M42.296 18.3498C42.4354 18.3498 42.5749 18.3498 42.7185 18.3498C42.9199 18.5716 42.9199 18.5716 43.1235 18.8723C43.724 19.8174 43.724 19.8174 44.5495 20.5119C44.5495 20.6071 44.5495 20.7022 44.5495 20.8002C44.6485 20.8389 44.7474 20.8775 44.8494 20.9173C45.4223 21.1598 45.9658 21.4553 46.5164 21.7462C47.2728 22.1128 47.8844 22.2773 48.7242 22.2597C48.9851 22.2563 48.9851 22.2563 49.2513 22.2529C49.4311 22.2492 49.6108 22.2455 49.796 22.2417C50.1547 22.2343 50.5134 22.2283 50.8721 22.2236C51.0305 22.2203 51.1889 22.2169 51.352 22.2135C51.7326 22.2417 51.7326 22.2417 52.0143 22.5299C51.1964 22.9128 50.4264 22.8713 49.5407 22.8723C49.3834 22.8758 49.2261 22.8793 49.064 22.883C47.0721 22.8901 45.1533 22.1481 43.7044 20.7191C43.3173 20.3053 43.0233 19.8381 42.7185 19.3588C42.6519 19.4703 42.5853 19.5817 42.5166 19.6966C41.1782 21.8541 39.6448 22.8801 37.2267 23.4359C36.4757 23.5884 35.7341 23.5921 34.972 23.539C35.0185 23.4438 35.065 23.3487 35.1129 23.2507C35.391 23.1632 35.391 23.1632 35.7549 23.0902C35.8879 23.0619 36.0209 23.0335 36.158 23.0043C36.4362 22.9474 36.7146 22.891 36.9931 22.8354C38.9998 22.4047 40.5162 21.3559 41.7068 19.6369C41.9549 19.2228 42.1294 18.8043 42.296 18.3498Z" fill="#B36B3D"/>
<path d="M54.5494 37.5209C54.6889 37.5209 54.8283 37.5209 54.972 37.5209C54.972 37.6161 54.972 37.7112 54.972 37.8092C55.1114 37.8568 55.2509 37.9044 55.3945 37.9534C55.3016 37.9534 55.2086 37.9534 55.1128 37.9534C55.0783 38.1381 55.0438 38.3228 55.0083 38.5131C54.8416 39.277 54.5673 39.9638 54.2502 40.6741C54.1938 40.8006 54.1374 40.9271 54.0793 41.0575C53.0658 43.2704 51.5591 44.9613 49.479 46.1696C49.3897 46.2233 49.3004 46.277 49.2083 46.3323C48.9861 46.4579 48.9861 46.4579 48.634 46.602C48.4945 46.5544 48.3551 46.5069 48.2114 46.4579C48.331 46.4005 48.331 46.4005 48.453 46.3419C48.5563 46.291 48.6596 46.2401 48.766 46.1876C48.9204 46.1123 48.9204 46.1123 49.078 46.0356C49.3612 45.9003 49.3612 45.9003 49.479 45.593C49.3454 45.6673 49.2118 45.7417 49.0741 45.8182C48.9289 45.8866 48.7836 45.955 48.634 46.0254C48.541 45.9779 48.448 45.9303 48.3523 45.8813C48.4681 45.8131 48.5839 45.7449 48.7033 45.6747C51.8292 43.7795 53.4368 40.9896 54.5494 37.5209Z" fill="#C26E4B"/>
<path d="M40.8875 38.3858C41.4082 38.4885 41.8354 38.7147 42.3048 38.9624C43.6234 39.6563 45.142 39.7996 46.5907 39.4049C46.8448 39.3028 47.0964 39.1936 47.3433 39.0744C47.6968 38.9445 47.8637 38.9773 48.2115 39.1065C48.2115 39.4308 48.2115 39.4308 48.0706 39.8272C46.9807 40.6667 45.4418 40.8295 44.127 40.6921C42.8043 40.437 41.787 39.9798 40.7467 39.1065C40.7932 38.8687 40.8397 38.6308 40.8875 38.3858Z" fill="#C67856"/>
<path d="M50.4298 28.53C51.032 28.6011 51.2112 28.8374 51.5917 29.3047C51.8512 29.8358 51.7835 30.4535 51.7326 31.0345C51.5054 31.5658 51.3621 31.7197 50.8875 32.0435C50.0111 32.0114 50.0111 32.0114 49.6375 31.6291C49.2933 30.9637 49.2448 30.3311 49.3382 29.593C49.58 29.0498 49.8372 28.6127 50.4298 28.53Z" fill="#614331"/>
<path d="M39.4527 28.539C39.9017 28.584 39.9017 28.584 40.2274 28.8543C40.7669 29.5496 40.6822 30.3232 40.6059 31.1786C40.4759 31.6074 40.3743 31.7213 40.0425 32.0435C39.5496 32.2056 39.5496 32.2056 39.0566 32.1876C38.6417 31.8747 38.5157 31.68 38.3524 31.1786C38.2138 29.6976 38.2138 29.6976 38.6253 29.0705C39.0361 28.5863 39.0361 28.5863 39.4527 28.539Z" fill="#5F4130"/>
<path d="M45.958 29.7372C46.0974 29.7847 46.2369 29.8323 46.3805 29.8813C46.532 30.206 46.6576 30.5173 46.7767 30.8543C47.0494 31.599 47.3481 32.3062 47.701 33.0164C48.0862 33.86 48.2426 34.5795 48.0707 35.5029C47.8209 36.0535 47.6116 36.2933 47.1288 36.6381C46.5353 36.8443 46.0148 36.8383 45.3946 36.8002C45.3408 36.5615 45.2941 36.321 45.2538 36.0795C45.4714 35.8568 45.7003 35.908 46.002 35.8903C46.4411 35.8424 46.6432 35.8036 47.0232 35.557C47.31 35.0719 47.2725 34.7707 47.2256 34.2056C47.0774 33.7561 46.8819 33.3348 46.6798 32.9083C45.7323 30.866 45.7323 30.866 45.8172 29.8813C45.8636 29.8337 45.9101 29.7862 45.958 29.7372Z" fill="#C87A56"/>
<path d="M32.4369 36.5119C32.8117 36.8955 32.8792 37.3191 33.0178 37.8272C33.5762 39.7479 34.4568 41.4317 35.6763 42.9984C35.5369 43.0698 35.5369 43.0698 35.3946 43.1426C35.3481 43.2853 35.3016 43.428 35.2538 43.575C33.6868 42.0685 32.1242 39.6987 31.9923 37.4309C32.0197 37.0048 32.1641 36.826 32.4369 36.5119Z" fill="#C77250"/>
<path d="M56.3805 26.2777C56.4789 26.2898 56.5773 26.3019 56.6787 26.3143C56.8069 26.329 56.935 26.3437 57.0671 26.3588C57.1946 26.3738 57.322 26.3889 57.4533 26.4044C57.7913 26.4502 57.7913 26.4502 58.0706 26.2777C58.1883 26.4605 58.1883 26.4605 58.3083 26.6471C58.5336 26.9921 58.762 27.3345 58.9949 27.6741C59.0503 27.7549 59.1057 27.8357 59.1627 27.919C59.333 28.1583 59.333 28.1583 59.5556 28.3554C60.1223 28.9867 60.2024 29.963 60.1784 30.7867C60.1488 31.3515 60.0997 31.9134 60.0425 32.4759C59.9495 32.2856 59.8565 32.0954 59.7608 31.8993C59.7143 32.2799 59.6678 32.6604 59.6199 33.0525C59.5735 33.0525 59.527 33.0525 59.4791 33.0525C59.4735 32.9596 59.4679 32.8667 59.4622 32.771C59.435 32.3421 59.4042 31.9135 59.3735 31.4849C59.3647 31.3389 59.356 31.1928 59.347 31.0423C59.2579 29.8566 58.9801 28.7814 58.3435 27.7732C57.7262 27.2624 57.1451 27.3568 56.3805 27.4308C56.3805 27.0503 56.3805 26.6698 56.3805 26.2777Z" fill="#3E647C"/>
<path d="M41.4509 24.9804C41.5829 25.3678 41.5829 25.3678 41.5917 25.7011C41.1288 25.8164 40.9283 25.8592 40.465 25.7011C39.4341 25.5782 38.719 25.7163 37.8296 26.2642C37.4609 26.4445 37.2066 26.451 36.803 26.4218C36.803 26.0345 36.803 26.0345 36.9438 25.557C38.1157 24.4533 40.0779 24.1315 41.4509 24.9804Z" fill="#B16C42"/>
<path d="M51.7865 24.7698C52.3665 24.9752 52.8608 25.2432 53.2819 25.7011C53.3259 26.0975 53.3259 26.0975 53.2819 26.4218C52.8133 26.3648 52.4746 26.3 52.0627 26.057C51.4638 25.7877 50.9861 25.7964 50.3417 25.8182C50.2313 25.8202 50.121 25.8221 50.0072 25.8241C49.7372 25.8292 49.4673 25.837 49.1974 25.8453C49.1509 25.6074 49.1044 25.3696 49.0565 25.1245C49.9006 24.5276 50.8011 24.5417 51.7865 24.7698Z" fill="#B46E44"/>
<path d="M56.3806 61.8813C56.52 61.9289 56.6594 61.9764 56.8031 62.0254C57.0283 63.6695 57.1213 65.2666 57.0848 66.9263C56.8524 66.9263 56.62 66.9263 56.3806 66.9263C56.1766 63.2208 56.1766 63.2208 56.2397 62.0254C56.2862 61.9779 56.3327 61.9303 56.3806 61.8813Z" fill="#D5B798"/>
<path d="M27.9298 62.0255C28.0227 62.0255 28.1157 62.0255 28.2114 62.0255C28.577 63.0166 28.5247 63.9956 28.5107 65.0435C28.5095 65.2245 28.5082 65.4056 28.5069 65.5922C28.5036 66.0369 28.499 66.4816 28.4931 66.9264C28.2607 66.9264 28.0283 66.9264 27.7889 66.9264C27.7854 66.2516 27.7829 65.5768 27.7812 64.902C27.7805 64.6722 27.7795 64.4425 27.7783 64.2128C27.7766 63.8833 27.7758 63.5537 27.7752 63.2242C27.7744 63.1209 27.7737 63.0176 27.7729 62.9112C27.7729 62.6639 27.7802 62.4167 27.7889 62.1696C27.8354 62.122 27.8819 62.0745 27.9298 62.0255Z" fill="#D1B392"/>
<path d="M27.2255 26.9984C27.2255 27.0935 27.2255 27.1887 27.2255 27.2867C27.5044 27.2867 27.7833 27.2867 28.0706 27.2867C27.9922 27.3224 27.9137 27.3581 27.8329 27.3948C27.0249 27.8418 26.6533 28.3452 26.2396 29.1606C26.1002 29.1606 25.9607 29.1606 25.8171 29.1606C25.6776 29.5173 25.6776 29.5173 25.5354 29.8813C25.4889 29.8813 25.4424 29.8813 25.3945 29.8813C25.4536 28.752 25.8301 28.0681 26.5389 27.2146C26.803 26.9984 26.803 26.9984 27.2255 26.9984Z" fill="#355F79"/>
<path d="M45.958 29.7372C46.3805 29.8813 46.3805 29.8813 46.5808 30.2901C46.6425 30.4584 46.7042 30.6268 46.7678 30.8002C46.831 30.9678 46.8942 31.1354 46.9593 31.3081C47.0847 31.7552 47.0847 31.7552 46.9439 32.1876C46.8509 32.0925 46.758 31.9973 46.6622 31.8993C46.6157 32.0896 46.5693 32.2799 46.5214 32.4759C46.1476 31.6076 45.8679 30.8335 45.8171 29.8813C45.8636 29.8337 45.9101 29.7862 45.958 29.7372Z" fill="#C47551"/>
<path d="M25.6763 30.8903C25.7228 30.8903 25.7693 30.8903 25.8172 30.8903C25.8729 31.4005 25.9246 31.9111 25.9756 32.4219C25.9914 32.5659 26.0072 32.7099 26.0235 32.8582C26.0979 33.6255 26.1349 34.2054 25.8172 34.9264C25.7707 35.0691 25.7242 35.2118 25.6763 35.3588C25.3271 34.4589 25.2087 33.7324 25.2538 32.7642C25.3932 32.9782 25.3932 32.9782 25.5355 33.1966C25.5819 32.4355 25.6284 31.6745 25.6763 30.8903Z" fill="#335E78"/>
<path d="M40.8875 38.3858C41.4502 38.4744 41.8375 38.7759 42.296 39.1065C42.1566 39.1779 42.1566 39.1779 42.0143 39.2507C42.1739 39.7406 42.3136 39.8348 42.7185 40.1155C42.1565 40.0348 41.7994 39.8623 41.3365 39.5299C41.2252 39.451 41.1139 39.372 40.9992 39.2906C40.9159 39.2299 40.8326 39.1691 40.7467 39.1065C40.7932 38.8687 40.8397 38.6308 40.8875 38.3858Z" fill="#C37351"/>
<path d="M28.3523 63.0345C28.3988 63.0345 28.4453 63.0345 28.4932 63.0345C28.4932 64.3188 28.4932 65.6031 28.4932 66.9263C28.3073 66.9263 28.1214 66.9263 27.9298 66.9263C27.9298 66.1177 27.9298 65.309 27.9298 64.4759C28.0228 64.4283 28.1157 64.3808 28.2115 64.3318C28.2772 64.0253 28.2772 64.0253 28.2995 63.6741C28.3101 63.555 28.3206 63.4359 28.3314 63.3132C28.3383 63.2212 28.3452 63.1292 28.3523 63.0345Z" fill="#DABD9E"/>
<path d="M53.4228 40.4038C53.6087 40.4514 53.7946 40.499 53.9862 40.548C53.8468 41.0712 53.7073 41.5945 53.5637 42.1336C53.4707 42.1336 53.3777 42.1336 53.282 42.1336C53.0531 42.3438 53.0531 42.3438 52.8594 42.566C52.6868 42.036 52.7733 41.9056 52.9827 41.4038C53.0346 41.2773 53.0865 41.1507 53.14 41.0204C53.2298 40.8128 53.3236 40.6069 53.4228 40.4038Z" fill="#C97856"/>
<path d="M56.2396 22.53C56.5532 23.1717 56.5765 23.6211 56.6137 24.3233C56.6398 24.7264 56.6398 24.7264 56.9438 25.1245C57.0022 25.4506 57.0022 25.4506 57.0319 25.8002C57.0424 25.9167 57.0529 26.0332 57.0638 26.1533C57.0741 26.2862 57.0741 26.2862 57.0847 26.4218C56.8523 26.3743 56.6199 26.3267 56.3805 26.2777C56.334 25.0409 56.2875 23.8042 56.2396 22.53Z" fill="#3F5264"/>
<path d="M33.0002 34.6381C33.1503 35.0316 33.1523 35.1848 33.0008 35.5863C32.9338 35.7134 32.8668 35.8404 32.7978 35.9714C32.7311 36.1 32.6645 36.2286 32.5958 36.361C32.5434 36.4584 32.4909 36.5558 32.4368 36.6561C32.3439 36.4658 32.2509 36.2755 32.1552 36.0795C32.0905 36.1594 32.0259 36.2393 31.9593 36.3216C31.8729 36.426 31.7865 36.5305 31.6974 36.6381C31.6124 36.7417 31.5275 36.8454 31.4399 36.9523C31.1658 37.2362 30.9745 37.3937 30.6059 37.5209C30.289 37.4669 30.289 37.4669 30.0425 37.3768C30.1156 37.3452 30.1888 37.3136 30.2642 37.2811C31.0012 36.9381 31.3913 36.5981 31.8735 35.9354C32.1023 35.6651 32.1023 35.6651 32.296 35.5029C32.4354 35.5029 32.5749 35.5029 32.7185 35.5029C32.8115 35.2175 32.9045 34.9321 33.0002 34.6381Z" fill="#365F79"/>
<path d="M55.3946 28.4399C55.6147 28.6741 55.6147 28.6741 55.8172 29.0164C55.7783 29.306 55.7289 29.594 55.6763 29.8813C55.6195 30.3791 55.5736 30.8779 55.5267 31.3768C55.5139 31.5104 55.5011 31.644 55.4879 31.7816C55.4565 32.1091 55.4255 32.4366 55.3946 32.7642C55.3481 32.7642 55.3017 32.7642 55.2538 32.7642C55.2503 32.1715 55.2477 31.5788 55.246 30.9861C55.2453 30.7844 55.2444 30.5826 55.2432 30.3808C55.2415 30.0914 55.2407 29.802 55.24 29.5125C55.2393 29.3381 55.2386 29.1638 55.2378 28.9841C55.2538 28.584 55.2538 28.584 55.3946 28.4399Z" fill="#C98B5D"/>
<path d="M58.0706 23.3948C58.1171 23.3948 58.1636 23.3948 58.2115 23.3948C58.258 23.9656 58.3045 24.5364 58.3523 25.1246C58.3988 25.1246 58.4453 25.1246 58.4932 25.1246C58.4834 25.2273 58.4736 25.3301 58.4635 25.4359C58.4031 26.263 58.4031 26.263 58.6764 27.0198C58.9008 27.278 58.9008 27.278 59.1396 27.4979C59.3722 27.757 59.422 27.953 59.4791 28.2957C59.284 28.1114 59.0986 27.9162 58.9157 27.7191C58.8445 27.6435 58.7734 27.5679 58.7001 27.49C57.9969 26.6558 57.9642 25.9814 58.0178 24.9083C58.0216 24.7623 58.0255 24.6162 58.0294 24.4658C58.0393 24.1085 58.0531 23.7518 58.0706 23.3948Z" fill="#415768"/>
<path d="M52.0143 22.3858C51.6151 22.7943 51.304 22.767 50.7467 22.8182C50.3737 22.8066 50.0008 22.7855 49.6288 22.7552C49.4843 22.7439 49.4843 22.7439 49.3369 22.7324C49.1025 22.7139 48.8683 22.6941 48.634 22.6741C48.634 22.579 48.634 22.4838 48.634 22.3858C49.0125 22.3575 49.391 22.3307 49.7696 22.3047C49.8755 22.2966 49.9815 22.2886 50.0906 22.2802C50.7578 22.2359 51.3559 22.265 52.0143 22.3858Z" fill="#B77142"/>
<path d="M47.789 51.0705C47.9749 51.0705 48.1608 51.0705 48.3523 51.0705C48.2581 52.2471 48.2581 52.2471 47.789 52.6561C47.7042 52.7324 47.6194 52.8088 47.532 52.8875C47.4454 52.9628 47.3588 53.038 47.2696 53.1155C47.1819 53.1919 47.0942 53.2683 47.0039 53.347C46.9376 53.4044 46.8713 53.4618 46.8031 53.5209C46.7101 53.4734 46.6171 53.4258 46.5214 53.3768C46.6232 53.272 46.6232 53.272 46.7271 53.1651C47.3553 52.4829 47.6434 51.9976 47.789 51.0705Z" fill="#CDA388"/>
<path d="M33.0002 30.4579C33.1396 30.5055 33.2791 30.553 33.4227 30.602C33.4068 30.9836 33.3889 31.3648 33.3699 31.7462C33.3656 31.855 33.3612 31.9638 33.3567 32.0758C33.3421 32.3541 33.313 32.6315 33.2819 32.9083C33.1889 32.9559 33.096 33.0035 33.0002 33.0525C32.9728 32.6742 32.9466 32.2958 32.921 31.9173C32.9131 31.8098 32.9052 31.7022 32.897 31.5913C32.8434 30.7788 32.8434 30.7788 33.0002 30.4579ZM32.7185 31.4669C32.765 31.4669 32.8115 31.4669 32.8594 31.4669C32.8594 32.0377 32.8594 32.6085 32.8594 33.1966C32.8129 33.1966 32.7664 33.1966 32.7185 33.1966C32.7185 32.6258 32.7185 32.055 32.7185 31.4669Z" fill="#456B83"/>
<path d="M47.9298 47.7552C47.9763 47.7552 48.0228 47.7552 48.0707 47.7552C48.0776 47.9046 48.0845 48.054 48.0916 48.2079C48.1021 48.4053 48.1128 48.6028 48.1235 48.8002C48.13 48.9477 48.13 48.9477 48.1367 49.0981C48.1673 49.6357 48.2345 50.0261 48.4932 50.4939C48.4404 50.8182 48.4404 50.8182 48.3524 51.0705C48.1664 51.0705 47.9805 51.0705 47.789 51.0705C47.5808 50.6443 47.6396 50.2428 47.6481 49.7732C47.6946 49.7732 47.7411 49.7732 47.789 49.7732C47.8355 49.1072 47.8819 48.4413 47.9298 47.7552Z" fill="#C26A45"/>
<path d="M53.9861 39.3948C54.172 39.4424 54.358 39.49 54.5495 39.539C54.4645 40.094 54.3005 40.5279 54.0478 41.0255C53.9837 41.1527 53.9196 41.28 53.8535 41.4111C53.8043 41.5068 53.7551 41.6025 53.7044 41.7011C53.658 41.606 53.6115 41.5109 53.5636 41.4128C53.6952 41.12 53.8357 40.8312 53.9861 40.548C53.8467 40.548 53.7073 40.548 53.5636 40.548C53.6407 40.0615 53.7122 39.8154 53.9861 39.3948Z" fill="#C46D49"/>
<path d="M47.6481 47.7552C47.6946 47.7552 47.7411 47.7552 47.789 47.7552C47.9236 48.3315 47.9445 48.8662 47.9386 49.4579C47.9373 49.6253 47.9361 49.7927 47.9348 49.9652C47.9331 50.0921 47.9315 50.219 47.9298 50.3498C47.7904 50.3022 47.6509 50.2546 47.5073 50.2056C47.5035 49.8513 47.5007 49.4969 47.4985 49.1426C47.4973 49.0419 47.4961 48.9411 47.4949 48.8374C47.4913 48.0761 47.4913 48.0761 47.6481 47.7552Z" fill="#CA7653"/>
<path d="M33.2819 39.6831C33.762 40.0988 33.9673 40.3131 34.1006 40.9534C34.1137 41.1808 34.1137 41.1808 34.127 41.4128C33.9876 41.4128 33.8481 41.4128 33.7045 41.4128C33.7045 41.3177 33.7045 41.2226 33.7045 41.1245C33.565 41.077 33.4256 41.0294 33.2819 40.9804C33.1235 40.0074 33.1235 40.0074 33.2819 39.6831Z" fill="#CB7A59"/>
<path d="M59.7607 32.7642C59.8072 32.7642 59.8537 32.7642 59.9016 32.7642C59.9481 33.1447 59.9945 33.5253 60.0424 33.9173C59.9495 33.9173 59.8565 33.9173 59.7607 33.9173C59.7143 34.2503 59.6678 34.5833 59.6199 34.9264C59.4805 34.9739 59.341 35.0215 59.1974 35.0705C59.1093 34.7282 59.1093 34.7282 59.0565 34.3498C59.1495 34.2546 59.2424 34.1595 59.3382 34.0615C59.4225 33.8423 59.4981 33.6195 59.5671 33.3948C59.6038 33.277 59.6404 33.1592 59.6782 33.0378C59.7055 32.9475 59.7327 32.8572 59.7607 32.7642Z" fill="#416880"/>
<path d="M58.6341 35.5029C58.82 35.5505 59.0059 35.5981 59.1974 35.6471C59.083 35.9984 59.083 35.9984 58.9158 36.3678C58.7763 36.4154 58.6369 36.4629 58.4932 36.5119C58.2649 36.7905 58.0886 37.0518 57.9298 37.3768C57.7439 37.2817 57.558 37.1865 57.3665 37.0885C57.471 37.0142 57.5756 36.9399 57.6834 36.8633C58.1462 36.4434 58.3506 36.0616 58.6341 35.5029Z" fill="#3E6880"/>
<path d="M50.6058 44.8723C50.446 45.3467 50.3251 45.4483 49.884 45.7011C49.7504 45.7606 49.6167 45.82 49.4791 45.8813C49.4791 45.7862 49.4791 45.691 49.4791 45.593C49.3454 45.6673 49.2118 45.7417 49.0741 45.8182C48.9289 45.8866 48.7836 45.955 48.634 46.0255C48.541 45.9779 48.4481 45.9303 48.3523 45.8813C48.6015 45.7397 48.8509 45.5987 49.1005 45.4579C49.3089 45.34 49.3089 45.34 49.5214 45.2197C49.8905 45.0224 50.1851 44.8723 50.6058 44.8723Z" fill="#C67553"/>
<path d="M44.6903 11.4308C45.6825 11.4004 46.5553 11.4194 47.5072 11.7191C47.3678 11.7667 47.2283 11.8143 47.0847 11.8633C47.0847 11.9584 47.0847 12.0535 47.0847 12.1516C46.8523 12.1516 46.6199 12.1516 46.3804 12.1516C46.3804 12.0564 46.3804 11.9613 46.3804 11.8633C45.5438 11.7206 45.5438 11.7206 44.6903 11.575C44.6903 11.5274 44.6903 11.4799 44.6903 11.4308Z" fill="#4D4C51"/>
<path d="M27.6481 23.539C27.6946 23.539 27.7411 23.539 27.789 23.539C27.8354 24.5854 27.8819 25.6319 27.9298 26.7101C27.7439 26.6626 27.558 26.615 27.3664 26.566C27.32 26.4708 27.2735 26.3757 27.2256 26.2777C27.365 26.2777 27.5045 26.2777 27.6481 26.2777C27.6481 25.3739 27.6481 24.4701 27.6481 23.539Z" fill="#D48244"/>
<path d="M59.7608 33.9173C59.9473 34.4992 59.8412 34.8461 59.6249 35.401C59.4791 35.6471 59.4791 35.6471 59.1006 35.7912C58.9931 35.7912 58.8856 35.7912 58.7749 35.7912C58.8805 34.9624 58.8805 34.9624 59.1974 34.6381C59.1974 34.7808 59.1974 34.9235 59.1974 35.0705C59.2904 35.0229 59.3834 34.9754 59.4791 34.9264C59.5821 34.5928 59.6765 34.2563 59.7608 33.9173Z" fill="#345E76"/>
<path d="M33.8453 49.9173C33.8453 50.1076 33.8453 50.2979 33.8453 50.4939C34.1242 50.3988 34.403 50.3036 34.6904 50.2056C34.6904 50.3008 34.6904 50.3959 34.6904 50.4939C34.0305 50.8527 33.5714 50.7616 32.8594 50.6381C33.5284 49.9173 33.5284 49.9173 33.8453 49.9173Z" fill="#D9BA9E"/>
<path d="M32.4369 29.7372C32.646 29.8799 32.646 29.8799 32.8594 30.0254C32.9524 29.9303 33.0453 29.8352 33.1411 29.7372C33.1876 30.0701 33.2341 30.4031 33.282 30.7462C33.189 30.7462 33.096 30.7462 33.0003 30.7462C32.9538 30.984 32.9073 31.2218 32.8594 31.4669C32.8129 31.4669 32.7665 31.4669 32.7186 31.4669C32.6256 30.8961 32.5327 30.3253 32.4369 29.7372Z" fill="#375E77"/>
<path d="M59.62 29.3047C59.8712 29.7462 59.9339 30.0573 59.9193 30.566C59.9167 30.6812 59.9142 30.7964 59.9116 30.9151C59.9067 31.0455 59.9067 31.0455 59.9017 31.1786C59.8087 31.1786 59.7157 31.1786 59.62 31.1786C59.2555 30.6191 59.3556 30.3809 59.4791 29.7372C59.5256 29.5945 59.5721 29.4518 59.62 29.3047Z" fill="#436A82"/>
<path d="M45.958 29.7372C46.0974 29.7847 46.2369 29.8323 46.3805 29.8813C46.334 30.357 46.2876 30.8326 46.2397 31.3227C45.8124 30.8855 45.8644 30.4904 45.8171 29.8813C45.8636 29.8337 45.9101 29.7862 45.958 29.7372Z" fill="#BE6E4A"/>
<path d="M27.9298 22.3858C28.0228 22.5761 28.1157 22.7663 28.2115 22.9624C28.3509 23.0575 28.4904 23.1527 28.634 23.2507C28.6604 23.7011 28.6604 23.7011 28.634 24.1155C28.5411 23.9728 28.4481 23.8301 28.3523 23.6831C28.2594 23.7782 28.1664 23.8734 28.0707 23.9714C28.0242 23.4481 27.9777 22.9249 27.9298 22.3858Z" fill="#555961"/>
<path d="M48.4932 12.2957C48.4467 12.3908 48.4002 12.486 48.3523 12.584C48.5383 12.6791 48.7242 12.7743 48.9157 12.8723C48.6866 12.8316 48.4578 12.7893 48.2291 12.7462C48.0379 12.711 48.0379 12.711 47.8429 12.6752C47.5073 12.584 47.5073 12.584 47.2256 12.2957C47.7014 12.174 48.0248 12.1359 48.4932 12.2957Z" fill="#414F5F"/>
<path d="M54.6903 38.2417C54.8638 38.7742 54.7811 39.1362 54.6903 39.6831C54.5044 39.6355 54.3185 39.588 54.127 39.539C54.127 38.9625 54.37 38.7026 54.6903 38.2417Z" fill="#C97B5A"/>
<path d="M53.7044 21.521C53.7509 21.6161 53.7974 21.7112 53.8453 21.8092C53.6436 21.91 53.441 22.0088 53.2379 22.1065C53.0688 22.1893 53.0688 22.1893 52.8962 22.2738C52.5777 22.3858 52.5777 22.3858 52.1552 22.2417C52.3411 22.1941 52.527 22.1465 52.7185 22.0975C52.7185 22.0024 52.7185 21.9073 52.7185 21.8092C53.0439 21.7141 53.3692 21.619 53.7044 21.521Z" fill="#B66C3A"/>
<path d="M30.0425 25.557C30.1819 25.6045 30.3213 25.6521 30.465 25.7011C30.465 25.9865 30.465 26.2719 30.465 26.566C30.2791 26.5184 30.0932 26.4709 29.9016 26.4218C29.8956 26.1817 29.8959 25.9413 29.9016 25.7011C29.9481 25.6536 29.9946 25.606 30.0425 25.557Z" fill="#445465"/>
<path d="M30.1833 22.3858C30.3946 22.548 30.3946 22.548 30.6059 22.8182C30.6323 23.2777 30.6323 23.2777 30.6059 23.6831C30.4199 23.6355 30.234 23.588 30.0425 23.539C30.089 23.1584 30.1354 22.7779 30.1833 22.3858Z" fill="#4E4D55"/>
<path d="M48.4931 50.6381C48.7255 50.6856 48.9579 50.7332 49.1974 50.7822C49.1974 50.9725 49.1974 51.1627 49.1974 51.3588C48.7791 51.2874 48.7791 51.2874 48.3523 51.2146C48.3988 51.0244 48.4453 50.8341 48.4931 50.6381Z" fill="#D7BA9D"/>
<path d="M37.7889 22.6741C37.9283 22.7692 38.0678 22.8644 38.2114 22.9624C38.165 23.0575 38.1185 23.1527 38.0706 23.2507C37.6523 23.2507 37.234 23.2507 36.803 23.2507C36.803 23.1555 36.803 23.0604 36.803 22.9624C37.2695 22.8002 37.2695 22.8002 37.7889 22.6741Z" fill="#B97345"/>
<path d="M47.5073 11.7191C47.789 11.8633 47.789 11.8633 47.9298 12.1516C47.3058 12.4532 47.3058 12.4532 46.8999 12.3858C46.8215 12.3561 46.743 12.3263 46.6622 12.2957C46.8017 12.2957 46.9411 12.2957 47.0848 12.2957C47.0848 12.153 47.0848 12.0103 47.0848 11.8633C47.2242 11.8157 47.3636 11.7681 47.5073 11.7191Z" fill="#55575D"/>
<path d="M37.789 13.0164C37.9284 13.064 38.0679 13.1116 38.2115 13.1606C38.0331 13.2577 37.854 13.3536 37.6746 13.4489C37.5749 13.5024 37.4752 13.5559 37.3725 13.611C37.0848 13.7372 37.0848 13.7372 36.6622 13.7372C36.7087 13.5945 36.7552 13.4517 36.8031 13.3047C36.9135 13.2839 37.0239 13.2631 37.1376 13.2417C37.5023 13.1782 37.5023 13.1782 37.789 13.0164Z" fill="#414F5F"/>
</svg>
