<svg width="80" height="80" viewBox="0 0 80 80" fill="none" xmlns="http://www.w3.org/2000/svg">
<path d="M0 40C0 17.9006 17.9006 0 40 0C62.0994 0 80 17.9006 80 40C80 62.0994 62.0994 80 40 80C17.9006 80 0 62.0994 0 40Z" fill="white"/>
<path d="M51.6902 13.0965C51.8042 13.1915 51.9182 13.2864 52.0357 13.3842C55.8768 16.707 56.9469 22.0035 57.6117 26.8398C57.6653 27.2287 57.719 27.6175 57.7729 28.0064C57.7867 28.1062 57.8005 28.2059 57.8146 28.3087C58.1335 30.5979 58.5552 32.8664 58.9845 35.1362C59.9414 40.2097 59.9414 40.2097 59.9208 42.601C59.9192 42.8683 59.9192 42.8683 59.9176 43.1409C59.8719 45.7459 59.3086 47.8888 57.5132 49.8212C55.9653 51.3235 54.0078 51.6792 51.9719 52.0154C51.856 52.0348 51.7402 52.0541 51.6208 52.074C50.6189 52.2133 49.6003 52.1718 48.5916 52.1596C48.5916 52.2547 48.5916 52.3498 48.5916 52.4479C48.7023 52.4596 48.8131 52.4713 48.9272 52.4833C49.6027 52.6274 50.1972 52.8946 50.8275 53.1776C51.0231 53.2648 51.0231 53.2648 51.2227 53.3538C52.9975 54.1525 54.6748 54.947 56.1972 56.1956C56.2876 56.2662 56.378 56.3368 56.4712 56.4096C59.2978 58.7186 60.5053 62.7186 61.0916 66.2136C61.1186 66.374 61.1186 66.374 61.1461 66.5376C61.1623 66.6403 61.1784 66.743 61.195 66.8488C61.2162 66.9832 61.2162 66.9832 61.2378 67.1204C61.2791 67.561 61.2676 68.0053 61.2676 68.4479C46.8592 68.4479 32.4507 68.4479 17.6057 68.4479C17.6057 66.9862 17.6057 66.9862 17.7608 66.3217C17.8114 66.1029 17.8114 66.1029 17.8631 65.8797C17.9001 65.7282 17.9372 65.5768 17.9754 65.4208C18.0329 65.1828 18.0329 65.1828 18.0915 64.94C18.768 62.2072 19.6694 59.6168 21.5493 57.4929C21.6515 57.3749 21.7537 57.2569 21.8591 57.1354C24.1864 54.596 27.4603 53.3877 30.5634 52.1596C30.0838 51.6196 29.6387 51.4182 28.9349 51.3414C28.8118 51.3266 28.6888 51.3119 28.562 51.2966C28.4323 51.2811 28.3027 51.2656 28.169 51.2497C25.9587 50.9491 24.4517 50.2301 23.0458 48.4028C22.919 48.2161 22.7955 48.027 22.6761 47.8352C22.6229 47.7503 22.5697 47.6654 22.5149 47.5779C20.4068 43.772 22.1418 38.4817 23.152 34.5993C23.4684 33.3782 23.742 32.1484 24.0043 30.9141C24.091 30.5075 24.1796 30.1013 24.2683 29.695C24.5362 28.4599 24.7943 27.2286 24.9912 25.9794C25.577 22.366 26.8759 18.4545 29.2958 15.6911C29.3956 15.5718 29.4955 15.4525 29.5984 15.3296C32.0013 12.5081 34.931 10.8201 38.4507 9.92534C38.5903 9.88966 38.73 9.85399 38.8738 9.81723C43.2702 8.8956 48.2648 10.1562 51.6902 13.0965Z" fill="#C78054"/>
<path d="M51.6902 13.0965C51.8042 13.1915 51.9182 13.2864 52.0357 13.3842C55.8768 16.707 56.9469 22.0035 57.6117 26.8398C57.6653 27.2287 57.719 27.6175 57.7729 28.0064C57.7867 28.1062 57.8004 28.2059 57.8146 28.3087C58.1335 30.5979 58.5552 32.8664 58.9845 35.1362C59.9414 40.2097 59.9414 40.2097 59.9208 42.601C59.9192 42.8683 59.9192 42.8683 59.9176 43.1409C59.8719 45.7459 59.3086 47.8888 57.5132 49.8212C55.5135 51.762 52.631 51.9809 50.0088 52.2316C49.766 52.2589 49.766 52.2589 49.5183 52.2866C48.4569 52.3756 47.7528 52.2619 46.9014 51.583C46.3508 50.9906 46.0179 50.4566 46.0288 49.6303C46.0302 49.4477 46.0302 49.4477 46.0316 49.2615C46.0351 49.0728 46.0351 49.0728 46.0388 48.8803C46.04 48.7523 46.0413 48.6242 46.0426 48.4923C46.0459 48.1772 46.0505 47.8621 46.0564 47.547C46.125 47.5101 46.1937 47.4732 46.2645 47.4352C50.0479 45.3882 52.2343 42.7959 53.5211 38.61C54.3287 35.8097 54.4583 32.7204 54.3662 29.8172C54.3585 29.548 54.3585 29.548 54.3505 29.2734C54.3141 28.013 54.2718 26.7529 54.2254 25.4929C54.1185 25.4503 54.0116 25.4077 53.9014 25.3638C50.9781 24.1404 48.964 21.8207 47.116 19.2969C46.8137 18.8877 46.5033 18.4867 46.1884 18.0875C46.0938 17.9675 45.9992 17.8474 45.9018 17.7238C45.6442 17.4326 45.3855 17.211 45.0704 16.9884C45.0646 17.1579 45.0588 17.3273 45.0528 17.5019C44.7764 19.9671 43.1577 22.3331 41.3612 23.9073C40.0792 24.8924 38.539 25.4811 36.9454 25.574C36.8466 25.5802 36.7477 25.5864 36.6459 25.5928C36.4024 25.6081 36.159 25.6226 35.9155 25.637C37.1522 26.0589 38.6748 25.852 39.8592 25.3488C39.9745 25.3014 40.0898 25.254 40.2085 25.2052C41.1899 24.7551 41.9191 24.1028 42.6761 23.3307C42.7748 23.233 42.8736 23.1353 42.9754 23.0346C44.2495 21.6847 44.9988 19.9281 45.493 18.1416C45.5859 18.1416 45.6789 18.1416 45.7747 18.1416C46.0208 18.4823 46.2514 18.8241 46.4789 19.1776C48.1711 21.7481 49.9711 24.1708 52.8609 25.3668C53.3143 25.5684 53.3143 25.5684 53.662 25.7812C53.8359 26.2896 53.8541 26.4346 53.8028 26.9343C53.8043 27.1986 53.8073 27.4629 53.8116 27.7271C53.8094 27.9434 53.8067 28.1596 53.8028 28.3758C53.7415 28.32 53.6801 28.2643 53.6169 28.2069C52.1605 26.9035 50.9364 26.4894 49.0162 26.6117C48.0308 26.731 47.2179 27.3459 46.5548 28.0712C46.1442 28.6482 45.8875 29.2999 45.6338 29.9614C45.5374 29.9378 45.441 29.9142 45.3417 29.8899C44.8769 29.8079 44.4415 29.8033 43.9701 29.8082C43.8065 29.8095 43.6429 29.8108 43.4744 29.8122C43.3504 29.8138 43.2264 29.8155 43.0986 29.8172C43.0661 29.7353 43.0336 29.6533 43.0001 29.5689C42.4032 28.1227 41.7729 27.2436 40.3274 26.6303C39.1268 26.3011 37.5156 26.2544 36.3733 26.7902C34.9441 27.7094 34.502 28.977 33.9437 30.5379C33.1071 30.5379 32.2704 30.5379 31.4085 30.5379C31.7571 28.6115 31.7571 28.6115 32.1127 26.6461C32.3974 26.5747 32.6821 26.5034 32.9754 26.4298C35.8669 25.6255 38.2305 23.4243 39.7194 20.8171C40.3859 19.6023 40.7945 18.5409 40.7042 17.1325C40.653 17.2806 40.6018 17.4287 40.5491 17.5813C39.3437 21.0085 37.2249 24.0364 33.9291 25.6368C32.9166 26.086 31.9468 26.3908 30.8451 26.5019C30.8916 26.597 30.938 26.6922 30.9859 26.7902C31.2711 26.8842 31.2711 26.8842 31.5493 26.9343C31.4943 27.9565 31.4263 29.0254 30.9859 29.9614C30.5634 30.1055 30.5634 30.1055 30.1937 29.9704C29.515 29.7517 28.8523 29.6682 28.1701 29.9214C27.2663 30.4117 26.7933 31.1496 26.4789 32.1235C26.2963 33.6229 26.4773 34.8241 27.1831 36.1596C27.2645 36.3201 27.3458 36.4807 27.4296 36.6461C28.152 37.5087 29.0976 37.9836 30.1409 38.3217C30.2596 38.3286 30.3783 38.3355 30.5007 38.3426C30.8451 38.4659 30.8451 38.4659 31.0641 38.8972C31.1283 39.083 31.1901 39.2696 31.25 39.4569C31.8534 41.1542 32.833 42.6625 34.0845 43.9434C34.121 44.3346 34.121 44.3346 34.1219 44.8302C34.1225 45.101 34.1225 45.101 34.123 45.3772C34.1219 45.567 34.1209 45.7568 34.1197 45.9524C34.1214 46.2295 34.1214 46.2295 34.123 46.5123C34.1167 49.6682 34.1167 49.6682 32.9919 50.8296C32.7092 51.0985 32.419 51.343 32.1127 51.583C32.0223 51.6547 31.9319 51.7264 31.8387 51.8003C31.5453 51.9937 31.3314 52.1045 30.9859 52.1596C30.6455 52.0247 30.3548 51.837 30.0413 51.6455C29.4105 51.3644 28.7957 51.303 28.1162 51.2226C25.9223 50.9437 24.4385 50.213 23.0458 48.4028C22.919 48.2161 22.7955 48.027 22.6761 47.8352C22.6229 47.7503 22.5697 47.6654 22.5149 47.5779C20.4068 43.772 22.1418 38.4817 23.152 34.5993C23.4684 33.3782 23.742 32.1484 24.0043 30.9141C24.091 30.5075 24.1796 30.1013 24.2683 29.695C24.5362 28.4599 24.7943 27.2286 24.9912 25.9794C25.577 22.366 26.8759 18.4545 29.2958 15.6911C29.3957 15.5718 29.4955 15.4525 29.5984 15.3296C32.0013 12.5081 34.931 10.8201 38.4507 9.92534C38.5903 9.88966 38.73 9.85399 38.8738 9.81723C43.2702 8.8956 48.2648 10.1562 51.6902 13.0965Z" fill="#F3CA92"/>
<path d="M31.8309 52.592C32.0879 52.8657 32.0879 52.8657 32.3503 53.2226C32.4818 53.3982 32.4818 53.3982 32.616 53.5774C32.8169 53.8893 32.8169 53.8893 32.8169 54.1776C32.898 54.2168 32.9792 54.256 33.0628 54.2964C33.3809 54.4663 33.6598 54.6592 33.9524 54.8713C36.4672 56.5913 39.7197 57.1579 42.6953 56.6956C44.5594 56.3094 46.1892 55.664 47.3239 54.0335C47.5046 53.6506 47.6252 53.2889 47.7464 52.8803C48.3335 52.962 48.8238 53.0996 49.3651 53.3448C49.5097 53.41 49.6544 53.4751 49.8034 53.5422C50.0314 53.6472 50.0314 53.6472 50.264 53.7542C50.421 53.826 50.578 53.8978 50.7398 53.9717C51.1982 54.1827 51.6557 54.3958 52.1126 54.61C52.2304 54.6651 52.3483 54.7201 52.4696 54.7768C53.7832 55.397 54.9462 56.1015 56.0563 57.0605C56.1585 57.1487 56.2607 57.237 56.366 57.3279C58.6856 59.5153 59.6779 62.7931 60.2816 65.8533C60.3163 66.0211 60.351 66.1888 60.3867 66.3617C60.5292 67.095 60.5633 67.6792 60.5633 68.4479C46.6197 68.4479 32.676 68.4479 18.3098 68.4479C18.4036 67.2 18.506 66.1348 18.8204 64.9524C18.8575 64.8103 18.8946 64.6682 18.9329 64.5218C19.9409 60.795 21.7085 57.526 25.0563 55.5219C26.6896 54.5791 28.404 53.8065 30.1408 53.0875C30.2612 53.0375 30.3816 52.9875 30.5057 52.936C30.6177 52.8907 30.7296 52.8454 30.845 52.7987C30.9932 52.7386 30.9932 52.7386 31.1443 52.6773C31.4084 52.592 31.4084 52.592 31.8309 52.592Z" fill="#F5B5A8"/>
<path d="M29.8591 30.3938C30.2079 30.5513 30.5181 30.7328 30.839 30.9428C31.4608 31.314 32.1482 31.3009 32.8521 31.3398C32.957 31.346 33.0619 31.3522 33.1701 31.3586C33.4279 31.3739 33.6857 31.3884 33.9436 31.4028C33.9643 31.5214 33.985 31.6399 34.0063 31.7621C34.2913 33.2136 34.7497 34.4763 35.9303 35.4028C37.0212 36.1395 37.9909 36.314 39.2957 36.1596C40.5903 35.8677 41.5312 35.2752 42.2502 34.1309C42.8805 32.9456 43.1408 31.8925 43.2394 30.538C43.4858 30.5301 43.7323 30.5246 43.9788 30.5199C44.1161 30.5166 44.2533 30.5133 44.3947 30.5098C45.0428 30.5561 45.0428 30.5561 45.3521 30.8263C45.4508 31.2119 45.5149 31.5598 45.5633 31.9524C45.6796 32.7588 45.8271 33.5101 46.0827 34.2857C46.3254 35.0511 46.4391 35.6455 46.338 36.4479C46.1355 36.7452 46.1355 36.7452 45.7746 36.8803C45.3494 36.9118 44.9323 36.9054 44.507 36.8803C44.5767 37.1657 44.5767 37.1657 44.6478 37.4569C44.8708 37.4647 45.0938 37.4703 45.3168 37.4749C45.5031 37.4799 45.5031 37.4799 45.6932 37.485C46.0816 37.4549 46.2956 37.3863 46.6197 37.1686C46.9409 36.6755 46.9322 36.4937 46.919 35.9163C46.9164 35.7731 46.9139 35.6298 46.9113 35.4822C46.908 35.3728 46.9047 35.2633 46.9013 35.1506C47.2499 35.3213 47.5368 35.4925 47.8521 35.7272C48.7227 36.2755 49.6911 36.4358 50.7042 36.3037C51.7109 36.0579 52.4332 35.6556 53.1745 34.9186C53.3802 34.7181 53.3802 34.7181 53.5211 34.7181C53.5104 37.9224 52.4145 41.2814 50.2816 43.6551C50.134 43.8234 50.134 43.8234 49.9834 43.9952C49.2302 44.8126 48.4142 45.4032 47.4647 45.9614C47.3774 46.0175 47.2901 46.0736 47.2001 46.1314C45.0657 47.3922 42.1522 47.3973 39.8189 46.8493C37.7146 46.1768 35.513 44.8088 34.0844 43.0785C33.9733 42.944 33.8622 42.8095 33.7477 42.6708C32.6898 41.347 31.2675 39.3718 31.2675 37.601C31.1218 37.6161 31.1218 37.6161 30.9732 37.6314C29.882 37.6958 29.2683 37.4733 28.4506 36.7362C27.5766 35.9155 27.1025 34.9542 26.9932 33.7429C26.9509 31.822 26.9509 31.822 27.6809 31.0216C28.4366 30.4303 28.9104 30.2536 29.8591 30.3938Z" fill="#FED0AD"/>
<path d="M34.7887 45.0965C35.2193 45.3116 35.624 45.5536 36.0309 45.8129C37.2617 46.5921 38.524 47.263 39.8591 47.8353C39.9492 47.874 40.0393 47.9127 40.1322 47.9526C41.8278 48.6524 43.5412 48.6877 45.3521 48.7001C45.3557 48.8116 45.3593 48.9231 45.3631 49.038C45.4213 50.1332 45.5206 51.0347 46.3028 51.8353C46.5434 52.0487 46.7904 52.2485 47.0422 52.4479C47.1352 52.543 47.2281 52.6381 47.3239 52.7362C46.7507 54.104 46.1761 54.8216 44.8415 55.4298C41.9113 56.5847 38.7092 56.4127 35.796 55.2508C34.4907 54.6383 33.3387 53.8256 32.5352 52.592C32.5615 52.2 32.6386 52.0523 32.9164 51.7789C33.0143 51.7024 33.1121 51.6258 33.213 51.547C34.1038 50.7821 34.4498 49.862 34.6478 48.7001C34.6994 48.076 34.719 47.4523 34.7359 46.8262C34.744 46.5762 34.744 46.5762 34.7524 46.3212C34.7656 45.913 34.7776 45.5048 34.7887 45.0965Z" fill="#FECFAD"/>
<path d="M45.493 18.1416C45.5859 18.1416 45.6789 18.1416 45.7746 18.1416C46.0208 18.4823 46.2514 18.8241 46.4789 19.1776C48.1711 21.7481 49.9711 24.1708 52.8609 25.3668C53.3143 25.5684 53.3143 25.5684 53.662 25.7812C53.8358 26.2896 53.854 26.4346 53.8028 26.9343C53.8043 27.1986 53.8072 27.4629 53.8116 27.7271C53.8094 27.9434 53.8067 28.1596 53.8028 28.3758C53.7414 28.32 53.6801 28.2643 53.6169 28.2069C52.1605 26.9035 50.9363 26.4894 49.0161 26.6117C48.0308 26.731 47.2179 27.3459 46.5548 28.0712C46.1442 28.6482 45.8874 29.2999 45.6338 29.9614C45.5374 29.9378 45.441 29.9142 45.3417 29.8899C44.8769 29.8079 44.4415 29.8033 43.9701 29.8082C43.7247 29.8102 43.7247 29.8102 43.4744 29.8122C43.3504 29.8138 43.2263 29.8155 43.0986 29.8172C43.0661 29.7353 43.0336 29.6533 43.0001 29.5689C42.4032 28.1227 41.7729 27.2436 40.3274 26.6303C39.1268 26.3011 37.5155 26.2544 36.3732 26.7902C34.9441 27.7094 34.502 28.977 33.9437 30.538C33.107 30.538 32.2704 30.538 31.4084 30.538C31.6408 29.2536 31.8732 27.9693 32.1127 26.6461C32.3974 26.5747 32.682 26.5034 32.9753 26.4298C34.3219 26.0391 35.5149 25.3692 36.6197 24.4839C36.7592 24.5552 36.7592 24.5552 36.9014 24.628C36.8084 24.8659 36.7155 25.1037 36.6197 25.3488C36.9915 25.3488 37.3634 25.3488 37.7465 25.3488C37.7465 25.3963 37.7465 25.4439 37.7465 25.4929C36.8401 25.5643 36.8401 25.5643 35.9155 25.6371C37.1522 26.0589 38.6747 25.852 39.8592 25.3488C40.0321 25.2777 40.0321 25.2777 40.2085 25.2052C41.1899 24.7552 41.9191 24.1029 42.6761 23.3307C42.8242 23.1841 42.8242 23.1841 42.9753 23.0346C44.2495 21.6847 44.9988 19.9281 45.493 18.1416Z" fill="#FED0AD"/>
<path d="M40.845 27.6551C41.5768 28.111 42.1227 28.8739 42.341 29.7266C42.5525 31.2289 42.4385 32.6001 41.6235 33.8944C40.9212 34.8034 40.0777 35.3555 38.9475 35.5025C37.7799 35.5421 36.9354 35.4321 36.0712 34.6078C35.8089 34.3208 35.5787 34.0261 35.3521 33.7091C35.2598 33.5854 35.2598 33.5854 35.1656 33.4591C34.58 32.5086 34.686 31.3251 34.7887 30.2497C35.0401 29.1352 35.59 28.2364 36.5052 27.5774C37.9446 26.7322 39.3927 26.9405 40.845 27.6551Z" fill="#FECFAC"/>
<path d="M51.6197 27.5289C52.8086 28.1808 53.3796 28.9503 53.8028 30.2497C53.909 31.8757 53.8346 33.0556 52.8081 34.3307C51.9617 35.2305 51.1265 35.5967 49.912 35.6551C48.7899 35.6081 47.9769 35.08 47.1831 34.2857C46.3095 33.1117 46.0797 31.9468 46.2313 30.5008C46.3973 29.506 46.8341 28.6297 47.615 27.9952C48.7692 27.2381 50.3045 27.0776 51.6197 27.5289Z" fill="#FDCEAB"/>
<path d="M32.1479 51.6551C32.3944 51.8713 32.3944 51.8713 32.5166 52.2013C33.0735 53.5652 34.3657 54.4509 35.6339 55.0425C38.6144 56.2678 41.8442 56.4585 44.8543 55.2846C45.9748 54.7658 46.5601 54.1555 47.1039 53.0425C47.2197 52.7315 47.2197 52.7315 47.0423 52.4479C47.1353 52.4479 47.2282 52.4479 47.324 52.4479C47.3705 52.3052 47.417 52.1625 47.4648 52.0154C47.5449 52.0554 47.625 52.0953 47.7075 52.1365C47.8706 52.2148 47.8706 52.2148 48.037 52.2947C48.1432 52.3466 48.2494 52.3984 48.3589 52.4518C48.7388 52.6107 48.7388 52.6107 49.1902 52.6506C49.8385 52.7556 50.3782 52.9825 50.9772 53.2497C51.0937 53.3011 51.2103 53.3524 51.3304 53.4054C53.07 54.181 54.7075 54.9739 56.1972 56.1956C56.3329 56.3015 56.3329 56.3015 56.4712 56.4096C59.2978 58.7186 60.5053 62.7186 61.0916 66.2136C61.1096 66.3205 61.1276 66.4274 61.1462 66.5376C61.2475 67.1828 61.2845 67.7945 61.2677 68.4479C61.0353 68.4479 60.8029 68.4479 60.5634 68.4479C60.5458 68.3377 60.5281 68.2275 60.51 68.114C59.9087 64.4038 59.2032 60.8609 56.7606 57.9254C56.6864 57.8332 56.6121 57.741 56.5356 57.6461C54.3461 55.1703 50.7178 54.0053 47.7465 52.8803C47.728 53.0143 47.7095 53.1482 47.6904 53.2863C47.5112 54.257 46.786 55.0083 46.0564 55.619C43.7012 57.1451 40.4721 57.2843 37.8081 56.6731C35.439 56.0866 33.2164 54.9968 31.831 52.8803C31.831 52.7852 31.831 52.69 31.831 52.592C24.5344 55.5408 24.5344 55.5408 19.9745 61.7934C19.1059 63.9314 18.6209 66.1615 18.3099 68.4479C18.0775 68.4479 17.8451 68.4479 17.6057 68.4479C17.5601 67.3809 17.7225 66.454 17.9754 65.4209C18.0137 65.2622 18.0521 65.1035 18.0916 64.9401C18.768 62.2072 19.6694 59.6168 21.5493 57.4929C21.6516 57.3749 21.7538 57.2569 21.8591 57.1354C24.0255 54.7716 26.9933 53.5769 29.8958 52.4487C30.4396 52.2373 30.9633 52.0272 31.4828 51.7576C31.831 51.583 31.831 51.583 32.1479 51.6551Z" fill="#D27F68"/>
<path d="M45.0704 16.9884C46.1462 17.4647 46.8194 18.6831 47.5 19.619C48.2798 20.6753 49.092 21.6661 50 22.61C50.0899 22.7039 50.1798 22.7977 50.2723 22.8944C51.2124 23.8027 52.391 24.4409 53.5194 25.0732C54.2111 25.4637 54.2111 25.4637 54.3662 25.7812C54.3782 26.0636 54.3813 26.3465 54.38 26.6292C54.3795 26.7973 54.3791 26.9655 54.3786 27.1387C54.3774 27.3151 54.3762 27.4914 54.375 27.6731C54.3744 27.8505 54.3737 28.028 54.3731 28.2108C54.3714 28.6502 54.3691 29.0896 54.3662 29.5289C53.9004 29.0522 53.7696 28.6441 53.7445 27.9771C53.7391 27.8489 53.7336 27.7207 53.728 27.5886C53.7236 27.456 53.7193 27.3233 53.7148 27.1866C53.7094 27.0517 53.7039 26.9168 53.6983 26.7778C53.685 26.4456 53.673 26.1135 53.662 25.7812C53.5603 25.7647 53.4586 25.7481 53.3539 25.7311C50.4709 25.0467 48.2729 22.0684 46.6882 19.7433C46.4865 19.45 46.2794 19.1613 46.0718 18.8724C45.7747 18.4298 45.7747 18.4298 45.7747 18.1416C45.6817 18.1416 45.5887 18.1416 45.493 18.1416C45.4697 18.308 45.4465 18.4745 45.4225 18.6461C44.893 21.075 43.1389 23.5421 41.1268 24.8983C39.921 25.6042 38.7725 25.9453 37.3856 25.9524C37.1108 25.9554 37.1108 25.9554 36.8304 25.9586C36.3821 25.9283 36.1459 25.8817 35.7747 25.6371C35.7747 25.5895 35.7747 25.5419 35.7747 25.4929C35.9145 25.4909 36.0543 25.4888 36.1983 25.4867C38.4177 25.4208 40.38 24.7377 42.0511 23.1866C43.6128 21.4654 44.6744 19.2988 45.0704 16.9884Z" fill="#D99E61"/>
<path d="M40.7042 16.9884C40.7507 16.9884 40.7972 16.9884 40.8451 16.9884C41.0545 19.0985 39.9241 20.9561 38.6915 22.5579C37.154 24.4674 35.15 25.9412 32.8169 26.6461C32.412 26.6641 32.412 26.6641 32.1127 26.6461C32.1185 26.7845 32.1243 26.9229 32.1303 27.0655C32.1303 27.7382 31.9828 28.364 31.831 29.0154C31.8041 29.1346 31.7772 29.2538 31.7496 29.3766C31.6838 29.6679 31.6167 29.9588 31.5493 30.2497C31.2852 30.3398 31.2852 30.3398 30.9859 30.3938C30.893 30.2987 30.8 30.2035 30.7042 30.1055C30.769 29.9626 30.8339 29.8197 30.9006 29.6725C31.1364 29.1096 31.259 28.5532 31.3644 27.9524C31.3827 27.8538 31.4009 27.7552 31.4197 27.6537C31.4639 27.4141 31.5068 27.1742 31.5493 26.9343C31.3169 26.8868 31.0845 26.8392 30.8451 26.7902C30.8451 26.6951 30.8451 26.5999 30.8451 26.5019C31.0239 26.4545 31.2027 26.4072 31.387 26.3583C33.8615 25.6716 35.6667 24.6161 37.4648 22.7542C37.5688 22.6492 37.6729 22.5442 37.78 22.436C39.0731 21.0511 39.7956 19.3634 40.4044 17.5802C40.5634 17.1325 40.5634 17.1325 40.7042 16.9884Z" fill="#DAA064"/>
<path d="M40.2817 39.1866C40.8467 39.2786 41.276 39.5735 41.759 39.8707C42.9421 40.4752 44.3996 40.579 45.668 40.2052C45.924 40.1026 46.1777 39.9934 46.4272 39.8752C46.827 39.7409 47.065 39.7915 47.4648 39.9073C47.4373 40.1714 47.4373 40.1714 47.324 40.4839C47.017 40.6928 47.017 40.6928 46.6374 40.8713C46.5128 40.9313 46.3883 40.9913 46.2599 41.0532C45.0474 41.5864 43.3412 41.551 42.0951 41.1055C41.8631 41.0015 41.6338 40.8906 41.4085 40.7722C41.2966 40.715 41.1848 40.6577 41.0696 40.5988C40.3292 40.1772 40.3292 40.1772 40.1321 39.6551C40.1409 39.3307 40.1409 39.3307 40.2817 39.1866Z" fill="#C47A53"/>
<path d="M25.9155 41.9253C26.0084 41.9253 26.1014 41.9253 26.1972 41.9253C26.2953 42.5342 26.3541 43.134 26.3886 43.7502C26.5465 46.4975 26.9631 48.8905 29.0141 50.8623C29.0141 50.9574 29.0141 51.0525 29.0141 51.1506C29.107 51.1981 29.2 51.2457 29.2958 51.2947C28.7845 51.2471 28.2732 51.1996 27.7465 51.1506C27.8859 51.0792 27.8859 51.0792 28.0282 51.0064C27.955 50.9208 27.8818 50.8351 27.8064 50.7468C25.8311 48.3441 25.5881 45.684 25.7746 42.6461C25.8173 42.405 25.863 42.1644 25.9155 41.9253Z" fill="#DA9D61"/>
<path d="M38.6708 29.3488C39.1549 29.529 39.1549 29.529 39.4982 29.8803C39.7864 30.5526 39.8185 31.1116 39.7183 31.8353C39.4329 32.4858 39.4329 32.4858 39.0141 32.7001C38.6092 32.7452 38.6092 32.7452 38.169 32.7001C37.7388 32.3431 37.49 32.0612 37.4263 31.4907C37.3828 30.239 37.3828 30.239 37.7553 29.7091C38.169 29.3848 38.169 29.3848 38.6708 29.3488Z" fill="#624230"/>
<path d="M49.6655 29.5109C50.1933 29.691 50.2965 29.7674 50.5633 30.2497C50.6904 31.0979 50.7154 31.8688 50.2728 32.61C49.8591 32.8443 49.8591 32.8443 49.3486 32.8623C48.8732 32.7001 48.8732 32.7001 48.6003 32.4298C48.349 31.6734 48.2641 30.846 48.5745 30.0937C48.9004 29.6236 49.1068 29.5306 49.6655 29.5109Z" fill="#624331"/>
<path d="M55.9155 43.3668C56.0084 43.3668 56.1014 43.3668 56.1972 43.3668C56.3462 45.716 55.7247 48.4616 54.2253 50.2857C52.7128 51.8447 52.7128 51.8447 51.787 51.8983C51.6621 51.8894 51.5371 51.8805 51.4084 51.8713C51.8218 51.421 52.2389 51.0529 52.7289 50.6911C53.9539 49.7248 54.5449 48.4264 55.0704 46.9704C55.1309 46.8135 55.1309 46.8135 55.1926 46.6534C55.5743 45.5963 55.7284 44.4734 55.9155 43.3668Z" fill="#DA9E62"/>
<path d="M54.5071 63.1145C54.693 63.1621 54.8789 63.2097 55.0705 63.2587C55.4459 64.9889 55.5825 66.6778 55.6338 68.4479C55.355 68.4479 55.0761 68.4479 54.7888 68.4479C54.7852 68.3615 54.7817 68.275 54.7781 68.186C54.7616 67.7898 54.7444 67.3936 54.7272 66.9974C54.7188 66.7935 54.7188 66.7935 54.7104 66.5855C54.6779 65.8515 54.6137 65.1392 54.5071 64.4118C54.4985 64.1747 54.4947 63.9373 54.4983 63.7001C54.4995 63.5888 54.5008 63.4775 54.5021 63.3628C54.5038 63.2809 54.5054 63.199 54.5071 63.1145Z" fill="#D5846E"/>
<path d="M27.7465 63.2587C27.8859 63.3062 28.0253 63.3538 28.169 63.4028C28.3006 64.0847 28.3317 64.7461 28.3275 65.4388C28.3272 65.5456 28.3269 65.6523 28.3266 65.7623C28.3198 66.662 28.2633 67.5531 28.169 68.4479C27.9366 68.4479 27.7042 68.4479 27.4648 68.4479C27.4482 67.2022 27.4688 65.9625 27.5264 64.7181C27.5319 64.5904 27.5375 64.4627 27.5431 64.3312C27.5885 63.4203 27.5885 63.4203 27.7465 63.2587Z" fill="#D5846E"/>
<path d="M46.3381 34.574C46.6847 34.7373 46.6847 34.7373 47.0423 35.0064C47.1801 35.5886 47.1416 36.148 47.0423 36.7362C46.7302 37.1648 46.5156 37.366 46.0564 37.601C45.8159 37.6111 45.5752 37.6132 45.3345 37.61C45.2064 37.6087 45.0782 37.6074 44.9461 37.6061C44.7985 37.6036 44.7985 37.6036 44.6479 37.601C44.6014 37.3632 44.555 37.1253 44.5071 36.8803C44.5937 36.8732 44.6803 36.8662 44.7695 36.8589C44.8834 36.8481 44.9972 36.8373 45.1145 36.8262C45.2272 36.8162 45.34 36.8062 45.4561 36.7958C45.813 36.7512 45.813 36.7512 46.1972 36.4479C46.2433 36.073 46.2433 36.073 46.2148 35.6551C46.1852 34.8869 46.1852 34.8869 46.3381 34.574Z" fill="#CC8358"/>
<path d="M60.4225 66.4298C60.5619 66.6201 60.7014 66.8104 60.845 67.0064C60.938 66.9113 61.0309 66.8161 61.1267 66.7181C61.2651 67.3023 61.279 67.848 61.2676 68.4479C61.0352 68.4479 60.8028 68.4479 60.5633 68.4479C60.5169 67.7819 60.4704 67.116 60.4225 66.4298Z" fill="#D27A63"/>
<path d="M58.3098 58.7902C58.9327 59.3096 59.3047 60.0448 59.5774 60.8082C59.531 60.9509 59.4845 61.0936 59.4366 61.2407C59.0183 60.3844 59.0183 60.3844 58.5915 59.5109C58.4161 59.87 58.4821 60.0026 58.5915 60.3758C58.2232 60.0348 57.9732 59.6752 57.7465 59.2226C57.7929 59.1275 57.8394 59.0324 57.8873 58.9344C57.9803 58.9819 58.0732 59.0295 58.169 59.0785C58.2155 58.9834 58.262 58.8882 58.3098 58.7902Z" fill="#D27961"/>
<path d="M53.3802 37.0244C53.4732 37.0244 53.5662 37.0244 53.6619 37.0244C53.6695 37.2827 53.675 37.5409 53.6795 37.7992C53.6828 37.943 53.6861 38.0869 53.6894 38.235C53.6619 38.61 53.6619 38.61 53.3802 38.8983C53.3338 39.041 53.2873 39.1837 53.2394 39.3308C53.1464 39.3308 53.0535 39.3308 52.9577 39.3308C52.8229 38.7237 52.7882 38.4242 53.0985 37.8893C53.1957 37.6021 53.2902 37.314 53.3802 37.0244Z" fill="#D48D5E"/>
<path d="M46.338 34.574C46.6901 34.6911 46.6901 34.6911 47.0422 35.0064C47.1075 35.5393 47.0821 36.0575 47.0422 36.592C46.9957 36.592 46.9493 36.592 46.9014 36.592C46.9014 36.2115 46.9014 35.8309 46.9014 35.4389C46.8084 35.4389 46.7155 35.4389 46.6197 35.4389C46.6197 35.6767 46.6197 35.9145 46.6197 36.1596C46.318 35.6964 46.2539 35.4085 46.1971 34.8623C46.2436 34.7671 46.2901 34.672 46.338 34.574Z" fill="#C88052"/>
<path d="M53.5211 25.9253C53.5676 25.9253 53.6141 25.9253 53.662 25.9253C53.8018 26.748 53.8176 27.5418 53.8028 28.3758C53.1162 27.6911 53.1162 27.6911 52.9578 27.3668C53.0972 27.4143 53.2366 27.4619 53.3803 27.5109C53.4268 26.9877 53.4733 26.4644 53.5211 25.9253Z" fill="#FDD9B7"/>
<path d="M27.1831 30.5379C27.4254 31.2819 27.2306 31.8211 27.0423 32.556C26.9107 32.122 26.8952 31.9986 27.0423 31.547C26.9493 31.547 26.8564 31.547 26.7606 31.547C26.7141 31.6421 26.6676 31.7372 26.6198 31.8352C26.6945 31.2845 26.8306 30.9615 27.1831 30.5379Z" fill="#D18452"/>
<path d="M54.3662 25.7812C54.3926 26.2677 54.3926 26.2677 54.3662 26.7902C54.2268 26.8853 54.0873 26.9805 53.9437 27.0785C53.8507 27.0309 53.7578 26.9834 53.662 26.9343C53.662 26.6489 53.662 26.3635 53.662 26.0695C54.2078 25.7812 54.2078 25.7812 54.3662 25.7812Z" fill="#DDA269"/>
<path d="M27.7464 53.3127C27.9324 53.4079 28.1183 53.503 28.3098 53.601C27.9352 54.0972 27.4784 54.1769 26.9014 54.3217C26.9478 54.2266 26.9943 54.1315 27.0422 54.0334C27.1352 54.0334 27.2281 54.0334 27.3239 54.0334C27.3239 53.9383 27.3239 53.8432 27.3239 53.7452C27.5352 53.5109 27.5352 53.5109 27.7464 53.3127Z" fill="#D6846F"/>
<path d="M53.3802 34.7181C53.4267 34.7181 53.4732 34.7181 53.5211 34.7181C53.4746 35.2414 53.4281 35.7646 53.3802 36.3037C53.3337 36.3037 53.2873 36.3037 53.2394 36.3037C53.1929 36.0183 53.1464 35.7329 53.0985 35.4389C52.8197 35.5816 52.8197 35.5816 52.5352 35.7271C52.6726 35.5586 52.8106 35.3905 52.9489 35.2226C53.0257 35.129 53.1025 35.0353 53.1816 34.9389C53.2799 34.8296 53.2799 34.8296 53.3802 34.7181Z" fill="#FDD9B8"/>
<path d="M30.4225 30.1055C30.7478 30.2007 31.0732 30.2958 31.4084 30.3938C31.4549 30.5841 31.5014 30.7744 31.5492 30.9704C31.1443 30.9434 31.1443 30.9434 30.7042 30.8263C30.5105 30.4569 30.5105 30.4569 30.4225 30.1055Z" fill="#C37F50"/>
<path d="M46.6197 35.4389C46.7127 35.4389 46.8056 35.4389 46.9014 35.4389C46.9014 35.8194 46.9014 36.1999 46.9014 36.592C46.7155 36.4969 46.5296 36.4017 46.338 36.3037C46.4093 35.9911 46.4788 35.7272 46.6197 35.4389Z" fill="#D18C60"/>
<path d="M26.6197 32.4118C26.6662 32.4118 26.7127 32.4118 26.7606 32.4118C26.7606 33.0302 26.7606 33.6486 26.7606 34.2857C26.6211 34.3333 26.4817 34.3808 26.338 34.4299C26.332 34.1897 26.3323 33.9493 26.338 33.7091C26.3845 33.6616 26.431 33.614 26.4789 33.565C26.5114 33.3708 26.5368 33.1753 26.5581 32.9794C26.5784 32.7921 26.5988 32.6048 26.6197 32.4118Z" fill="#D89160"/>
<path d="M31.831 27.2226C31.8775 27.2226 31.9239 27.2226 31.9718 27.2226C32.0121 28.4582 32.0121 28.4582 31.6901 28.9524C31.5972 28.9048 31.5042 28.8572 31.4084 28.8082C31.5031 28.2596 31.6518 27.7485 31.831 27.2226Z" fill="#D5965A"/>
<path d="M30.1408 52.3037C30.3267 52.3988 30.5126 52.494 30.7042 52.592C30.6112 52.7823 30.5183 52.9725 30.4225 53.1686C30.0739 53.0259 30.0739 53.0259 29.7183 52.8803C29.8577 52.69 29.9971 52.4997 30.1408 52.3037Z" fill="#D6856F"/>
<path d="M17.8873 67.0064C18.169 67.2947 18.169 67.2947 18.1866 67.6731C18.1808 67.7861 18.175 67.899 18.169 68.0154C18.0295 68.0154 17.8901 68.0154 17.7464 68.0154C17.7 67.73 17.6535 67.4446 17.6056 67.1506C17.6985 67.103 17.7915 67.0554 17.8873 67.0064Z" fill="#D98975"/>
<path d="M39.155 25.3488C39.155 25.4915 39.155 25.6342 39.155 25.7812C38.8249 25.7444 38.496 25.6958 38.169 25.6371C38.1226 25.5419 38.0761 25.4468 38.0282 25.3488C38.4915 25.1907 38.692 25.2335 39.155 25.3488Z" fill="#DDA46A"/>
<path d="M17.6056 67.7271C17.6521 67.8223 17.6985 67.9174 17.7464 68.0154C17.9324 68.0154 18.1183 68.0154 18.3098 68.0154C18.3098 68.1581 18.3098 68.3008 18.3098 68.4479C18.0774 68.4479 17.845 68.4479 17.6056 68.4479C17.6056 68.21 17.6056 67.9722 17.6056 67.7271Z" fill="#D5755E"/>
<path d="M37.6057 26.5019C37.8381 26.5019 38.0705 26.5019 38.3099 26.5019C38.3099 26.5971 38.3099 26.6922 38.3099 26.7902C37.9845 26.8853 37.6592 26.9805 37.324 27.0785C37.4169 26.8882 37.5099 26.698 37.6057 26.5019Z" fill="#BC7C50"/>
</svg>
